<?xml version="1.0" encoding="UTF-8" standalone="no"?>
<svg xmlns="http://www.w3.org/2000/svg" version="1.1" width="17000mil" height="11000mil" viewBox="0 0 1700000 1100000">
<rect x="0" y="0" width="1700000" height="1100000" fill="white"/>
<polyline points="1460500,635000 1498600,635000" stroke="#000000" stroke-width="10" fill="none"/>
<polyline points="1409700,1168400 1752600,1168400" stroke="#000000" stroke-width="10" fill="none"/>
<polyline points="1409700,1320800 1752600,1320800" stroke="#000000" stroke-width="10" fill="none"/>
<polyline points="1549400,1828800 1549400,1879600" stroke="#000000" stroke-width="10" fill="none"/>
<polyline points="2755900,1828800 2882900,1828800" stroke="#000000" stroke-width="10" fill="none"/>
<polyline points="2794000,762000 3136900,762000" stroke="#000000" stroke-width="10" fill="none"/>
<polyline points="2794000,660400 3136900,660400" stroke="#000000" stroke-width="10" fill="none"/>
<polyline points="2794000,711200 3136900,711200" stroke="#000000" stroke-width="10" fill="none"/>
<polyline points="2794000,965200 3136900,965200" stroke="#000000" stroke-width="10" fill="none"/>
<polyline points="2794000,863600 3136900,863600" stroke="#000000" stroke-width="10" fill="none"/>
<polyline points="2794000,914400 3136900,914400" stroke="#000000" stroke-width="10" fill="none"/>
<polyline points="2794000,1219200 3136900,1219200" stroke="#000000" stroke-width="10" fill="none"/>
<polyline points="2794000,812800 3136900,812800" stroke="#000000" stroke-width="10" fill="none"/>
<polyline points="2794000,1117600 3136900,1117600" stroke="#000000" stroke-width="10" fill="none"/>
<polyline points="2794000,609600 3136900,609600" stroke="#000000" stroke-width="10" fill="none"/>
<polyline points="2794000,558800 3136900,558800" stroke="#000000" stroke-width="10" fill="none"/>
<polyline points="2794000,1066800 3136900,1066800" stroke="#000000" stroke-width="10" fill="none"/>
<polyline points="3187700,457200 3327400,457200" stroke="#000000" stroke-width="10" fill="none"/>
<polyline points="2794000,1270000 3136900,1270000" stroke="#000000" stroke-width="10" fill="none"/>
<polyline points="2794000,1168400 3136900,1168400" stroke="#000000" stroke-width="10" fill="none"/>
<polyline points="2794000,1016000 3136900,1016000" stroke="#000000" stroke-width="10" fill="none"/>
<polyline points="952500,1117600 1308100,1117600" stroke="#000000" stroke-width="10" fill="none"/>
<polyline points="952500,1219200 1308100,1219200" stroke="#000000" stroke-width="10" fill="none"/>
<polyline points="952500,1066800 1308100,1066800" stroke="#000000" stroke-width="10" fill="none"/>
<polyline points="952500,1168400 1308100,1168400" stroke="#000000" stroke-width="10" fill="none"/>
<polyline points="1409700,1066800 1752600,1066800" stroke="#000000" stroke-width="10" fill="none"/>
<polyline points="2832100,1473200 3251200,1473200" stroke="#000000" stroke-width="10" fill="none"/>
<polyline points="1409700,1219200 1752600,1219200" stroke="#000000" stroke-width="10" fill="none"/>
<polyline points="1409700,1016000 1752600,1016000" stroke="#000000" stroke-width="10" fill="none"/>
<polyline points="2832100,1422400 3251200,1422400" stroke="#000000" stroke-width="10" fill="none"/>
<polyline points="1409700,1117600 1752600,1117600" stroke="#000000" stroke-width="10" fill="none"/>
<polyline points="952500,1320800 1308100,1320800" stroke="#000000" stroke-width="10" fill="none"/>
<polyline points="2413000,1168400 2692400,1168400" stroke="#000000" stroke-width="10" fill="none"/>
<polyline points="2413000,711200 2692400,711200" stroke="#000000" stroke-width="10" fill="none"/>
<polyline points="2832100,1371600 3251200,1371600" stroke="#000000" stroke-width="10" fill="none"/>
<polyline points="2413000,660400 2692400,660400" stroke="#000000" stroke-width="10" fill="none"/>
<polyline points="2413000,1117600 2692400,1117600" stroke="#000000" stroke-width="10" fill="none"/>
<polyline points="2413000,558800 2692400,558800" stroke="#000000" stroke-width="10" fill="none"/>
<polyline points="2413000,762000 2692400,762000" stroke="#000000" stroke-width="10" fill="none"/>
<polyline points="2413000,1270000 2692400,1270000" stroke="#000000" stroke-width="10" fill="none"/>
<polyline points="2413000,1219200 2692400,1219200" stroke="#000000" stroke-width="10" fill="none"/>
<polyline points="2413000,1473200 2730500,1473200" stroke="#000000" stroke-width="10" fill="none"/>
<polyline points="2413000,1371600 2730500,1371600" stroke="#000000" stroke-width="10" fill="none"/>
<polyline points="2413000,1422400 2730500,1422400" stroke="#000000" stroke-width="10" fill="none"/>
<polyline points="952500,1016000 1308100,1016000" stroke="#000000" stroke-width="10" fill="none"/>
<polyline points="1549400,812800 1752600,812800" stroke="#000000" stroke-width="10" fill="none"/>
<polyline points="1549400,736600 1752600,736600" stroke="#000000" stroke-width="10" fill="none"/>
<polyline points="1460500,558800 1752600,558800" stroke="#000000" stroke-width="10" fill="none"/>
<polyline points="2501900,1943100 2692400,1943100" stroke="#000000" stroke-width="10" fill="none"/>
<polyline points="952500,1371600 1752600,1371600" stroke="#000000" stroke-width="10" fill="none"/>
<polyline points="2413000,1625600 3213100,1625600" stroke="#000000" stroke-width="10" fill="none"/>
<polyline points="952500,1422400 1752600,1422400" stroke="#000000" stroke-width="10" fill="none"/>
<polyline points="1549400,660400 1752600,660400" stroke="#000000" stroke-width="10" fill="none"/>
<polyline points="1549400,838200 1752600,838200" stroke="#000000" stroke-width="10" fill="none"/>
<polyline points="1549400,685800 1752600,685800" stroke="#000000" stroke-width="10" fill="none"/>
<polyline points="1079500,1524000 1752600,1524000" stroke="#000000" stroke-width="10" fill="none"/>
<polyline points="1549400,762000 1752600,762000" stroke="#000000" stroke-width="10" fill="none"/>
<polyline points="2413000,1727200 3213100,1727200" stroke="#000000" stroke-width="10" fill="none"/>
<polyline points="1549400,889000 1752600,889000" stroke="#000000" stroke-width="10" fill="none"/>
<polyline points="2413000,1676400 3213100,1676400" stroke="#000000" stroke-width="10" fill="none"/>
<polyline points="2413000,1574800 3213100,1574800" stroke="#000000" stroke-width="10" fill="none"/>
<text x="635000" y="1498600" font-family="Arial" font-size="2000" fill="blue">DDR_DQS</text>
<text x="1158240" y="2519680" font-family="Arial" font-size="2000" fill="blue">DDR3_A2</text>
<text x="711200" y="2413000" font-family="Arial" font-size="2000" fill="blue">DDR3_A11</text>
<text x="1371600" y="2451100" font-family="Arial" font-size="2000" fill="blue">DDR3_BA2</text>
<text x="812800" y="1557020" font-family="Arial" font-size="2000" fill="blue">DDR_DQS_P1</text>
<text x="736600" y="1557020" font-family="Arial" font-size="2000" fill="blue">DDR_DQS_P2</text>
<text x="660400" y="1557020" font-family="Arial" font-size="2000" fill="blue">DDR_DQS_P3</text>
<text x="843280" y="1557020" font-family="Arial" font-size="2000" fill="blue">DDR_DQS_N1</text>
<text x="685800" y="1557020" font-family="Arial" font-size="2000" fill="blue">DDR_DQS_N3</text>
<text x="1524000" y="1557020" font-family="Arial" font-size="2000" fill="blue">DDR_RST_L</text>
<text x="764540" y="1557020" font-family="Arial" font-size="2000" fill="blue">DDR_DQS_N2</text>
<text x="891540" y="1557020" font-family="Arial" font-size="2000" fill="blue">DDR_DQS_P0</text>
<text x="916940" y="1557020" font-family="Arial" font-size="2000" fill="blue">DDR_DQS_N0</text>
<text x="33020" y="27940" font-family="Arial" font-size="2000" fill="blue">VCC_BAR</text>
<text x="1524000" y="622300" font-family="Arial" font-size="2000" fill="blue">PS_DDR_VREF1</text>
<text x="1473200" y="622300" font-family="Arial" font-size="2000" fill="blue">PS_DDR_VREF0</text>
<text x="1498600" y="-63500" font-family="Arial" font-size="2000" fill="blue">VCCO_DDR_10</text>
<text x="1473200" y="-63500" font-family="Arial" font-size="2000" fill="blue">VCCO_DDR_9</text>
<text x="1447800" y="-63500" font-family="Arial" font-size="2000" fill="blue">VCCO_DDR_8</text>
<text x="1422400" y="-63500" font-family="Arial" font-size="2000" fill="blue">VCCO_DDR_7</text>
<text x="1397000" y="-63500" font-family="Arial" font-size="2000" fill="blue">VCCO_DDR_6</text>
<text x="1371600" y="-63500" font-family="Arial" font-size="2000" fill="blue">VCCO_DDR_5</text>
<text x="1346200" y="-63500" font-family="Arial" font-size="2000" fill="blue">VCCO_DDR_4</text>
<text x="1320800" y="-63500" font-family="Arial" font-size="2000" fill="blue">VCCO_DDR_3</text>
<text x="1295400" y="-63500" font-family="Arial" font-size="2000" fill="blue">VCCO_DDR_2</text>
<text x="1270000" y="-63500" font-family="Arial" font-size="2000" fill="blue">VCCO_DDR_1</text>
<text x="1066800" y="-63500" font-family="Arial" font-size="2000" fill="blue">PS_DDR_DRST_B</text>
<text x="1371600" y="622300" font-family="Arial" font-size="2000" fill="blue">PS_DDR_VRN</text>
<text x="1422400" y="622300" font-family="Arial" font-size="2000" fill="blue">PS_DDR_VRP</text>
<text x="228600" y="-63500" font-family="Arial" font-size="2000" fill="blue">PS_DDR_DQS_N3</text>
<text x="304800" y="-63500" font-family="Arial" font-size="2000" fill="blue">PS_DDR_DQS_N2</text>
<text x="381000" y="-63500" font-family="Arial" font-size="2000" fill="blue">PS_DDR_DQS_N1</text>
<text x="457200" y="-63500" font-family="Arial" font-size="2000" fill="blue">PS_DDR_DQS_N0</text>
<text x="203200" y="-63500" font-family="Arial" font-size="2000" fill="blue">PS_DDR_DQS_P3</text>
<text x="279400" y="-63500" font-family="Arial" font-size="2000" fill="blue">PS_DDR_DQS_P2</text>
<text x="355600" y="-63500" font-family="Arial" font-size="2000" fill="blue">PS_DDR_DQS_P1</text>
<text x="431800" y="-63500" font-family="Arial" font-size="2000" fill="blue">PS_DDR_DQS_P0</text>
<text x="1117600" y="622300" font-family="Arial" font-size="2000" fill="blue">PS_DDR_DM3</text>
<text x="1168400" y="622300" font-family="Arial" font-size="2000" fill="blue">PS_DDR_DM2</text>
<text x="1219200" y="622300" font-family="Arial" font-size="2000" fill="blue">PS_DDR_DM1</text>
<text x="1270000" y="622300" font-family="Arial" font-size="2000" fill="blue">PS_DDR_DM0</text>
<text x="965200" y="-63500" font-family="Arial" font-size="2000" fill="blue">PS_DDR_CKN</text>
<text x="914400" y="-63500" font-family="Arial" font-size="2000" fill="blue">PS_DDR_CKP</text>
<text x="762000" y="-63500" font-family="Arial" font-size="2000" fill="blue">PS_DDR_RAS_B</text>
<text x="711200" y="-63500" font-family="Arial" font-size="2000" fill="blue">PS_DDR_CAS_B</text>
<text x="660400" y="-63500" font-family="Arial" font-size="2000" fill="blue">PS_DDR_WE_B</text>
<text x="863600" y="-63500" font-family="Arial" font-size="2000" fill="blue">PS_DDR_CKE</text>
<text x="609600" y="-63500" font-family="Arial" font-size="2000" fill="blue">PS_DDR_CS_B</text>
<text x="558800" y="-63500" font-family="Arial" font-size="2000" fill="blue">PS_DDR_ODT</text>
<text x="914400" y="622300" font-family="Arial" font-size="2000" fill="blue">PS_DDR_BA2</text>
<text x="965200" y="622300" font-family="Arial" font-size="2000" fill="blue">PS_DDR_BA1</text>
<text x="1016000" y="622300" font-family="Arial" font-size="2000" fill="blue">PS_DDR_BA0</text>
<text x="101600" y="622300" font-family="Arial" font-size="2000" fill="blue">PS_DDR_A14</text>
<text x="152400" y="622300" font-family="Arial" font-size="2000" fill="blue">PS_DDR_A13</text>
<text x="203200" y="622300" font-family="Arial" font-size="2000" fill="blue">PS_DDR_A12</text>
<text x="254000" y="622300" font-family="Arial" font-size="2000" fill="blue">PS_DDR_A11</text>
<text x="304800" y="622300" font-family="Arial" font-size="2000" fill="blue">PS_DDR_A10</text>
<text x="355600" y="622300" font-family="Arial" font-size="2000" fill="blue">PS_DDR_A9</text>
<text x="406400" y="622300" font-family="Arial" font-size="2000" fill="blue">PS_DDR_A8</text>
<text x="457200" y="622300" font-family="Arial" font-size="2000" fill="blue">PS_DDR_A7</text>
<text x="508000" y="622300" font-family="Arial" font-size="2000" fill="blue">PS_DDR_A6</text>
<text x="558800" y="622300" font-family="Arial" font-size="2000" fill="blue">PS_DDR_A5</text>
<text x="609600" y="622300" font-family="Arial" font-size="2000" fill="blue">PS_DDR_A4</text>
<text x="660400" y="622300" font-family="Arial" font-size="2000" fill="blue">PS_DDR_A3</text>
<text x="711200" y="622300" font-family="Arial" font-size="2000" fill="blue">PS_DDR_A2</text>
<text x="762000" y="622300" font-family="Arial" font-size="2000" fill="blue">PS_DDR_A1</text>
<text x="812800" y="622300" font-family="Arial" font-size="2000" fill="blue">PS_DDR_A0</text>
<text x="457200" y="1803400" font-family="Arial" font-size="2000" fill="blue">CDS_LMAN_SPLIT_NUMBER</text>
<text x="-35600" y="-529" font-family="Arial" font-size="2000" fill="blue">SPLIT_INST</text>
<text x="-25400" y="5080" font-family="Arial" font-size="2000" fill="blue">G</text>
<text x="-17780" y="-50800" font-family="Arial" font-size="2000" fill="blue">B</text>
<text x="-5080" y="38100" font-family="Arial" font-size="2000" fill="blue">S</text>
<text x="-30480" y="38100" font-family="Arial" font-size="2000" fill="blue">B</text>
<text x="-5080" y="-63500" font-family="Arial" font-size="2000" fill="blue">S</text>
<text x="0" y="-50800" font-family="Arial" font-size="2000" fill="blue">A</text>
<text x="88900" y="25400" font-family="Arial" font-size="2000" fill="blue">2</text>
<text x="-38100" y="25400" font-family="Arial" font-size="2000" fill="blue">1</text>
<text x="1562100" y="1081095" font-family="Arial" font-size="2000" fill="blue">R111</text>
<text x="1562100" y="1065840" font-family="Arial" font-size="2000" fill="blue">resistor</text>
<text x="1854200" y="2884495" font-family="Arial" font-size="2000" fill="blue">R66</text>
<text x="1854200" y="2869240" font-family="Arial" font-size="2000" fill="blue">resistor</text>
<text x="1981200" y="2884495" font-family="Arial" font-size="2000" fill="blue">R67</text>
<text x="1981200" y="2869240" font-family="Arial" font-size="2000" fill="blue">resistor</text>
<text x="1854200" y="2579695" font-family="Arial" font-size="2000" fill="blue">R112</text>
<text x="1854200" y="2564440" font-family="Arial" font-size="2000" fill="blue">resistor</text>
<text x="1905000" y="2579695" font-family="Arial" font-size="2000" fill="blue">R113</text>
<text x="1905000" y="2564440" font-family="Arial" font-size="2000" fill="blue">resistor</text>
<text x="1041400" y="1411295" font-family="Arial" font-size="2000" fill="blue">R320</text>
<text x="1041400" y="1396040" font-family="Arial" font-size="2000" fill="blue">resistor</text>
<text x="1092200" y="1411295" font-family="Arial" font-size="2000" fill="blue">R321</text>
<text x="1092200" y="1396040" font-family="Arial" font-size="2000" fill="blue">resistor</text>
<text x="1143000" y="1411295" font-family="Arial" font-size="2000" fill="blue">R322</text>
<text x="1143000" y="1396040" font-family="Arial" font-size="2000" fill="blue">resistor</text>
<text x="1193800" y="1411295" font-family="Arial" font-size="2000" fill="blue">R323</text>
<text x="1193800" y="1396040" font-family="Arial" font-size="2000" fill="blue">resistor</text>
<text x="1244600" y="1411295" font-family="Arial" font-size="2000" fill="blue">R324</text>
<text x="1244600" y="1396040" font-family="Arial" font-size="2000" fill="blue">resistor</text>
<text x="533400" y="2744795" font-family="Arial" font-size="2000" fill="blue">R302</text>
<text x="533400" y="2729540" font-family="Arial" font-size="2000" fill="blue">resistor</text>
<text x="584200" y="2744795" font-family="Arial" font-size="2000" fill="blue">R303</text>
<text x="584200" y="2729540" font-family="Arial" font-size="2000" fill="blue">resistor</text>
<text x="635000" y="2744795" font-family="Arial" font-size="2000" fill="blue">R304</text>
<text x="635000" y="2729540" font-family="Arial" font-size="2000" fill="blue">resistor</text>
<text x="685800" y="2744795" font-family="Arial" font-size="2000" fill="blue">R305</text>
<text x="685800" y="2729540" font-family="Arial" font-size="2000" fill="blue">resistor</text>
<text x="736600" y="2744795" font-family="Arial" font-size="2000" fill="blue">R306</text>
<text x="736600" y="2729540" font-family="Arial" font-size="2000" fill="blue">resistor</text>
<text x="787400" y="2744795" font-family="Arial" font-size="2000" fill="blue">R307</text>
<text x="787400" y="2729540" font-family="Arial" font-size="2000" fill="blue">resistor</text>
<text x="838200" y="2744795" font-family="Arial" font-size="2000" fill="blue">R308</text>
<text x="838200" y="2729540" font-family="Arial" font-size="2000" fill="blue">resistor</text>
<text x="889000" y="2744795" font-family="Arial" font-size="2000" fill="blue">R309</text>
<text x="889000" y="2729540" font-family="Arial" font-size="2000" fill="blue">resistor</text>
<text x="939800" y="2744795" font-family="Arial" font-size="2000" fill="blue">R310</text>
<text x="939800" y="2729540" font-family="Arial" font-size="2000" fill="blue">resistor</text>
<text x="990600" y="2744795" font-family="Arial" font-size="2000" fill="blue">R311</text>
<text x="990600" y="2729540" font-family="Arial" font-size="2000" fill="blue">resistor</text>
<text x="1041400" y="2744795" font-family="Arial" font-size="2000" fill="blue">R312</text>
<text x="1041400" y="2729540" font-family="Arial" font-size="2000" fill="blue">resistor</text>
<text x="1092200" y="2744795" font-family="Arial" font-size="2000" fill="blue">R313</text>
<text x="1092200" y="2729540" font-family="Arial" font-size="2000" fill="blue">resistor</text>
<text x="1143000" y="2744795" font-family="Arial" font-size="2000" fill="blue">R314</text>
<text x="1143000" y="2729540" font-family="Arial" font-size="2000" fill="blue">resistor</text>
<text x="1193800" y="2744795" font-family="Arial" font-size="2000" fill="blue">R315</text>
<text x="1193800" y="2729540" font-family="Arial" font-size="2000" fill="blue">resistor</text>
<text x="1244600" y="2744795" font-family="Arial" font-size="2000" fill="blue">R316</text>
<text x="1244600" y="2729540" font-family="Arial" font-size="2000" fill="blue">resistor</text>
<text x="1346200" y="2782895" font-family="Arial" font-size="2000" fill="blue">R317</text>
<text x="1346200" y="2767640" font-family="Arial" font-size="2000" fill="blue">resistor</text>
<text x="1397000" y="2782895" font-family="Arial" font-size="2000" fill="blue">R318</text>
<text x="1397000" y="2767640" font-family="Arial" font-size="2000" fill="blue">resistor</text>
<text x="1447800" y="2782895" font-family="Arial" font-size="2000" fill="blue">R319</text>
<text x="1447800" y="2767640" font-family="Arial" font-size="2000" fill="blue">resistor</text>
<text x="1943100" y="436785" font-family="Arial" font-size="2000" fill="blue">C70</text>
<text x="1943100" y="419629" font-family="Arial" font-size="2000" fill="blue">capacitor</text>
<text x="1943100" y="538385" font-family="Arial" font-size="2000" fill="blue">C71</text>
<text x="1943100" y="521229" font-family="Arial" font-size="2000" fill="blue">capacitor</text>
<text x="1943100" y="639985" font-family="Arial" font-size="2000" fill="blue">C72</text>
<text x="1943100" y="622829" font-family="Arial" font-size="2000" fill="blue">capacitor</text>
<text x="1943100" y="741585" font-family="Arial" font-size="2000" fill="blue">C73</text>
<text x="1943100" y="724429" font-family="Arial" font-size="2000" fill="blue">capacitor</text>
<text x="1943100" y="1249585" font-family="Arial" font-size="2000" fill="blue">C78</text>
<text x="1943100" y="1232429" font-family="Arial" font-size="2000" fill="blue">capacitor</text>
<text x="1943100" y="1351185" font-family="Arial" font-size="2000" fill="blue">C79</text>
<text x="1943100" y="1334029" font-family="Arial" font-size="2000" fill="blue">capacitor</text>
<text x="1943100" y="1452785" font-family="Arial" font-size="2000" fill="blue">C80</text>
<text x="1943100" y="1435629" font-family="Arial" font-size="2000" fill="blue">capacitor</text>
<text x="1943100" y="1554385" font-family="Arial" font-size="2000" fill="blue">C81</text>
<text x="1943100" y="1537229" font-family="Arial" font-size="2000" fill="blue">capacitor</text>
<text x="1993900" y="2506885" font-family="Arial" font-size="2000" fill="blue">C82</text>
<text x="1993900" y="2489729" font-family="Arial" font-size="2000" fill="blue">capacitor</text>
<text x="2044700" y="2748185" font-family="Arial" font-size="2000" fill="blue">C83</text>
<text x="2044700" y="2731029" font-family="Arial" font-size="2000" fill="blue">capacitor</text>
<text x="1346200" y="1411295" font-family="Arial" font-size="2000" fill="blue">R325</text>
<text x="1346200" y="1396040" font-family="Arial" font-size="2000" fill="blue">resistor</text>
<text x="1943100" y="843185" font-family="Arial" font-size="2000" fill="blue">C74</text>
<text x="1943100" y="826029" font-family="Arial" font-size="2000" fill="blue">capacitor</text>
<text x="1943100" y="944785" font-family="Arial" font-size="2000" fill="blue">C75</text>
<text x="1943100" y="927629" font-family="Arial" font-size="2000" fill="blue">capacitor</text>
<text x="1943100" y="1046385" font-family="Arial" font-size="2000" fill="blue">C76</text>
<text x="1943100" y="1029229" font-family="Arial" font-size="2000" fill="blue">capacitor</text>
<text x="1943100" y="1147985" font-family="Arial" font-size="2000" fill="blue">C77</text>
<text x="1943100" y="1130829" font-family="Arial" font-size="2000" fill="blue">capacitor</text>
<rect x="1562100" y="1054100" width="5000" height="5000" stroke="red" stroke-width="20" fill="none"/>
<text x="1562100" y="1053100" font-family="Arial" font-size="3000" fill="red" font-weight="bold">R111</text>
<rect x="1854200" y="2857500" width="5000" height="5000" stroke="red" stroke-width="20" fill="none"/>
<text x="1854200" y="2856500" font-family="Arial" font-size="3000" fill="red" font-weight="bold">R66</text>
<rect x="1981200" y="2857500" width="5000" height="5000" stroke="red" stroke-width="20" fill="none"/>
<text x="1981200" y="2856500" font-family="Arial" font-size="3000" fill="red" font-weight="bold">R67</text>
<rect x="1854200" y="2552700" width="5000" height="5000" stroke="red" stroke-width="20" fill="none"/>
<text x="1854200" y="2551700" font-family="Arial" font-size="3000" fill="red" font-weight="bold">R112</text>
<rect x="1905000" y="2552700" width="5000" height="5000" stroke="red" stroke-width="20" fill="none"/>
<text x="1905000" y="2551700" font-family="Arial" font-size="3000" fill="red" font-weight="bold">R113</text>
<rect x="1041400" y="1384300" width="5000" height="5000" stroke="red" stroke-width="20" fill="none"/>
<text x="1041400" y="1383300" font-family="Arial" font-size="3000" fill="red" font-weight="bold">R320</text>
<rect x="1092200" y="1384300" width="5000" height="5000" stroke="red" stroke-width="20" fill="none"/>
<text x="1092200" y="1383300" font-family="Arial" font-size="3000" fill="red" font-weight="bold">R321</text>
<rect x="1143000" y="1384300" width="5000" height="5000" stroke="red" stroke-width="20" fill="none"/>
<text x="1143000" y="1383300" font-family="Arial" font-size="3000" fill="red" font-weight="bold">R322</text>
<rect x="1193800" y="1384300" width="5000" height="5000" stroke="red" stroke-width="20" fill="none"/>
<text x="1193800" y="1383300" font-family="Arial" font-size="3000" fill="red" font-weight="bold">R323</text>
<rect x="1244600" y="1384300" width="5000" height="5000" stroke="red" stroke-width="20" fill="none"/>
<text x="1244600" y="1383300" font-family="Arial" font-size="3000" fill="red" font-weight="bold">R324</text>
<rect x="533400" y="2717800" width="5000" height="5000" stroke="red" stroke-width="20" fill="none"/>
<text x="533400" y="2716800" font-family="Arial" font-size="3000" fill="red" font-weight="bold">R302</text>
<rect x="584200" y="2717800" width="5000" height="5000" stroke="red" stroke-width="20" fill="none"/>
<text x="584200" y="2716800" font-family="Arial" font-size="3000" fill="red" font-weight="bold">R303</text>
<rect x="635000" y="2717800" width="5000" height="5000" stroke="red" stroke-width="20" fill="none"/>
<text x="635000" y="2716800" font-family="Arial" font-size="3000" fill="red" font-weight="bold">R304</text>
<rect x="685800" y="2717800" width="5000" height="5000" stroke="red" stroke-width="20" fill="none"/>
<text x="685800" y="2716800" font-family="Arial" font-size="3000" fill="red" font-weight="bold">R305</text>
<rect x="736600" y="2717800" width="5000" height="5000" stroke="red" stroke-width="20" fill="none"/>
<text x="736600" y="2716800" font-family="Arial" font-size="3000" fill="red" font-weight="bold">R306</text>
<rect x="787400" y="2717800" width="5000" height="5000" stroke="red" stroke-width="20" fill="none"/>
<text x="787400" y="2716800" font-family="Arial" font-size="3000" fill="red" font-weight="bold">R307</text>
<rect x="838200" y="2717800" width="5000" height="5000" stroke="red" stroke-width="20" fill="none"/>
<text x="838200" y="2716800" font-family="Arial" font-size="3000" fill="red" font-weight="bold">R308</text>
<rect x="889000" y="2717800" width="5000" height="5000" stroke="red" stroke-width="20" fill="none"/>
<text x="889000" y="2716800" font-family="Arial" font-size="3000" fill="red" font-weight="bold">R309</text>
<rect x="939800" y="2717800" width="5000" height="5000" stroke="red" stroke-width="20" fill="none"/>
<text x="939800" y="2716800" font-family="Arial" font-size="3000" fill="red" font-weight="bold">R310</text>
<rect x="990600" y="2717800" width="5000" height="5000" stroke="red" stroke-width="20" fill="none"/>
<text x="990600" y="2716800" font-family="Arial" font-size="3000" fill="red" font-weight="bold">R311</text>
<rect x="1041400" y="2717800" width="5000" height="5000" stroke="red" stroke-width="20" fill="none"/>
<text x="1041400" y="2716800" font-family="Arial" font-size="3000" fill="red" font-weight="bold">R312</text>
<rect x="1092200" y="2717800" width="5000" height="5000" stroke="red" stroke-width="20" fill="none"/>
<text x="1092200" y="2716800" font-family="Arial" font-size="3000" fill="red" font-weight="bold">R313</text>
<rect x="1143000" y="2717800" width="5000" height="5000" stroke="red" stroke-width="20" fill="none"/>
<text x="1143000" y="2716800" font-family="Arial" font-size="3000" fill="red" font-weight="bold">R314</text>
<rect x="1193800" y="2717800" width="5000" height="5000" stroke="red" stroke-width="20" fill="none"/>
<text x="1193800" y="2716800" font-family="Arial" font-size="3000" fill="red" font-weight="bold">R315</text>
<rect x="1244600" y="2717800" width="5000" height="5000" stroke="red" stroke-width="20" fill="none"/>
<text x="1244600" y="2716800" font-family="Arial" font-size="3000" fill="red" font-weight="bold">R316</text>
<rect x="1346200" y="2755900" width="5000" height="5000" stroke="red" stroke-width="20" fill="none"/>
<text x="1346200" y="2754900" font-family="Arial" font-size="3000" fill="red" font-weight="bold">R317</text>
<rect x="1397000" y="2755900" width="5000" height="5000" stroke="red" stroke-width="20" fill="none"/>
<text x="1397000" y="2754900" font-family="Arial" font-size="3000" fill="red" font-weight="bold">R318</text>
<rect x="1447800" y="2755900" width="5000" height="5000" stroke="red" stroke-width="20" fill="none"/>
<text x="1447800" y="2754900" font-family="Arial" font-size="3000" fill="red" font-weight="bold">R319</text>
<rect x="1943100" y="406400" width="5000" height="5000" stroke="red" stroke-width="20" fill="none"/>
<text x="1943100" y="405400" font-family="Arial" font-size="3000" fill="red" font-weight="bold">C70</text>
<rect x="1943100" y="508000" width="5000" height="5000" stroke="red" stroke-width="20" fill="none"/>
<text x="1943100" y="507000" font-family="Arial" font-size="3000" fill="red" font-weight="bold">C71</text>
<rect x="1943100" y="609600" width="5000" height="5000" stroke="red" stroke-width="20" fill="none"/>
<text x="1943100" y="608600" font-family="Arial" font-size="3000" fill="red" font-weight="bold">C72</text>
<rect x="1943100" y="711200" width="5000" height="5000" stroke="red" stroke-width="20" fill="none"/>
<text x="1943100" y="710200" font-family="Arial" font-size="3000" fill="red" font-weight="bold">C73</text>
<rect x="1943100" y="1219200" width="5000" height="5000" stroke="red" stroke-width="20" fill="none"/>
<text x="1943100" y="1218200" font-family="Arial" font-size="3000" fill="red" font-weight="bold">C78</text>
<rect x="1943100" y="1320800" width="5000" height="5000" stroke="red" stroke-width="20" fill="none"/>
<text x="1943100" y="1319800" font-family="Arial" font-size="3000" fill="red" font-weight="bold">C79</text>
<rect x="1943100" y="1422400" width="5000" height="5000" stroke="red" stroke-width="20" fill="none"/>
<text x="1943100" y="1421400" font-family="Arial" font-size="3000" fill="red" font-weight="bold">C80</text>
<rect x="1943100" y="1524000" width="5000" height="5000" stroke="red" stroke-width="20" fill="none"/>
<text x="1943100" y="1523000" font-family="Arial" font-size="3000" fill="red" font-weight="bold">C81</text>
<rect x="1993900" y="2476500" width="5000" height="5000" stroke="red" stroke-width="20" fill="none"/>
<text x="1993900" y="2475500" font-family="Arial" font-size="3000" fill="red" font-weight="bold">C82</text>
<rect x="2044700" y="2717800" width="5000" height="5000" stroke="red" stroke-width="20" fill="none"/>
<text x="2044700" y="2716800" font-family="Arial" font-size="3000" fill="red" font-weight="bold">C83</text>
<rect x="1346200" y="1384300" width="5000" height="5000" stroke="red" stroke-width="20" fill="none"/>
<text x="1346200" y="1383300" font-family="Arial" font-size="3000" fill="red" font-weight="bold">R325</text>
<rect x="1943100" y="812800" width="5000" height="5000" stroke="red" stroke-width="20" fill="none"/>
<text x="1943100" y="811800" font-family="Arial" font-size="3000" fill="red" font-weight="bold">C74</text>
<rect x="1943100" y="914400" width="5000" height="5000" stroke="red" stroke-width="20" fill="none"/>
<text x="1943100" y="913400" font-family="Arial" font-size="3000" fill="red" font-weight="bold">C75</text>
<rect x="1943100" y="1016000" width="5000" height="5000" stroke="red" stroke-width="20" fill="none"/>
<text x="1943100" y="1015000" font-family="Arial" font-size="3000" fill="red" font-weight="bold">C76</text>
<rect x="1943100" y="1117600" width="5000" height="5000" stroke="red" stroke-width="20" fill="none"/>
<text x="1943100" y="1116600" font-family="Arial" font-size="3000" fill="red" font-weight="bold">C77</text>
</svg>