<?xml version="1.0" encoding="UTF-8" standalone="no"?>
<svg xmlns="http://www.w3.org/2000/svg" version="1.1" width="17000mil" height="11000mil" viewBox="0 0 1700000 1100000">
<rect x="0" y="0" width="1700000" height="1100000" fill="white"/>
<polyline points="3771900,469900 3771900,1422400" stroke="#000000" stroke-width="10" fill="none"/>
<polyline points="2311400,482600 2311400,1422400" stroke="#000000" stroke-width="10" fill="none"/>
<polyline points="2146300,1320800 2235200,1320800" stroke="#000000" stroke-width="10" fill="none"/>
<polyline points="3860800,1320800 3898900,1320800" stroke="#000000" stroke-width="10" fill="none"/>
<polyline points="2362200,533400 2641600,533400" stroke="#000000" stroke-width="10" fill="none"/>
<polyline points="3429000,1143000 3721100,1143000" stroke="#000000" stroke-width="10" fill="none"/>
<polyline points="1600200,698500 1663700,698500" stroke="#000000" stroke-width="10" fill="none"/>
<polyline points="3492500,1828800 3670300,1828800" stroke="#000000" stroke-width="10" fill="none"/>
<polyline points="3429000,1701800 3810000,1701800" stroke="#000000" stroke-width="10" fill="none"/>
<polyline points="2362200,1270000 2768600,1270000" stroke="#000000" stroke-width="10" fill="none"/>
<polyline points="3429000,1270000 3721100,1270000" stroke="#000000" stroke-width="10" fill="none"/>
<polyline points="3429000,635000 3721100,635000" stroke="#000000" stroke-width="10" fill="none"/>
<polyline points="2730500,1981200 2794000,1981200" stroke="#000000" stroke-width="10" fill="none"/>
<polyline points="3619500,1981200 3670300,1981200" stroke="#000000" stroke-width="10" fill="none"/>
<polyline points="2362200,635000 2768600,635000" stroke="#000000" stroke-width="10" fill="none"/>
<polyline points="2362200,1295400 2641600,1295400" stroke="#000000" stroke-width="10" fill="none"/>
<polyline points="2362200,660400 2641600,660400" stroke="#000000" stroke-width="10" fill="none"/>
<polyline points="2362200,508000 2768600,508000" stroke="#000000" stroke-width="10" fill="none"/>
<polyline points="2362200,1143000 2768600,1143000" stroke="#000000" stroke-width="10" fill="none"/>
<polyline points="2362200,914400 2641600,914400" stroke="#000000" stroke-width="10" fill="none"/>
<polyline points="2362200,1016000 2768600,1016000" stroke="#000000" stroke-width="10" fill="none"/>
<polyline points="2641600,1524000 2641600,1574800" stroke="#000000" stroke-width="10" fill="none"/>
<polyline points="2730500,1955800 2794000,1955800" stroke="#000000" stroke-width="10" fill="none"/>
<polyline points="2362200,762000 2768600,762000" stroke="#000000" stroke-width="10" fill="none"/>
<polyline points="2362200,889000 2768600,889000" stroke="#000000" stroke-width="10" fill="none"/>
<polyline points="2362200,787400 2641600,787400" stroke="#000000" stroke-width="10" fill="none"/>
<polyline points="2286000,1549400 2768600,1549400" stroke="#000000" stroke-width="10" fill="none"/>
<polyline points="2362200,1397000 2768600,1397000" stroke="#000000" stroke-width="10" fill="none"/>
<polyline points="2286000,1676400 2768600,1676400" stroke="#000000" stroke-width="10" fill="none"/>
<polyline points="2362200,1168400 2641600,1168400" stroke="#000000" stroke-width="10" fill="none"/>
<polyline points="2362200,1422400 2641600,1422400" stroke="#000000" stroke-width="10" fill="none"/>
<polyline points="3429000,1676400 3810000,1676400" stroke="#000000" stroke-width="10" fill="none"/>
<polyline points="1917700,1854200 2768600,1854200" stroke="#000000" stroke-width="10" fill="none"/>
<polyline points="1587500,850900 1663700,850900" stroke="#000000" stroke-width="10" fill="none"/>
<polyline points="2641600,1651000 2641600,1701800" stroke="#000000" stroke-width="10" fill="none"/>
<polyline points="1587500,901700 1663700,901700" stroke="#000000" stroke-width="10" fill="none"/>
<polyline points="3429000,1422400 3721100,1422400" stroke="#000000" stroke-width="10" fill="none"/>
<polyline points="3429000,1574800 3810000,1574800" stroke="#000000" stroke-width="10" fill="none"/>
<polyline points="3429000,533400 3721100,533400" stroke="#000000" stroke-width="10" fill="none"/>
<polyline points="3429000,1549400 3810000,1549400" stroke="#000000" stroke-width="10" fill="none"/>
<polyline points="1587500,774700 1663700,774700" stroke="#000000" stroke-width="10" fill="none"/>
<polyline points="3492500,1955800 3670300,1955800" stroke="#000000" stroke-width="10" fill="none"/>
<polyline points="2362200,1041400 2641600,1041400" stroke="#000000" stroke-width="10" fill="none"/>
<polyline points="3429000,762000 3721100,762000" stroke="#000000" stroke-width="10" fill="none"/>
<polyline points="3429000,1397000 3721100,1397000" stroke="#000000" stroke-width="10" fill="none"/>
<polyline points="1536700,1841500 1574800,1841500" stroke="#000000" stroke-width="10" fill="none"/>
<polyline points="3429000,508000 3721100,508000" stroke="#000000" stroke-width="10" fill="none"/>
<polyline points="3429000,787400 3721100,787400" stroke="#000000" stroke-width="10" fill="none"/>
<polyline points="3429000,1041400 3721100,1041400" stroke="#000000" stroke-width="10" fill="none"/>
<polyline points="3429000,1168400 3721100,1168400" stroke="#000000" stroke-width="10" fill="none"/>
<polyline points="3429000,1295400 3721100,1295400" stroke="#000000" stroke-width="10" fill="none"/>
<polyline points="3429000,914400 3721100,914400" stroke="#000000" stroke-width="10" fill="none"/>
<polyline points="3619500,1854200 3670300,1854200" stroke="#000000" stroke-width="10" fill="none"/>
<polyline points="3429000,660400 3721100,660400" stroke="#000000" stroke-width="10" fill="none"/>
<polyline points="3429000,889000 3721100,889000" stroke="#000000" stroke-width="10" fill="none"/>
<polyline points="3429000,1016000 3721100,1016000" stroke="#000000" stroke-width="10" fill="none"/>
<polyline points="2438400,2082800 2590800,2082800" stroke="#000000" stroke-width="10" fill="none"/>
<polyline points="1930400,495300 1930400,609600" stroke="#000000" stroke-width="10" fill="none"/>
<polyline points="584200,317500 660400,317500" stroke="#000000" stroke-width="10" fill="none"/>
<polyline points="1524000,1524000 1524000,1600200" stroke="#000000" stroke-width="10" fill="none"/>
<polyline points="1854200,1765300 1917700,1765300" stroke="#000000" stroke-width="10" fill="none"/>
<polyline points="393700,457200 393700,660400" stroke="#000000" stroke-width="10" fill="none"/>
<polyline points="368300,711200 393700,711200" stroke="#000000" stroke-width="10" fill="none"/>
<polyline points="1917700,1828800 2641600,1828800" stroke="#000000" stroke-width="10" fill="none"/>
<text x="805180" y="3779520" font-family="Arial" font-size="2000" fill="blue">ELINK_TXO_EA_DATA</text>
<text x="1422400" y="2286000" font-family="Arial" font-size="2000" fill="blue">ELINK_RXI_EA_DATA</text>
<text x="1320800" y="2146300" font-family="Arial" font-size="2000" fill="blue">ELINK_RXI_EA</text>
<text x="1336040" y="4000500" font-family="Arial" font-size="2000" fill="blue">ELINK_TXO_EA</text>
<text x="533400" y="2641600" font-family="Arial" font-size="2000" fill="blue">RXI_EA_DATA0_N</text>
<text x="1140460" y="3526697" font-family="Arial" font-size="2000" fill="blue">TXO_EA_DATA5_P</text>
<text x="716280" y="1757680" font-family="Arial" font-size="2000" fill="blue">DSP_FLAG</text>
<text x="1699260" y="3535680" font-family="Arial" font-size="2000" fill="blue">TXO_EA_LCLK_N</text>
<text x="1272540" y="2400300" font-family="Arial" font-size="2000" fill="blue">RXI_EA_DATA6_P</text>
<text x="635000" y="3526697" font-family="Arial" font-size="2000" fill="blue">TXO_EA_DATA1_P</text>
<text x="609600" y="2755900" font-family="Arial" font-size="2000" fill="blue">RXI_EA_DATA1_P</text>
<text x="1244600" y="2641600" font-family="Arial" font-size="2000" fill="blue">RXI_EA_DATA6_N</text>
<text x="662940" y="2400300" font-family="Arial" font-size="2000" fill="blue">RXI_EA_DATA1_N</text>
<text x="482600" y="2768600" font-family="Arial" font-size="2000" fill="blue">RXI_EA_DATA0_P</text>
<text x="1145540" y="2400300" font-family="Arial" font-size="2000" fill="blue">RXI_EA_DATA5_P</text>
<text x="916940" y="2400300" font-family="Arial" font-size="2000" fill="blue">RXI_EA_DATA3_N</text>
<text x="1016000" y="2768600" font-family="Arial" font-size="2000" fill="blue">RXI_EA_DATA4_P</text>
<text x="1524000" y="2641600" font-family="Arial" font-size="2000" fill="blue">RXI_EA_FRAME_N</text>
<text x="764540" y="2400300" font-family="Arial" font-size="2000" fill="blue">RXI_EA_DATA2_P</text>
<text x="889000" y="2768600" font-family="Arial" font-size="2000" fill="blue">RXI_EA_DATA3_P</text>
<text x="736600" y="2641600" font-family="Arial" font-size="2000" fill="blue">RXI_EA_DATA2_N</text>
<text x="1549400" y="2768600" font-family="Arial" font-size="2000" fill="blue">RXI_EA_FRAME_P</text>
<text x="1371600" y="2768600" font-family="Arial" font-size="2000" fill="blue">RXI_EA_DATA7_P</text>
<text x="1671320" y="2400300" font-family="Arial" font-size="2000" fill="blue">RXI_EA_LCLK_P</text>
<text x="1117600" y="2641600" font-family="Arial" font-size="2000" fill="blue">RXI_EA_DATA5_N</text>
<text x="1371600" y="2641600" font-family="Arial" font-size="2000" fill="blue">RXI_EA_DATA7_N</text>
<text x="1673860" y="3535680" font-family="Arial" font-size="2000" fill="blue">TXO_EA_LCLK_P</text>
<text x="1572260" y="3535680" font-family="Arial" font-size="2000" fill="blue">TXO_EA_FRAME_N</text>
<text x="533400" y="3526697" font-family="Arial" font-size="2000" fill="blue">TXO_EA_DATA0_N</text>
<text x="1546860" y="3535680" font-family="Arial" font-size="2000" fill="blue">TXO_EA_FRAME_P</text>
<text x="990600" y="2641600" font-family="Arial" font-size="2000" fill="blue">RXI_EA_DATA4_N</text>
<text x="508000" y="3526697" font-family="Arial" font-size="2000" fill="blue">TXO_EA_DATA0_P</text>
<text x="779780" y="3526697" font-family="Arial" font-size="2000" fill="blue">TXO_EA_DATA2_N</text>
<text x="1041400" y="3526697" font-family="Arial" font-size="2000" fill="blue">TXO_EA_DATA4_N</text>
<text x="911860" y="3526697" font-family="Arial" font-size="2000" fill="blue">TXO_EA_DATA3_N</text>
<text x="660400" y="3526697" font-family="Arial" font-size="2000" fill="blue">TXO_EA_DATA1_N</text>
<text x="889000" y="3526697" font-family="Arial" font-size="2000" fill="blue">TXO_EA_DATA3_P</text>
<text x="1016000" y="3526697" font-family="Arial" font-size="2000" fill="blue">TXO_EA_DATA4_P</text>
<text x="33020" y="27940" font-family="Arial" font-size="2000" fill="blue">VCC_BAR</text>
<text x="254000" y="241300" font-family="Arial" font-size="2000" fill="blue">GND2</text>
<text x="50800" y="-63500" font-family="Arial" font-size="2000" fill="blue">VCC</text>
<text x="203200" y="241300" font-family="Arial" font-size="2000" fill="blue">GND1</text>
<text x="152400" y="-228600" font-family="Arial" font-size="2000" fill="blue">ROWID_1</text>
<text x="-101600" y="-228600" font-family="Arial" font-size="2000" fill="blue">COLID_1</text>
<text x="254000" y="-228600" font-family="Arial" font-size="2000" fill="blue">ROWID_3</text>
<text x="203200" y="-228600" font-family="Arial" font-size="2000" fill="blue">ROWID_2</text>
<text x="101600" y="-228600" font-family="Arial" font-size="2000" fill="blue">ROWID_0</text>
<text x="0" y="-228600" font-family="Arial" font-size="2000" fill="blue">COLID_3</text>
<text x="-50800" y="-228600" font-family="Arial" font-size="2000" fill="blue">COLID_2</text>
<text x="-152400" y="-228600" font-family="Arial" font-size="2000" fill="blue">COLID_0</text>
<text x="-335280" y="-167640" font-family="Arial" font-size="2000" fill="blue">SPLIT_INST</text>
<text x="-194604" y="-228600" font-family="Arial" font-size="2000" fill="blue">CDS_LMAN_SPLIT_NUMBER</text>
<text x="850900" y="-330200" font-family="Arial" font-size="2000" fill="blue">RXI_EA_CCLK_P</text>
<text x="673100" y="330200" font-family="Arial" font-size="2000" fill="blue">TXI_EA_WR_WAIT_P</text>
<text x="546100" y="330200" font-family="Arial" font-size="2000" fill="blue">TXI_EA_RD_WAIT_P</text>
<text x="114300" y="330200" font-family="Arial" font-size="2000" fill="blue">TXO_EA_DATA_P7</text>
<text x="-12700" y="330200" font-family="Arial" font-size="2000" fill="blue">TXO_EA_DATA_P6</text>
<text x="-139700" y="330200" font-family="Arial" font-size="2000" fill="blue">TXO_EA_DATA_P5</text>
<text x="-266700" y="330200" font-family="Arial" font-size="2000" fill="blue">TXO_EA_DATA_P4</text>
<text x="-393700" y="330200" font-family="Arial" font-size="2000" fill="blue">TXO_EA_DATA_P3</text>
<text x="-520700" y="330200" font-family="Arial" font-size="2000" fill="blue">TXO_EA_DATA_P2</text>
<text x="-647700" y="330200" font-family="Arial" font-size="2000" fill="blue">TXO_EA_DATA_P1</text>
<text x="-774700" y="330200" font-family="Arial" font-size="2000" fill="blue">TXO_EA_DATA_P0</text>
<text x="139700" y="330200" font-family="Arial" font-size="2000" fill="blue">TXO_EA_DATA_N7</text>
<text x="12700" y="330200" font-family="Arial" font-size="2000" fill="blue">TXO_EA_DATA_N6</text>
<text x="-114300" y="330200" font-family="Arial" font-size="2000" fill="blue">TXO_EA_DATA_N5</text>
<text x="-241300" y="330200" font-family="Arial" font-size="2000" fill="blue">TXO_EA_DATA_N4</text>
<text x="-368300" y="330200" font-family="Arial" font-size="2000" fill="blue">TXO_EA_DATA_N3</text>
<text x="-495300" y="330200" font-family="Arial" font-size="2000" fill="blue">TXO_EA_DATA_N2</text>
<text x="-622300" y="330200" font-family="Arial" font-size="2000" fill="blue">TXO_EA_DATA_N1</text>
<text x="-749300" y="330200" font-family="Arial" font-size="2000" fill="blue">TXO_EA_DATA_N0</text>
<text x="673100" y="-330200" font-family="Arial" font-size="2000" fill="blue">RXO_EA_WR_WAIT_P</text>
<text x="546100" y="-330200" font-family="Arial" font-size="2000" fill="blue">RXO_EA_RD_WAIT_P</text>
<text x="114300" y="-330200" font-family="Arial" font-size="2000" fill="blue">RXI_EA_DATA_P7</text>
<text x="-12700" y="-330200" font-family="Arial" font-size="2000" fill="blue">RXI_EA_DATA_P6</text>
<text x="-139700" y="-330200" font-family="Arial" font-size="2000" fill="blue">RXI_EA_DATA_P5</text>
<text x="-266700" y="-330200" font-family="Arial" font-size="2000" fill="blue">RXI_EA_DATA_P4</text>
<text x="-393700" y="-330200" font-family="Arial" font-size="2000" fill="blue">RXI_EA_DATA_P3</text>
<text x="-520700" y="-330200" font-family="Arial" font-size="2000" fill="blue">RXI_EA_DATA_P2</text>
<text x="-647700" y="-330200" font-family="Arial" font-size="2000" fill="blue">RXI_EA_DATA_P1</text>
<text x="-774700" y="-330200" font-family="Arial" font-size="2000" fill="blue">RXI_EA_DATA_P0</text>
<text x="139700" y="-330200" font-family="Arial" font-size="2000" fill="blue">RXI_EA_DATA_N7</text>
<text x="12700" y="-330200" font-family="Arial" font-size="2000" fill="blue">RXI_EA_DATA_N6</text>
<text x="-114300" y="-330200" font-family="Arial" font-size="2000" fill="blue">RXI_EA_DATA_N5</text>
<text x="-241300" y="-330200" font-family="Arial" font-size="2000" fill="blue">RXI_EA_DATA_N4</text>
<text x="-368300" y="-330200" font-family="Arial" font-size="2000" fill="blue">RXI_EA_DATA_N3</text>
<text x="-495300" y="-330200" font-family="Arial" font-size="2000" fill="blue">RXI_EA_DATA_N2</text>
<text x="-622300" y="-330200" font-family="Arial" font-size="2000" fill="blue">RXI_EA_DATA_N1</text>
<text x="-749300" y="-330200" font-family="Arial" font-size="2000" fill="blue">RXI_EA_DATA_N0</text>
<text x="-25400" y="5080" font-family="Arial" font-size="2000" fill="blue">G</text>
<text x="-17780" y="-50800" font-family="Arial" font-size="2000" fill="blue">B</text>
<text x="-5080" y="38100" font-family="Arial" font-size="2000" fill="blue">S</text>
<text x="-30480" y="38100" font-family="Arial" font-size="2000" fill="blue">B</text>
<text x="-5080" y="-63500" font-family="Arial" font-size="2000" fill="blue">S</text>
<text x="0" y="-50800" font-family="Arial" font-size="2000" fill="blue">A</text>
<text x="0" y="38100" font-family="Arial" font-size="2000" fill="blue">A</text>
<text x="88900" y="25400" font-family="Arial" font-size="2000" fill="blue">2</text>
<text x="-38100" y="25400" font-family="Arial" font-size="2000" fill="blue">1</text>
<text x="152400" y="-63500" font-family="Arial" font-size="2000" fill="blue">B</text>
<text x="127000" y="241300" font-family="Arial" font-size="2000" fill="blue">R</text>
<text x="101600" y="-63500" font-family="Arial" font-size="2000" fill="blue">A</text>
<text x="25400" y="88900" font-family="Arial" font-size="2000" fill="blue">C</text>
<text x="25400" y="-38100" font-family="Arial" font-size="2000" fill="blue">A</text>
<text x="1816100" y="2706695" font-family="Arial" font-size="2000" fill="blue">R193</text>
<text x="1816100" y="2691440" font-family="Arial" font-size="2000" fill="blue">resistor</text>
<text x="457200" y="2757495" font-family="Arial" font-size="2000" fill="blue">R180</text>
<text x="457200" y="2742240" font-family="Arial" font-size="2000" fill="blue">resistor</text>
<text x="584200" y="2757495" font-family="Arial" font-size="2000" fill="blue">R181</text>
<text x="584200" y="2742240" font-family="Arial" font-size="2000" fill="blue">resistor</text>
<text x="711200" y="2757495" font-family="Arial" font-size="2000" fill="blue">R182</text>
<text x="711200" y="2742240" font-family="Arial" font-size="2000" fill="blue">resistor</text>
<text x="838200" y="2757495" font-family="Arial" font-size="2000" fill="blue">R183</text>
<text x="838200" y="2742240" font-family="Arial" font-size="2000" fill="blue">resistor</text>
<text x="965200" y="2757495" font-family="Arial" font-size="2000" fill="blue">R184</text>
<text x="965200" y="2742240" font-family="Arial" font-size="2000" fill="blue">resistor</text>
<text x="1092200" y="2757495" font-family="Arial" font-size="2000" fill="blue">R185</text>
<text x="1092200" y="2742240" font-family="Arial" font-size="2000" fill="blue">resistor</text>
<text x="1219200" y="2757495" font-family="Arial" font-size="2000" fill="blue">R186</text>
<text x="1219200" y="2742240" font-family="Arial" font-size="2000" fill="blue">resistor</text>
<text x="1346200" y="2757495" font-family="Arial" font-size="2000" fill="blue">R187</text>
<text x="1346200" y="2742240" font-family="Arial" font-size="2000" fill="blue">resistor</text>
<text x="1498600" y="2757495" font-family="Arial" font-size="2000" fill="blue">R188</text>
<text x="1498600" y="2742240" font-family="Arial" font-size="2000" fill="blue">resistor</text>
<text x="1625600" y="2757495" font-family="Arial" font-size="2000" fill="blue">R189</text>
<text x="1625600" y="2742240" font-family="Arial" font-size="2000" fill="blue">resistor</text>
<text x="1803400" y="3557595" font-family="Arial" font-size="2000" fill="blue">R190</text>
<text x="1803400" y="3542340" font-family="Arial" font-size="2000" fill="blue">resistor</text>
<text x="1943100" y="3557595" font-family="Arial" font-size="2000" fill="blue">R191</text>
<text x="1943100" y="3542340" font-family="Arial" font-size="2000" fill="blue">resistor</text>
<text x="2108200" y="2643195" font-family="Arial" font-size="2000" fill="blue">R222</text>
<text x="2108200" y="2627940" font-family="Arial" font-size="2000" fill="blue">resistor</text>
<text x="2159000" y="2643195" font-family="Arial" font-size="2000" fill="blue">R221</text>
<text x="2159000" y="2627940" font-family="Arial" font-size="2000" fill="blue">resistor</text>
<text x="419100" y="560395" font-family="Arial" font-size="2000" fill="blue">R164</text>
<text x="419100" y="545140" font-family="Arial" font-size="2000" fill="blue">resistor</text>
<text x="419100" y="585795" font-family="Arial" font-size="2000" fill="blue">R163</text>
<text x="419100" y="570540" font-family="Arial" font-size="2000" fill="blue">resistor</text>
<text x="419100" y="661995" font-family="Arial" font-size="2000" fill="blue">R162</text>
<text x="419100" y="646740" font-family="Arial" font-size="2000" fill="blue">resistor</text>
<text x="419100" y="738195" font-family="Arial" font-size="2000" fill="blue">R161</text>
<text x="419100" y="722940" font-family="Arial" font-size="2000" fill="blue">resistor</text>
<text x="419100" y="814395" font-family="Arial" font-size="2000" fill="blue">R159</text>
<text x="419100" y="799140" font-family="Arial" font-size="2000" fill="blue">resistor</text>
<text x="419100" y="890595" font-family="Arial" font-size="2000" fill="blue">R158</text>
<text x="419100" y="875340" font-family="Arial" font-size="2000" fill="blue">resistor</text>
<text x="419100" y="966795" font-family="Arial" font-size="2000" fill="blue">R157</text>
<text x="419100" y="951540" font-family="Arial" font-size="2000" fill="blue">resistor</text>
<text x="419100" y="1042995" font-family="Arial" font-size="2000" fill="blue">R156</text>
<text x="419100" y="1027740" font-family="Arial" font-size="2000" fill="blue">resistor</text>
<text x="469900" y="1677995" font-family="Arial" font-size="2000" fill="blue">R179</text>
<text x="469900" y="1662740" font-family="Arial" font-size="2000" fill="blue">resistor</text>
<text x="1054100" y="560395" font-family="Arial" font-size="2000" fill="blue">R171</text>
<text x="1054100" y="545140" font-family="Arial" font-size="2000" fill="blue">resistor</text>
<text x="1054100" y="636595" font-family="Arial" font-size="2000" fill="blue">R170</text>
<text x="1054100" y="621340" font-family="Arial" font-size="2000" fill="blue">resistor</text>
<text x="1054100" y="712795" font-family="Arial" font-size="2000" fill="blue">R169</text>
<text x="1054100" y="697540" font-family="Arial" font-size="2000" fill="blue">resistor</text>
<text x="1054100" y="788995" font-family="Arial" font-size="2000" fill="blue">R168</text>
<text x="1054100" y="773740" font-family="Arial" font-size="2000" fill="blue">resistor</text>
<text x="1054100" y="865195" font-family="Arial" font-size="2000" fill="blue">R167</text>
<text x="1054100" y="849940" font-family="Arial" font-size="2000" fill="blue">resistor</text>
<text x="1054100" y="941395" font-family="Arial" font-size="2000" fill="blue">R166</text>
<text x="1054100" y="926140" font-family="Arial" font-size="2000" fill="blue">resistor</text>
<text x="1054100" y="1017595" font-family="Arial" font-size="2000" fill="blue">R165</text>
<text x="1054100" y="1002340" font-family="Arial" font-size="2000" fill="blue">resistor</text>
<text x="1054100" y="1093795" font-family="Arial" font-size="2000" fill="blue">R160</text>
<text x="1054100" y="1078540" font-family="Arial" font-size="2000" fill="blue">resistor</text>
<text x="635000" y="1677995" font-family="Arial" font-size="2000" fill="blue">R1</text>
<text x="635000" y="1662740" font-family="Arial" font-size="2000" fill="blue">resistor</text>
<text x="1714500" y="1820267" font-family="Arial" font-size="2000" fill="blue">U38</text>
<text x="635000" y="1883767" font-family="Arial" font-size="2000" fill="blue">CR1</text>
<text x="647700" y="1388467" font-family="Arial" font-size="2000" fill="blue">U23</text>
<text x="1574800" y="1643285" font-family="Arial" font-size="2000" fill="blue">C297</text>
<text x="1574800" y="1626129" font-family="Arial" font-size="2000" fill="blue">capacitor</text>
<text x="1574800" y="1897285" font-family="Arial" font-size="2000" fill="blue">C298</text>
<text x="1574800" y="1880129" font-family="Arial" font-size="2000" fill="blue">capacitor</text>
<rect x="1816100" y="2679700" width="5000" height="5000" stroke="red" stroke-width="20" fill="none"/>
<text x="1816100" y="2678700" font-family="Arial" font-size="3000" fill="red" font-weight="bold">R193</text>
<rect x="457200" y="2730500" width="5000" height="5000" stroke="red" stroke-width="20" fill="none"/>
<text x="457200" y="2729500" font-family="Arial" font-size="3000" fill="red" font-weight="bold">R180</text>
<rect x="584200" y="2730500" width="5000" height="5000" stroke="red" stroke-width="20" fill="none"/>
<text x="584200" y="2729500" font-family="Arial" font-size="3000" fill="red" font-weight="bold">R181</text>
<rect x="711200" y="2730500" width="5000" height="5000" stroke="red" stroke-width="20" fill="none"/>
<text x="711200" y="2729500" font-family="Arial" font-size="3000" fill="red" font-weight="bold">R182</text>
<rect x="838200" y="2730500" width="5000" height="5000" stroke="red" stroke-width="20" fill="none"/>
<text x="838200" y="2729500" font-family="Arial" font-size="3000" fill="red" font-weight="bold">R183</text>
<rect x="965200" y="2730500" width="5000" height="5000" stroke="red" stroke-width="20" fill="none"/>
<text x="965200" y="2729500" font-family="Arial" font-size="3000" fill="red" font-weight="bold">R184</text>
<rect x="1092200" y="2730500" width="5000" height="5000" stroke="red" stroke-width="20" fill="none"/>
<text x="1092200" y="2729500" font-family="Arial" font-size="3000" fill="red" font-weight="bold">R185</text>
<rect x="1219200" y="2730500" width="5000" height="5000" stroke="red" stroke-width="20" fill="none"/>
<text x="1219200" y="2729500" font-family="Arial" font-size="3000" fill="red" font-weight="bold">R186</text>
<rect x="1346200" y="2730500" width="5000" height="5000" stroke="red" stroke-width="20" fill="none"/>
<text x="1346200" y="2729500" font-family="Arial" font-size="3000" fill="red" font-weight="bold">R187</text>
<rect x="1498600" y="2730500" width="5000" height="5000" stroke="red" stroke-width="20" fill="none"/>
<text x="1498600" y="2729500" font-family="Arial" font-size="3000" fill="red" font-weight="bold">R188</text>
<rect x="1625600" y="2730500" width="5000" height="5000" stroke="red" stroke-width="20" fill="none"/>
<text x="1625600" y="2729500" font-family="Arial" font-size="3000" fill="red" font-weight="bold">R189</text>
<rect x="1803400" y="3530600" width="5000" height="5000" stroke="red" stroke-width="20" fill="none"/>
<text x="1803400" y="3529600" font-family="Arial" font-size="3000" fill="red" font-weight="bold">R190</text>
<rect x="1943100" y="3530600" width="5000" height="5000" stroke="red" stroke-width="20" fill="none"/>
<text x="1943100" y="3529600" font-family="Arial" font-size="3000" fill="red" font-weight="bold">R191</text>
<rect x="2108200" y="2616200" width="5000" height="5000" stroke="red" stroke-width="20" fill="none"/>
<text x="2108200" y="2615200" font-family="Arial" font-size="3000" fill="red" font-weight="bold">R222</text>
<rect x="2159000" y="2616200" width="5000" height="5000" stroke="red" stroke-width="20" fill="none"/>
<text x="2159000" y="2615200" font-family="Arial" font-size="3000" fill="red" font-weight="bold">R221</text>
<rect x="419100" y="533400" width="5000" height="5000" stroke="red" stroke-width="20" fill="none"/>
<text x="419100" y="532400" font-family="Arial" font-size="3000" fill="red" font-weight="bold">R164</text>
<rect x="419100" y="558800" width="5000" height="5000" stroke="red" stroke-width="20" fill="none"/>
<text x="419100" y="557800" font-family="Arial" font-size="3000" fill="red" font-weight="bold">R163</text>
<rect x="419100" y="635000" width="5000" height="5000" stroke="red" stroke-width="20" fill="none"/>
<text x="419100" y="634000" font-family="Arial" font-size="3000" fill="red" font-weight="bold">R162</text>
<rect x="419100" y="711200" width="5000" height="5000" stroke="red" stroke-width="20" fill="none"/>
<text x="419100" y="710200" font-family="Arial" font-size="3000" fill="red" font-weight="bold">R161</text>
<rect x="419100" y="787400" width="5000" height="5000" stroke="red" stroke-width="20" fill="none"/>
<text x="419100" y="786400" font-family="Arial" font-size="3000" fill="red" font-weight="bold">R159</text>
<rect x="419100" y="863600" width="5000" height="5000" stroke="red" stroke-width="20" fill="none"/>
<text x="419100" y="862600" font-family="Arial" font-size="3000" fill="red" font-weight="bold">R158</text>
<rect x="419100" y="939800" width="5000" height="5000" stroke="red" stroke-width="20" fill="none"/>
<text x="419100" y="938800" font-family="Arial" font-size="3000" fill="red" font-weight="bold">R157</text>
<rect x="419100" y="1016000" width="5000" height="5000" stroke="red" stroke-width="20" fill="none"/>
<text x="419100" y="1015000" font-family="Arial" font-size="3000" fill="red" font-weight="bold">R156</text>
<rect x="469900" y="1651000" width="5000" height="5000" stroke="red" stroke-width="20" fill="none"/>
<text x="469900" y="1650000" font-family="Arial" font-size="3000" fill="red" font-weight="bold">R179</text>
<rect x="1054100" y="533400" width="5000" height="5000" stroke="red" stroke-width="20" fill="none"/>
<text x="1054100" y="532400" font-family="Arial" font-size="3000" fill="red" font-weight="bold">R171</text>
<rect x="1054100" y="609600" width="5000" height="5000" stroke="red" stroke-width="20" fill="none"/>
<text x="1054100" y="608600" font-family="Arial" font-size="3000" fill="red" font-weight="bold">R170</text>
<rect x="1054100" y="685800" width="5000" height="5000" stroke="red" stroke-width="20" fill="none"/>
<text x="1054100" y="684800" font-family="Arial" font-size="3000" fill="red" font-weight="bold">R169</text>
<rect x="1054100" y="762000" width="5000" height="5000" stroke="red" stroke-width="20" fill="none"/>
<text x="1054100" y="761000" font-family="Arial" font-size="3000" fill="red" font-weight="bold">R168</text>
<rect x="1054100" y="838200" width="5000" height="5000" stroke="red" stroke-width="20" fill="none"/>
<text x="1054100" y="837200" font-family="Arial" font-size="3000" fill="red" font-weight="bold">R167</text>
<rect x="1054100" y="914400" width="5000" height="5000" stroke="red" stroke-width="20" fill="none"/>
<text x="1054100" y="913400" font-family="Arial" font-size="3000" fill="red" font-weight="bold">R166</text>
<rect x="1054100" y="990600" width="5000" height="5000" stroke="red" stroke-width="20" fill="none"/>
<text x="1054100" y="989600" font-family="Arial" font-size="3000" fill="red" font-weight="bold">R165</text>
<rect x="1054100" y="1066800" width="5000" height="5000" stroke="red" stroke-width="20" fill="none"/>
<text x="1054100" y="1065800" font-family="Arial" font-size="3000" fill="red" font-weight="bold">R160</text>
<rect x="635000" y="1651000" width="5000" height="5000" stroke="red" stroke-width="20" fill="none"/>
<text x="635000" y="1650000" font-family="Arial" font-size="3000" fill="red" font-weight="bold">R1</text>
<rect x="1714500" y="1803400" width="5000" height="5000" stroke="red" stroke-width="20" fill="none"/>
<text x="1714500" y="1802400" font-family="Arial" font-size="3000" fill="red" font-weight="bold">U38</text>
<rect x="635000" y="1866900" width="5000" height="5000" stroke="red" stroke-width="20" fill="none"/>
<text x="635000" y="1865900" font-family="Arial" font-size="3000" fill="red" font-weight="bold">CR1</text>
<rect x="647700" y="1371600" width="5000" height="5000" stroke="red" stroke-width="20" fill="none"/>
<text x="647700" y="1370600" font-family="Arial" font-size="3000" fill="red" font-weight="bold">U23</text>
<rect x="1574800" y="1612900" width="5000" height="5000" stroke="red" stroke-width="20" fill="none"/>
<text x="1574800" y="1611900" font-family="Arial" font-size="3000" fill="red" font-weight="bold">C297</text>
<rect x="1574800" y="1866900" width="5000" height="5000" stroke="red" stroke-width="20" fill="none"/>
<text x="1574800" y="1865900" font-family="Arial" font-size="3000" fill="red" font-weight="bold">C298</text>
</svg>