<?xml version="1.0" encoding="UTF-8" standalone="no"?>
<svg xmlns="http://www.w3.org/2000/svg" version="1.1" width="17000mil" height="11000mil" viewBox="0 0 1700000 1100000">
<rect x="0" y="0" width="1700000" height="1100000" fill="white"/>
<polyline points="800100,596900 977900,596900" stroke="#000000" stroke-width="10" fill="none"/>
<polyline points="3479800,1104900 3619500,1104900" stroke="#000000" stroke-width="10" fill="none"/>
<polyline points="2971800,431800 2971800,482600" stroke="#000000" stroke-width="10" fill="none"/>
<polyline points="2921000,1524000 2921000,1536700" stroke="#000000" stroke-width="10" fill="none"/>
<polyline points="2971800,1435100 3136900,1435100" stroke="#000000" stroke-width="10" fill="none"/>
<polyline points="1028700,622300 1765300,622300" stroke="#000000" stroke-width="10" fill="none"/>
<polyline points="1193800,241300 1663700,241300" stroke="#000000" stroke-width="10" fill="none"/>
<polyline points="2971800,1333500 3136900,1333500" stroke="#000000" stroke-width="10" fill="none"/>
<polyline points="1028700,977900 1765300,977900" stroke="#000000" stroke-width="10" fill="none"/>
<polyline points="2705100,1130300 3429000,1130300" stroke="#000000" stroke-width="10" fill="none"/>
<polyline points="1028700,1689100 1765300,1689100" stroke="#000000" stroke-width="10" fill="none"/>
<polyline points="2705100,774700 3136900,774700" stroke="#000000" stroke-width="10" fill="none"/>
<polyline points="2971800,622300 3136900,622300" stroke="#000000" stroke-width="10" fill="none"/>
<polyline points="1028700,876300 1765300,876300" stroke="#000000" stroke-width="10" fill="none"/>
<polyline points="2705100,1739900 3429000,1739900" stroke="#000000" stroke-width="10" fill="none"/>
<polyline points="1028700,1384300 1765300,1384300" stroke="#000000" stroke-width="10" fill="none"/>
<polyline points="1028700,1333500 1765300,1333500" stroke="#000000" stroke-width="10" fill="none"/>
<polyline points="1092200,825500 1765300,825500" stroke="#000000" stroke-width="10" fill="none"/>
<polyline points="1028700,1181100 1765300,1181100" stroke="#000000" stroke-width="10" fill="none"/>
<polyline points="1028700,1028700 1765300,1028700" stroke="#000000" stroke-width="10" fill="none"/>
<polyline points="1028700,1435100 1765300,1435100" stroke="#000000" stroke-width="10" fill="none"/>
<polyline points="1358900,1282700 1447800,1282700" stroke="#000000" stroke-width="10" fill="none"/>
<polyline points="1028700,673100 1765300,673100" stroke="#000000" stroke-width="10" fill="none"/>
<polyline points="2705100,1790700 3429000,1790700" stroke="#000000" stroke-width="10" fill="none"/>
<polyline points="1028700,927100 1765300,927100" stroke="#000000" stroke-width="10" fill="none"/>
<polyline points="1028700,1739900 1765300,1739900" stroke="#000000" stroke-width="10" fill="none"/>
<polyline points="1028700,723900 1765300,723900" stroke="#000000" stroke-width="10" fill="none"/>
<polyline points="2705100,1181100 3429000,1181100" stroke="#000000" stroke-width="10" fill="none"/>
<polyline points="1028700,1079500 1765300,1079500" stroke="#000000" stroke-width="10" fill="none"/>
<polyline points="1028700,774700 1765300,774700" stroke="#000000" stroke-width="10" fill="none"/>
<polyline points="2971800,1282700 3136900,1282700" stroke="#000000" stroke-width="10" fill="none"/>
<polyline points="1028700,1485900 1765300,1485900" stroke="#000000" stroke-width="10" fill="none"/>
<polyline points="1028700,1638300 1765300,1638300" stroke="#000000" stroke-width="10" fill="none"/>
<polyline points="1028700,1130300 1765300,1130300" stroke="#000000" stroke-width="10" fill="none"/>
<polyline points="1028700,1790700 1765300,1790700" stroke="#000000" stroke-width="10" fill="none"/>
<polyline points="1358900,1231900 1447800,1231900" stroke="#000000" stroke-width="10" fill="none"/>
<polyline points="2705100,723900 3136900,723900" stroke="#000000" stroke-width="10" fill="none"/>
<polyline points="2921000,1638300 3136900,1638300" stroke="#000000" stroke-width="10" fill="none"/>
<text x="1282700" y="1358900" font-family="Arial" font-size="2000" fill="blue">HDMI_DE</text>
<text x="33020" y="27940" font-family="Arial" font-size="2000" fill="blue">VCC_BAR</text>
<text x="1651000" y="-63500" font-family="Arial" font-size="2000" fill="blue">VCCO_34_6</text>
<text x="1625600" y="-63500" font-family="Arial" font-size="2000" fill="blue">VCCO_34_5</text>
<text x="1600200" y="-63500" font-family="Arial" font-size="2000" fill="blue">VCCO_34_4</text>
<text x="1574800" y="-63500" font-family="Arial" font-size="2000" fill="blue">VCCO_34_3</text>
<text x="1549400" y="-63500" font-family="Arial" font-size="2000" fill="blue">VCCO_34_2</text>
<text x="1524000" y="-63500" font-family="Arial" font-size="2000" fill="blue">VCCO_34_1</text>
<text x="101600" y="901700" font-family="Arial" font-size="2000" fill="blue">IO_25_34</text>
<text x="101600" y="-63500" font-family="Arial" font-size="2000" fill="blue">IO_0_34</text>
<text x="1371600" y="901700" font-family="Arial" font-size="2000" fill="blue">IO_L24N_T3_34</text>
<text x="1270000" y="901700" font-family="Arial" font-size="2000" fill="blue">IO_L23N_T3_34</text>
<text x="1168400" y="901700" font-family="Arial" font-size="2000" fill="blue">IO_L22N_T3_34</text>
<text x="1066800" y="901700" font-family="Arial" font-size="2000" fill="blue">IO_L21N_T3_DQS_34</text>
<text x="965200" y="901700" font-family="Arial" font-size="2000" fill="blue">IO_L20N_T3_34</text>
<text x="863600" y="901700" font-family="Arial" font-size="2000" fill="blue">IO_L19N_T3_VREF_34</text>
<text x="762000" y="901700" font-family="Arial" font-size="2000" fill="blue">IO_L18N_T2_34</text>
<text x="660400" y="901700" font-family="Arial" font-size="2000" fill="blue">IO_L17N_T2_34</text>
<text x="558800" y="901700" font-family="Arial" font-size="2000" fill="blue">IO_L16N_T2_34</text>
<text x="457200" y="901700" font-family="Arial" font-size="2000" fill="blue">IO_L15N_T2_DQS_34</text>
<text x="355600" y="901700" font-family="Arial" font-size="2000" fill="blue">IO_L14N_T2_SRCC_34</text>
<text x="254000" y="901700" font-family="Arial" font-size="2000" fill="blue">IO_L13N_T2_MRCC_34</text>
<text x="1371600" y="-63500" font-family="Arial" font-size="2000" fill="blue">IO_L12N_T1_MRCC_34</text>
<text x="1270000" y="-63500" font-family="Arial" font-size="2000" fill="blue">IO_L11N_T1_SRCC_34</text>
<text x="1168400" y="-63500" font-family="Arial" font-size="2000" fill="blue">IO_L10N_T1_34</text>
<text x="1066800" y="-63500" font-family="Arial" font-size="2000" fill="blue">IO_L9N_T1_DQS_34</text>
<text x="965200" y="-63500" font-family="Arial" font-size="2000" fill="blue">IO_L8N_T1_34</text>
<text x="863600" y="-63500" font-family="Arial" font-size="2000" fill="blue">IO_L7N_T1_34</text>
<text x="762000" y="-63500" font-family="Arial" font-size="2000" fill="blue">IO_L6N_T0_VREF_34</text>
<text x="660400" y="-63500" font-family="Arial" font-size="2000" fill="blue">IO_L5N_T0_34</text>
<text x="558800" y="-63500" font-family="Arial" font-size="2000" fill="blue">IO_L4N_T0_34</text>
<text x="457200" y="-63500" font-family="Arial" font-size="2000" fill="blue">IO_L3N_T0_DQS_34</text>
<text x="355600" y="-63500" font-family="Arial" font-size="2000" fill="blue">IO_L2N_T0_34</text>
<text x="254000" y="-63500" font-family="Arial" font-size="2000" fill="blue">IO_L1N_T0_34</text>
<text x="1320800" y="901700" font-family="Arial" font-size="2000" fill="blue">IO_L24P_T3_34</text>
<text x="1219200" y="901700" font-family="Arial" font-size="2000" fill="blue">IO_L23P_T3_34</text>
<text x="1117600" y="901700" font-family="Arial" font-size="2000" fill="blue">IO_L22P_T3_34</text>
<text x="1016000" y="901700" font-family="Arial" font-size="2000" fill="blue">IO_L21P_T3_DQS_34</text>
<text x="914400" y="901700" font-family="Arial" font-size="2000" fill="blue">IO_L20P_T3_34</text>
<text x="812800" y="901700" font-family="Arial" font-size="2000" fill="blue">IO_L19P_T3_34</text>
<text x="711200" y="901700" font-family="Arial" font-size="2000" fill="blue">IO_L18P_T2_34</text>
<text x="609600" y="901700" font-family="Arial" font-size="2000" fill="blue">IO_L17P_T2_34</text>
<text x="508000" y="901700" font-family="Arial" font-size="2000" fill="blue">IO_L16P_T2_34</text>
<text x="406400" y="901700" font-family="Arial" font-size="2000" fill="blue">IO_L15P_T2_DQS_34</text>
<text x="304800" y="901700" font-family="Arial" font-size="2000" fill="blue">IO_L14P_T2_SRCC_34</text>
<text x="203200" y="901700" font-family="Arial" font-size="2000" fill="blue">IO_L13P_T2_MRCC_34</text>
<text x="1320800" y="-63500" font-family="Arial" font-size="2000" fill="blue">IO_L12P_T1_MRCC_34</text>
<text x="1219200" y="-63500" font-family="Arial" font-size="2000" fill="blue">IO_L11P_T1_SRCC_34</text>
<text x="1117600" y="-63500" font-family="Arial" font-size="2000" fill="blue">IO_L10P_T1_34</text>
<text x="1016000" y="-63500" font-family="Arial" font-size="2000" fill="blue">IO_L9P_T1_DQS_34</text>
<text x="914400" y="-63500" font-family="Arial" font-size="2000" fill="blue">IO_L8P_T1_34</text>
<text x="812800" y="-63500" font-family="Arial" font-size="2000" fill="blue">IO_L7P_T1_34</text>
<text x="711200" y="-63500" font-family="Arial" font-size="2000" fill="blue">IO_L6P_T0_34</text>
<text x="609600" y="-63500" font-family="Arial" font-size="2000" fill="blue">IO_L5P_T0_34</text>
<text x="508000" y="-63500" font-family="Arial" font-size="2000" fill="blue">IO_L4P_T0_34</text>
<text x="406400" y="-63500" font-family="Arial" font-size="2000" fill="blue">IO_L3P_T0_DQS_PUDC_B_34</text>
<text x="304800" y="-63500" font-family="Arial" font-size="2000" fill="blue">IO_L2P_T0_34</text>
<text x="203200" y="-63500" font-family="Arial" font-size="2000" fill="blue">IO_L1P_T0_34</text>
<text x="419100" y="1816100" font-family="Arial" font-size="2000" fill="blue">CDS_LMAN_SPLIT_NUMBER</text>
<text x="-33060" y="0" font-family="Arial" font-size="2000" fill="blue">SPLIT_INST</text>
<text x="-25400" y="5080" font-family="Arial" font-size="2000" fill="blue">G</text>
<text x="-17780" y="-50800" font-family="Arial" font-size="2000" fill="blue">B</text>
<text x="-5080" y="38100" font-family="Arial" font-size="2000" fill="blue">S</text>
<text x="-30480" y="38100" font-family="Arial" font-size="2000" fill="blue">B</text>
<text x="-5080" y="-63500" font-family="Arial" font-size="2000" fill="blue">S</text>
<text x="0" y="-50800" font-family="Arial" font-size="2000" fill="blue">A</text>
<text x="0" y="38100" font-family="Arial" font-size="2000" fill="blue">A</text>
<text x="88900" y="25400" font-family="Arial" font-size="2000" fill="blue">2</text>
<text x="-38100" y="25400" font-family="Arial" font-size="2000" fill="blue">1</text>
<text x="1562100" y="2922595" font-family="Arial" font-size="2000" fill="blue">R18</text>
<text x="1562100" y="2907340" font-family="Arial" font-size="2000" fill="blue">resistor</text>
<text x="508000" y="2973395" font-family="Arial" font-size="2000" fill="blue">R20</text>
<text x="508000" y="2958140" font-family="Arial" font-size="2000" fill="blue">resistor</text>
<text x="1930400" y="1144595" font-family="Arial" font-size="2000" fill="blue">R223</text>
<text x="1930400" y="1129340" font-family="Arial" font-size="2000" fill="blue">resistor</text>
<text x="1206500" y="1550995" font-family="Arial" font-size="2000" fill="blue">R82</text>
<text x="1206500" y="1535740" font-family="Arial" font-size="2000" fill="blue">resistor</text>
<text x="1257300" y="1550995" font-family="Arial" font-size="2000" fill="blue">R94</text>
<text x="1257300" y="1535740" font-family="Arial" font-size="2000" fill="blue">resistor</text>
<text x="1257300" y="2922595" font-family="Arial" font-size="2000" fill="blue">R41</text>
<text x="1257300" y="2907340" font-family="Arial" font-size="2000" fill="blue">resistor</text>
<text x="1308100" y="2922595" font-family="Arial" font-size="2000" fill="blue">R44</text>
<text x="1308100" y="2907340" font-family="Arial" font-size="2000" fill="blue">resistor</text>
<text x="1409700" y="2922595" font-family="Arial" font-size="2000" fill="blue">R42</text>
<text x="1409700" y="2907340" font-family="Arial" font-size="2000" fill="blue">resistor</text>
<text x="2273300" y="2532285" font-family="Arial" font-size="2000" fill="blue">C134</text>
<text x="2273300" y="2515129" font-family="Arial" font-size="2000" fill="blue">capacitor</text>
<text x="2273300" y="2227485" font-family="Arial" font-size="2000" fill="blue">C131</text>
<text x="2273300" y="2210329" font-family="Arial" font-size="2000" fill="blue">capacitor</text>
<text x="2273300" y="2329085" font-family="Arial" font-size="2000" fill="blue">C132</text>
<text x="2273300" y="2311929" font-family="Arial" font-size="2000" fill="blue">capacitor</text>
<text x="2273300" y="2430685" font-family="Arial" font-size="2000" fill="blue">C133</text>
<text x="2273300" y="2413529" font-family="Arial" font-size="2000" fill="blue">capacitor</text>
<text x="2273300" y="1719485" font-family="Arial" font-size="2000" fill="blue">C126</text>
<text x="2273300" y="1702329" font-family="Arial" font-size="2000" fill="blue">capacitor</text>
<text x="2273300" y="1821085" font-family="Arial" font-size="2000" fill="blue">C127</text>
<text x="2273300" y="1803929" font-family="Arial" font-size="2000" fill="blue">capacitor</text>
<text x="2273300" y="1922685" font-family="Arial" font-size="2000" fill="blue">C128</text>
<text x="2273300" y="1905529" font-family="Arial" font-size="2000" fill="blue">capacitor</text>
<text x="2273300" y="2024285" font-family="Arial" font-size="2000" fill="blue">C129</text>
<text x="2273300" y="2007129" font-family="Arial" font-size="2000" fill="blue">capacitor</text>
<text x="2273300" y="2125885" font-family="Arial" font-size="2000" fill="blue">C130</text>
<text x="2273300" y="2108729" font-family="Arial" font-size="2000" fill="blue">capacitor</text>
<rect x="1562100" y="2895600" width="5000" height="5000" stroke="red" stroke-width="20" fill="none"/>
<text x="1562100" y="2894600" font-family="Arial" font-size="3000" fill="red" font-weight="bold">R18</text>
<rect x="508000" y="2946400" width="5000" height="5000" stroke="red" stroke-width="20" fill="none"/>
<text x="508000" y="2945400" font-family="Arial" font-size="3000" fill="red" font-weight="bold">R20</text>
<rect x="1930400" y="1117600" width="5000" height="5000" stroke="red" stroke-width="20" fill="none"/>
<text x="1930400" y="1116600" font-family="Arial" font-size="3000" fill="red" font-weight="bold">R223</text>
<rect x="1206500" y="1524000" width="5000" height="5000" stroke="red" stroke-width="20" fill="none"/>
<text x="1206500" y="1523000" font-family="Arial" font-size="3000" fill="red" font-weight="bold">R82</text>
<rect x="1257300" y="1524000" width="5000" height="5000" stroke="red" stroke-width="20" fill="none"/>
<text x="1257300" y="1523000" font-family="Arial" font-size="3000" fill="red" font-weight="bold">R94</text>
<rect x="1257300" y="2895600" width="5000" height="5000" stroke="red" stroke-width="20" fill="none"/>
<text x="1257300" y="2894600" font-family="Arial" font-size="3000" fill="red" font-weight="bold">R41</text>
<rect x="1308100" y="2895600" width="5000" height="5000" stroke="red" stroke-width="20" fill="none"/>
<text x="1308100" y="2894600" font-family="Arial" font-size="3000" fill="red" font-weight="bold">R44</text>
<rect x="1409700" y="2895600" width="5000" height="5000" stroke="red" stroke-width="20" fill="none"/>
<text x="1409700" y="2894600" font-family="Arial" font-size="3000" fill="red" font-weight="bold">R42</text>
<rect x="2273300" y="2501900" width="5000" height="5000" stroke="red" stroke-width="20" fill="none"/>
<text x="2273300" y="2500900" font-family="Arial" font-size="3000" fill="red" font-weight="bold">C134</text>
<rect x="2273300" y="2197100" width="5000" height="5000" stroke="red" stroke-width="20" fill="none"/>
<text x="2273300" y="2196100" font-family="Arial" font-size="3000" fill="red" font-weight="bold">C131</text>
<rect x="2273300" y="2298700" width="5000" height="5000" stroke="red" stroke-width="20" fill="none"/>
<text x="2273300" y="2297700" font-family="Arial" font-size="3000" fill="red" font-weight="bold">C132</text>
<rect x="2273300" y="2400300" width="5000" height="5000" stroke="red" stroke-width="20" fill="none"/>
<text x="2273300" y="2399300" font-family="Arial" font-size="3000" fill="red" font-weight="bold">C133</text>
<rect x="2273300" y="1689100" width="5000" height="5000" stroke="red" stroke-width="20" fill="none"/>
<text x="2273300" y="1688100" font-family="Arial" font-size="3000" fill="red" font-weight="bold">C126</text>
<rect x="2273300" y="1790700" width="5000" height="5000" stroke="red" stroke-width="20" fill="none"/>
<text x="2273300" y="1789700" font-family="Arial" font-size="3000" fill="red" font-weight="bold">C127</text>
<rect x="2273300" y="1892300" width="5000" height="5000" stroke="red" stroke-width="20" fill="none"/>
<text x="2273300" y="1891300" font-family="Arial" font-size="3000" fill="red" font-weight="bold">C128</text>
<rect x="2273300" y="1993900" width="5000" height="5000" stroke="red" stroke-width="20" fill="none"/>
<text x="2273300" y="1992900" font-family="Arial" font-size="3000" fill="red" font-weight="bold">C129</text>
<rect x="2273300" y="2095500" width="5000" height="5000" stroke="red" stroke-width="20" fill="none"/>
<text x="2273300" y="2094500" font-family="Arial" font-size="3000" fill="red" font-weight="bold">C130</text>
</svg>