<?xml version="1.0" encoding="UTF-8" standalone="no"?>
<svg xmlns="http://www.w3.org/2000/svg" version="1.1" width="17000mil" height="11000mil" viewBox="0 0 1700000 1100000">
<rect x="0" y="0" width="1700000" height="1100000" fill="white"/>
<polyline points="1905000,1016000 1968500,1016000" stroke="#000000" stroke-width="10" fill="none"/>
<polyline points="2286000,1016000 2311400,1016000" stroke="#000000" stroke-width="10" fill="none"/>
<polyline points="1841500,2095500 2425700,2095500" stroke="#000000" stroke-width="10" fill="none"/>
<polyline points="1841500,2057400 2425700,2057400" stroke="#000000" stroke-width="10" fill="none"/>
<polyline points="927100,457200 1079500,457200" stroke="#000000" stroke-width="10" fill="none"/>
<polyline points="1562100,914400 2844800,914400" stroke="#000000" stroke-width="10" fill="none"/>
<polyline points="927100,609600 1079500,609600" stroke="#000000" stroke-width="10" fill="none"/>
<polyline points="2717800,1016000 2844800,1016000" stroke="#000000" stroke-width="10" fill="none"/>
<polyline points="1562100,508000 3543300,508000" stroke="#000000" stroke-width="10" fill="none"/>
<polyline points="1841500,2247900 2425700,2247900" stroke="#000000" stroke-width="10" fill="none"/>
<polyline points="1562100,457200 3543300,457200" stroke="#000000" stroke-width="10" fill="none"/>
<polyline points="927100,558800 1079500,558800" stroke="#000000" stroke-width="10" fill="none"/>
<polyline points="1841500,2209800 2425700,2209800" stroke="#000000" stroke-width="10" fill="none"/>
<polyline points="2006600,609600 3390900,609600" stroke="#000000" stroke-width="10" fill="none"/>
<polyline points="927100,660400 1079500,660400" stroke="#000000" stroke-width="10" fill="none"/>
<polyline points="2413000,1244600 2717800,1244600" stroke="#000000" stroke-width="10" fill="none"/>
<polyline points="1841500,2133600 2425700,2133600" stroke="#000000" stroke-width="10" fill="none"/>
<polyline points="3340100,406400 3543300,406400" stroke="#000000" stroke-width="10" fill="none"/>
<polyline points="1841500,2286000 2425700,2286000" stroke="#000000" stroke-width="10" fill="none"/>
<polyline points="914400,914400 1079500,914400" stroke="#000000" stroke-width="10" fill="none"/>
<polyline points="914400,812800 1079500,812800" stroke="#000000" stroke-width="10" fill="none"/>
<polyline points="927100,711200 1079500,711200" stroke="#000000" stroke-width="10" fill="none"/>
<polyline points="1841500,2171700 2425700,2171700" stroke="#000000" stroke-width="10" fill="none"/>
<text x="505460" y="3398520" font-family="Arial" font-size="2000" fill="blue">P0_USB_DP</text>
<text x="454660" y="3398520" font-family="Arial" font-size="2000" fill="blue">P0_USB_DN</text>
<text x="556260" y="3401060" font-family="Arial" font-size="2000" fill="blue">P0_USB_ID</text>
<text x="1244600" y="2413000" font-family="Arial" font-size="2000" fill="blue">PS_POR_L</text>
<text x="2133600" y="1841500" font-family="Arial" font-size="2000" fill="blue">P1_USB_24M_REFCLK</text>
<text x="660400" y="3340100" font-family="Arial" font-size="2000" fill="blue">P0_VBUS</text>
<text x="2171700" y="1841500" font-family="Arial" font-size="2000" fill="blue">P1_USB_DIR</text>
<text x="33020" y="27940" font-family="Arial" font-size="2000" fill="blue">VCC_BAR</text>
<text x="660400" y="-63500" font-family="Arial" font-size="2000" fill="blue">VDD18_2</text>
<text x="635000" y="-63500" font-family="Arial" font-size="2000" fill="blue">VDD18_1</text>
<text x="812800" y="-63500" font-family="Arial" font-size="2000" fill="blue">GND</text>
<text x="406400" y="444500" font-family="Arial" font-size="2000" fill="blue">SPK_L</text>
<text x="355600" y="444500" font-family="Arial" font-size="2000" fill="blue">SPK_R</text>
<text x="304800" y="-63500" font-family="Arial" font-size="2000" fill="blue">CLKOUT</text>
<text x="152400" y="-63500" font-family="Arial" font-size="2000" fill="blue">D_P</text>
<text x="101600" y="-63500" font-family="Arial" font-size="2000" fill="blue">D_N</text>
<text x="368260" y="614680" font-family="Arial" font-size="2000" fill="blue">CONNECTOR_SIGNAL_MODEL</text>
<text x="99060" y="251460" font-family="Arial" font-size="2000" fill="blue">VOLTAGE_SOURCE_PIN</text>
<text x="50800" y="-63500" font-family="Arial" font-size="2000" fill="blue">EN</text>
<text x="165100" y="-88900" font-family="Arial" font-size="2000" fill="blue">P1_USB_STP</text>
<text x="203200" y="-88900" font-family="Arial" font-size="2000" fill="blue">BOARD_RESET_L</text>
<text x="15200" y="-152400" font-family="Arial" font-size="2000" fill="blue">P1_USB_CLK</text>
<text x="320000" y="-152400" font-family="Arial" font-size="2000" fill="blue">P1_USB_NXT</text>
<text x="2159000" y="2133600" font-family="Arial" font-size="2000" fill="blue">External Board Re-use</text>
<text x="-25400" y="5080" font-family="Arial" font-size="2000" fill="blue">G</text>
<text x="0" y="-50800" font-family="Arial" font-size="2000" fill="blue">A</text>
<text x="0" y="38100" font-family="Arial" font-size="2000" fill="blue">A</text>
<text x="88900" y="25400" font-family="Arial" font-size="2000" fill="blue">2</text>
<text x="-38100" y="25400" font-family="Arial" font-size="2000" fill="blue">1</text>
<text x="25400" y="88900" font-family="Arial" font-size="2000" fill="blue">C</text>
<text x="25400" y="-38100" font-family="Arial" font-size="2000" fill="blue">A</text>
<text x="1143000" y="2719395" font-family="Arial" font-size="2000" fill="blue">R335</text>
<text x="1143000" y="2704140" font-family="Arial" font-size="2000" fill="blue">resistor</text>
<text x="673100" y="3214695" font-family="Arial" font-size="2000" fill="blue">R84</text>
<text x="673100" y="3199440" font-family="Arial" font-size="2000" fill="blue">resistor</text>
<text x="584200" y="1957395" font-family="Arial" font-size="2000" fill="blue">R85</text>
<text x="584200" y="1942140" font-family="Arial" font-size="2000" fill="blue">resistor</text>
<text x="584200" y="1957395" font-family="Arial" font-size="2000" fill="blue">R86</text>
<text x="584200" y="1942140" font-family="Arial" font-size="2000" fill="blue">resistor</text>
<text x="990600" y="2363795" font-family="Arial" font-size="2000" fill="blue">R89</text>
<text x="990600" y="2348540" font-family="Arial" font-size="2000" fill="blue">resistor</text>
<text x="1244600" y="1652595" font-family="Arial" font-size="2000" fill="blue">R90</text>
<text x="1244600" y="1637340" font-family="Arial" font-size="2000" fill="blue">resistor</text>
<text x="673100" y="1919295" font-family="Arial" font-size="2000" fill="blue">R116</text>
<text x="673100" y="1904040" font-family="Arial" font-size="2000" fill="blue">resistor</text>
<text x="723900" y="3128367" font-family="Arial" font-size="2000" fill="blue">CR4</text>
<text x="990600" y="2493367" font-family="Arial" font-size="2000" fill="blue">CR5</text>
<text x="863600" y="2912467" font-family="Arial" font-size="2000" fill="blue">U13</text>
<text x="406400" y="1160685" font-family="Arial" font-size="2000" fill="blue">U12</text>
<text x="800100" y="3433985" font-family="Arial" font-size="2000" fill="blue">C51</text>
<text x="800100" y="3416829" font-family="Arial" font-size="2000" fill="blue">capacitor</text>
<text x="685800" y="3433985" font-family="Arial" font-size="2000" fill="blue">C84</text>
<text x="685800" y="3416829" font-family="Arial" font-size="2000" fill="blue">capacitor</text>
<text x="673100" y="3903885" font-family="Arial" font-size="2000" fill="blue">C260</text>
<text x="673100" y="3886729" font-family="Arial" font-size="2000" fill="blue">capacitor</text>
<text x="355600" y="3619235" font-family="Arial" font-size="2000" fill="blue">J6</text>
<text x="774700" y="2633885" font-family="Arial" font-size="2000" fill="blue">C52</text>
<text x="774700" y="2616729" font-family="Arial" font-size="2000" fill="blue">capacitor</text>
<text x="1079500" y="792385" font-family="Arial" font-size="2000" fill="blue">C55</text>
<text x="1079500" y="775229" font-family="Arial" font-size="2000" fill="blue">capacitor</text>
<text x="1079500" y="906685" font-family="Arial" font-size="2000" fill="blue">C56</text>
<text x="1079500" y="889529" font-family="Arial" font-size="2000" fill="blue">capacitor</text>
<text x="1143000" y="1655985" font-family="Arial" font-size="2000" fill="blue">C57</text>
<text x="1143000" y="1638829" font-family="Arial" font-size="2000" fill="blue">capacitor</text>
<text x="1041400" y="1909985" font-family="Arial" font-size="2000" fill="blue">C59</text>
<text x="1041400" y="1892829" font-family="Arial" font-size="2000" fill="blue">capacitor</text>
<text x="1079500" y="678085" font-family="Arial" font-size="2000" fill="blue">C60</text>
<text x="1079500" y="660929" font-family="Arial" font-size="2000" fill="blue">capacitor</text>
<rect x="1143000" y="2692400" width="5000" height="5000" stroke="red" stroke-width="20" fill="none"/>
<text x="1143000" y="2691400" font-family="Arial" font-size="3000" fill="red" font-weight="bold">R335</text>
<rect x="673100" y="3187700" width="5000" height="5000" stroke="red" stroke-width="20" fill="none"/>
<text x="673100" y="3186700" font-family="Arial" font-size="3000" fill="red" font-weight="bold">R84</text>
<rect x="584200" y="1930400" width="5000" height="5000" stroke="red" stroke-width="20" fill="none"/>
<text x="584200" y="1929400" font-family="Arial" font-size="3000" fill="red" font-weight="bold">R85</text>
<rect x="584200" y="1930400" width="5000" height="5000" stroke="red" stroke-width="20" fill="none"/>
<text x="584200" y="1929400" font-family="Arial" font-size="3000" fill="red" font-weight="bold">R86</text>
<rect x="990600" y="2336800" width="5000" height="5000" stroke="red" stroke-width="20" fill="none"/>
<text x="990600" y="2335800" font-family="Arial" font-size="3000" fill="red" font-weight="bold">R89</text>
<rect x="1244600" y="1625600" width="5000" height="5000" stroke="red" stroke-width="20" fill="none"/>
<text x="1244600" y="1624600" font-family="Arial" font-size="3000" fill="red" font-weight="bold">R90</text>
<rect x="673100" y="1892300" width="5000" height="5000" stroke="red" stroke-width="20" fill="none"/>
<text x="673100" y="1891300" font-family="Arial" font-size="3000" fill="red" font-weight="bold">R116</text>
<rect x="723900" y="3111500" width="5000" height="5000" stroke="red" stroke-width="20" fill="none"/>
<text x="723900" y="3110500" font-family="Arial" font-size="3000" fill="red" font-weight="bold">CR4</text>
<rect x="990600" y="2476500" width="5000" height="5000" stroke="red" stroke-width="20" fill="none"/>
<text x="990600" y="2475500" font-family="Arial" font-size="3000" fill="red" font-weight="bold">CR5</text>
<rect x="863600" y="2895600" width="5000" height="5000" stroke="red" stroke-width="20" fill="none"/>
<text x="863600" y="2894600" font-family="Arial" font-size="3000" fill="red" font-weight="bold">U13</text>
<rect x="406400" y="1130300" width="5000" height="5000" stroke="red" stroke-width="20" fill="none"/>
<text x="406400" y="1129300" font-family="Arial" font-size="3000" fill="red" font-weight="bold">U12</text>
<rect x="800100" y="3403600" width="5000" height="5000" stroke="red" stroke-width="20" fill="none"/>
<text x="800100" y="3402600" font-family="Arial" font-size="3000" fill="red" font-weight="bold">C51</text>
<rect x="685800" y="3403600" width="5000" height="5000" stroke="red" stroke-width="20" fill="none"/>
<text x="685800" y="3402600" font-family="Arial" font-size="3000" fill="red" font-weight="bold">C84</text>
<rect x="673100" y="3873500" width="5000" height="5000" stroke="red" stroke-width="20" fill="none"/>
<text x="673100" y="3872500" font-family="Arial" font-size="3000" fill="red" font-weight="bold">C260</text>
<rect x="355600" y="3594100" width="5000" height="5000" stroke="red" stroke-width="20" fill="none"/>
<text x="355600" y="3593100" font-family="Arial" font-size="3000" fill="red" font-weight="bold">J6</text>
<rect x="774700" y="2603500" width="5000" height="5000" stroke="red" stroke-width="20" fill="none"/>
<text x="774700" y="2602500" font-family="Arial" font-size="3000" fill="red" font-weight="bold">C52</text>
<rect x="1079500" y="762000" width="5000" height="5000" stroke="red" stroke-width="20" fill="none"/>
<text x="1079500" y="761000" font-family="Arial" font-size="3000" fill="red" font-weight="bold">C55</text>
<rect x="1079500" y="876300" width="5000" height="5000" stroke="red" stroke-width="20" fill="none"/>
<text x="1079500" y="875300" font-family="Arial" font-size="3000" fill="red" font-weight="bold">C56</text>
<rect x="1143000" y="1625600" width="5000" height="5000" stroke="red" stroke-width="20" fill="none"/>
<text x="1143000" y="1624600" font-family="Arial" font-size="3000" fill="red" font-weight="bold">C57</text>
<rect x="1041400" y="1879600" width="5000" height="5000" stroke="red" stroke-width="20" fill="none"/>
<text x="1041400" y="1878600" font-family="Arial" font-size="3000" fill="red" font-weight="bold">C59</text>
<rect x="1079500" y="647700" width="5000" height="5000" stroke="red" stroke-width="20" fill="none"/>
<text x="1079500" y="646700" font-family="Arial" font-size="3000" fill="red" font-weight="bold">C60</text>
</svg>