<?xml version="1.0" encoding="UTF-8" standalone="no"?>
<svg xmlns="http://www.w3.org/2000/svg" version="1.1" width="17000mil" height="11000mil" viewBox="0 0 1700000 1100000">
<rect x="0" y="0" width="1700000" height="1100000" fill="white"/>
<polyline points="3644900,1943100 4013200,1943100" stroke="#000000" stroke-width="10" fill="none"/>
<polyline points="3644900,2146300 4013200,2146300" stroke="#000000" stroke-width="10" fill="none"/>
<polyline points="2654300,698500 2654300,787400" stroke="#000000" stroke-width="10" fill="none"/>
<polyline points="3644900,1689100 4013200,1689100" stroke="#000000" stroke-width="10" fill="none"/>
<polyline points="3721100,1435100 4013200,1435100" stroke="#000000" stroke-width="10" fill="none"/>
<polyline points="1892300,1993900 2095500,1993900" stroke="#000000" stroke-width="10" fill="none"/>
<polyline points="2286000,711200 2286000,749300" stroke="#000000" stroke-width="10" fill="none"/>
<polyline points="1905000,444500 2349500,444500" stroke="#000000" stroke-width="10" fill="none"/>
<polyline points="203200,1384300 203200,1485900" stroke="#000000" stroke-width="10" fill="none"/>
<polyline points="2527300,1435100 2527300,1689100" stroke="#000000" stroke-width="10" fill="none"/>
<polyline points="1892300,2235200 2095500,2235200" stroke="#000000" stroke-width="10" fill="none"/>
<polyline points="1460500,1739900 1727200,1739900" stroke="#000000" stroke-width="10" fill="none"/>
<polyline points="1447800,393700 1612900,393700" stroke="#000000" stroke-width="10" fill="none"/>
<polyline points="1892300,1739900 2095500,1739900" stroke="#000000" stroke-width="10" fill="none"/>
<polyline points="1930400,1485900 2095500,1485900" stroke="#000000" stroke-width="10" fill="none"/>
<polyline points="622300,1879600 647700,1879600" stroke="#000000" stroke-width="10" fill="none"/>
<polyline points="2654300,927100 2717800,927100" stroke="#000000" stroke-width="10" fill="none"/>
<polyline points="609600,1651000 622300,1651000" stroke="#000000" stroke-width="10" fill="none"/>
<polyline points="1028700,393700 1168400,393700" stroke="#000000" stroke-width="10" fill="none"/>
<polyline points="622300,1930400 647700,1930400" stroke="#000000" stroke-width="10" fill="none"/>
<polyline points="622300,2209800 647700,2209800" stroke="#000000" stroke-width="10" fill="none"/>
<polyline points="2057400,495300 2349500,495300" stroke="#000000" stroke-width="10" fill="none"/>
<text x="1816100" y="647700" font-family="Arial" font-size="2000" fill="blue">REG_EN2</text>
<text x="1651000" y="622300" font-family="Arial" font-size="2000" fill="blue">REG_EN1</text>
<text x="1993900" y="571500" font-family="Arial" font-size="2000" fill="blue">REG_EN3</text>
<text x="2146300" y="647700" font-family="Arial" font-size="2000" fill="blue">REG_EN4</text>
<text x="33020" y="27940" font-family="Arial" font-size="2000" fill="blue">VCC_BAR</text>
<text x="127000" y="48260" font-family="Arial" font-size="2000" fill="blue">PSPNETLIST_IGNORE</text>
<text x="127000" y="48260" font-family="Arial" font-size="2000" fill="blue">NO_BOM</text>
<text x="276860" y="15240" font-family="Arial" font-size="2000" fill="blue">CONNECTOR_SIGNAL_MODEL</text>
<text x="635000" y="419100" font-family="Arial" font-size="2000" fill="blue">GNDLDO</text>
<text x="558800" y="419100" font-family="Arial" font-size="2000" fill="blue">VOLTAGE_SOURCE_PIN</text>
<text x="838200" y="-63500" font-family="Arial" font-size="2000" fill="blue">SDAT</text>
<text x="787400" y="-63500" font-family="Arial" font-size="2000" fill="blue">SCLK</text>
<text x="457200" y="419100" font-family="Arial" font-size="2000" fill="blue">GNDDCD2</text>
<text x="203200" y="419100" font-family="Arial" font-size="2000" fill="blue">GNDDCD1</text>
<text x="939800" y="0" font-family="Arial" font-size="2000" fill="blue">PART_NAME</text>
<text x="711200" y="-63500" font-family="Arial" font-size="2000" fill="blue">ENLDO2</text>
<text x="558800" y="-63500" font-family="Arial" font-size="2000" fill="blue">ENLDO1</text>
<text x="381000" y="-63500" font-family="Arial" font-size="2000" fill="blue">ENDCD2</text>
<text x="127000" y="-63500" font-family="Arial" font-size="2000" fill="blue">ENDCD1</text>
<text x="-12700" y="101600" font-family="Arial" font-size="2000" fill="blue">VCC</text>
<text x="165100" y="101600" font-family="Arial" font-size="2000" fill="blue">GND</text>
<text x="-25400" y="5080" font-family="Arial" font-size="2000" fill="blue">G</text>
<text x="0" y="-50800" font-family="Arial" font-size="2000" fill="blue">A</text>
<text x="0" y="50800" font-family="Arial" font-size="2000" fill="blue">A</text>
<text x="0" y="38100" font-family="Arial" font-size="2000" fill="blue">A</text>
<text x="88900" y="25400" font-family="Arial" font-size="2000" fill="blue">2</text>
<text x="-38100" y="25400" font-family="Arial" font-size="2000" fill="blue">1</text>
<text x="88900" y="25400" font-family="Arial" font-size="2000" fill="blue">1</text>
<text x="25400" y="88900" font-family="Arial" font-size="2000" fill="blue">C</text>
<text x="25400" y="-38100" font-family="Arial" font-size="2000" fill="blue">A</text>
<text x="25400" y="-63500" font-family="Arial" font-size="2000" fill="blue">1</text>
<text x="25400" y="114300" font-family="Arial" font-size="2000" fill="blue">2</text>
<text x="76200" y="114300" font-family="Arial" font-size="2000" fill="blue">1</text>
<text x="127000" y="114300" font-family="Arial" font-size="2000" fill="blue">3</text>
<text x="76200" y="114300" font-family="Arial" font-size="2000" fill="blue">2</text>
<text x="25400" y="114300" font-family="Arial" font-size="2000" fill="blue">1</text>
<text x="76200" y="215900" font-family="Arial" font-size="2000" fill="blue">Y</text>
<text x="101600" y="-63500" font-family="Arial" font-size="2000" fill="blue">A</text>
<text x="342900" y="314424" font-family="Arial" font-size="2000" fill="blue">J12</text>
<text x="673100" y="1080731" font-family="Arial" font-size="2000" fill="blue">J15</text>
<text x="1524000" y="1373195" font-family="Arial" font-size="2000" fill="blue">R278</text>
<text x="1524000" y="1357940" font-family="Arial" font-size="2000" fill="blue">resistor</text>
<text x="1511300" y="1843095" font-family="Arial" font-size="2000" fill="blue">R286</text>
<text x="1511300" y="1827840" font-family="Arial" font-size="2000" fill="blue">resistor</text>
<text x="1765300" y="1843095" font-family="Arial" font-size="2000" fill="blue">R287</text>
<text x="1765300" y="1827840" font-family="Arial" font-size="2000" fill="blue">resistor</text>
<text x="2019300" y="1843095" font-family="Arial" font-size="2000" fill="blue">R293</text>
<text x="2019300" y="1827840" font-family="Arial" font-size="2000" fill="blue">resistor</text>
<text x="2260600" y="1843095" font-family="Arial" font-size="2000" fill="blue">R329</text>
<text x="2260600" y="1827840" font-family="Arial" font-size="2000" fill="blue">resistor</text>
<text x="1460500" y="3595695" font-family="Arial" font-size="2000" fill="blue">R330</text>
<text x="1460500" y="3580440" font-family="Arial" font-size="2000" fill="blue">resistor</text>
<text x="1714500" y="3595695" font-family="Arial" font-size="2000" fill="blue">R331</text>
<text x="1714500" y="3580440" font-family="Arial" font-size="2000" fill="blue">resistor</text>
<text x="1968500" y="3595695" font-family="Arial" font-size="2000" fill="blue">R332</text>
<text x="1968500" y="3580440" font-family="Arial" font-size="2000" fill="blue">resistor</text>
<text x="2171700" y="3595695" font-family="Arial" font-size="2000" fill="blue">R333</text>
<text x="2171700" y="3580440" font-family="Arial" font-size="2000" fill="blue">resistor</text>
<text x="1003300" y="1995495" font-family="Arial" font-size="2000" fill="blue">R327</text>
<text x="1003300" y="1980240" font-family="Arial" font-size="2000" fill="blue">resistor</text>
<text x="812800" y="2655895" font-family="Arial" font-size="2000" fill="blue">R328</text>
<text x="812800" y="2640640" font-family="Arial" font-size="2000" fill="blue">resistor</text>
<text x="2222500" y="3252795" font-family="Arial" font-size="2000" fill="blue">R288</text>
<text x="2222500" y="3237540" font-family="Arial" font-size="2000" fill="blue">resistor</text>
<text x="1587500" y="560395" font-family="Arial" font-size="2000" fill="blue">R276</text>
<text x="1587500" y="545140" font-family="Arial" font-size="2000" fill="blue">resistor</text>
<text x="1841500" y="560395" font-family="Arial" font-size="2000" fill="blue">R277</text>
<text x="1841500" y="545140" font-family="Arial" font-size="2000" fill="blue">resistor</text>
<text x="2171700" y="560395" font-family="Arial" font-size="2000" fill="blue">R283</text>
<text x="2171700" y="545140" font-family="Arial" font-size="2000" fill="blue">resistor</text>
<text x="2019300" y="573095" font-family="Arial" font-size="2000" fill="blue">R280</text>
<text x="2019300" y="557840" font-family="Arial" font-size="2000" fill="blue">resistor</text>
<text x="1003300" y="1614495" font-family="Arial" font-size="2000" fill="blue">R273</text>
<text x="1003300" y="1599240" font-family="Arial" font-size="2000" fill="blue">resistor</text>
<text x="2082800" y="2528895" font-family="Arial" font-size="2000" fill="blue">R285</text>
<text x="2082800" y="2513640" font-family="Arial" font-size="2000" fill="blue">resistor</text>
<text x="2082800" y="2605095" font-family="Arial" font-size="2000" fill="blue">R284</text>
<text x="2082800" y="2589840" font-family="Arial" font-size="2000" fill="blue">resistor</text>
<text x="1638300" y="1589095" font-family="Arial" font-size="2000" fill="blue">R279</text>
<text x="1638300" y="1573840" font-family="Arial" font-size="2000" fill="blue">resistor</text>
<text x="1892300" y="1576395" font-family="Arial" font-size="2000" fill="blue">R281</text>
<text x="1892300" y="1561140" font-family="Arial" font-size="2000" fill="blue">resistor</text>
<text x="1778000" y="1373195" font-family="Arial" font-size="2000" fill="blue">R282</text>
<text x="1778000" y="1357940" font-family="Arial" font-size="2000" fill="blue">resistor</text>
<text x="1511300" y="1233834" font-family="Arial" font-size="2000" fill="blue">L8</text>
<text x="1511300" y="1219200" font-family="Arial" font-size="2000" fill="blue">inductor</text>
<text x="1765300" y="1233834" font-family="Arial" font-size="2000" fill="blue">L9</text>
<text x="1765300" y="1219200" font-family="Arial" font-size="2000" fill="blue">inductor</text>
<text x="1460500" y="3240434" font-family="Arial" font-size="2000" fill="blue">L11</text>
<text x="1460500" y="3225800" font-family="Arial" font-size="2000" fill="blue">inductor</text>
<text x="1714500" y="3240434" font-family="Arial" font-size="2000" fill="blue">L10</text>
<text x="1714500" y="3225800" font-family="Arial" font-size="2000" fill="blue">inductor</text>
<text x="368300" y="2465031" font-family="Arial" font-size="2000" fill="blue">J14</text>
<text x="2311400" y="3217267" font-family="Arial" font-size="2000" fill="blue">CR8</text>
<text x="1384300" y="2766847" font-family="Arial" font-size="2000" fill="blue">U30</text>
<text x="419100" y="1452785" font-family="Arial" font-size="2000" fill="blue">C238</text>
<text x="419100" y="1435629" font-family="Arial" font-size="2000" fill="blue">capacitor</text>
<text x="660400" y="1955535" font-family="Arial" font-size="2000" fill="blue">TP15</text>
<text x="1473200" y="3726085" font-family="Arial" font-size="2000" fill="blue">C218</text>
<text x="1473200" y="3708929" font-family="Arial" font-size="2000" fill="blue">capacitor</text>
<text x="774700" y="2405285" font-family="Arial" font-size="2000" fill="blue">C288</text>
<text x="774700" y="2388129" font-family="Arial" font-size="2000" fill="blue">capacitor</text>
<text x="533400" y="2062385" font-family="Arial" font-size="2000" fill="blue">C287</text>
<text x="533400" y="2045229" font-family="Arial" font-size="2000" fill="blue">capacitor</text>
<text x="419100" y="805085" font-family="Arial" font-size="2000" fill="blue">C236</text>
<text x="419100" y="787929" font-family="Arial" font-size="2000" fill="blue">capacitor</text>
<text x="419100" y="1033685" font-family="Arial" font-size="2000" fill="blue">C237</text>
<text x="419100" y="1016529" font-family="Arial" font-size="2000" fill="blue">capacitor</text>
<text x="1511300" y="347885" font-family="Arial" font-size="2000" fill="blue">C241</text>
<text x="1511300" y="330729" font-family="Arial" font-size="2000" fill="blue">capacitor</text>
<text x="1778000" y="347885" font-family="Arial" font-size="2000" fill="blue">C253</text>
<text x="1778000" y="330729" font-family="Arial" font-size="2000" fill="blue">capacitor</text>
<text x="1524000" y="1732185" font-family="Arial" font-size="2000" fill="blue">C243</text>
<text x="1524000" y="1715029" font-family="Arial" font-size="2000" fill="blue">capacitor</text>
<text x="1778000" y="1732185" font-family="Arial" font-size="2000" fill="blue">C245</text>
<text x="1778000" y="1715029" font-family="Arial" font-size="2000" fill="blue">capacitor</text>
<text x="1727200" y="2671985" font-family="Arial" font-size="2000" fill="blue">C247</text>
<text x="1727200" y="2654829" font-family="Arial" font-size="2000" fill="blue">capacitor</text>
<text x="1473200" y="3484785" font-family="Arial" font-size="2000" fill="blue">C248</text>
<text x="1473200" y="3467629" font-family="Arial" font-size="2000" fill="blue">capacitor</text>
<text x="1727200" y="3484785" font-family="Arial" font-size="2000" fill="blue">C250</text>
<text x="1727200" y="3467629" font-family="Arial" font-size="2000" fill="blue">capacitor</text>
<text x="1968500" y="3484785" font-family="Arial" font-size="2000" fill="blue">C255</text>
<text x="1968500" y="3467629" font-family="Arial" font-size="2000" fill="blue">capacitor</text>
<text x="2209800" y="3484785" font-family="Arial" font-size="2000" fill="blue">C256</text>
<text x="2209800" y="3467629" font-family="Arial" font-size="2000" fill="blue">capacitor</text>
<text x="1524000" y="1465485" font-family="Arial" font-size="2000" fill="blue">C242</text>
<text x="1524000" y="1448329" font-family="Arial" font-size="2000" fill="blue">capacitor</text>
<text x="1778000" y="1465485" font-family="Arial" font-size="2000" fill="blue">C244</text>
<text x="1778000" y="1448329" font-family="Arial" font-size="2000" fill="blue">capacitor</text>
<text x="2019300" y="347885" font-family="Arial" font-size="2000" fill="blue">C254</text>
<text x="2019300" y="330729" font-family="Arial" font-size="2000" fill="blue">capacitor</text>
<text x="2032000" y="1732185" font-family="Arial" font-size="2000" fill="blue">C251</text>
<text x="2032000" y="1715029" font-family="Arial" font-size="2000" fill="blue">capacitor</text>
<text x="2286000" y="1732185" font-family="Arial" font-size="2000" fill="blue">C252</text>
<text x="2286000" y="1715029" font-family="Arial" font-size="2000" fill="blue">capacitor</text>
<text x="673100" y="814982" font-family="Arial" font-size="2000" fill="blue">PTH1</text>
<text x="393700" y="3367682" font-family="Arial" font-size="2000" fill="blue">PTH2</text>
<text x="393700" y="3647082" font-family="Arial" font-size="2000" fill="blue">PTH3</text>
<text x="393700" y="3926482" font-family="Arial" font-size="2000" fill="blue">PTH4</text>
<text x="1435100" y="776295" font-family="Arial" font-size="2000" fill="blue">U29</text>
<text x="850900" y="2214785" font-family="Arial" font-size="2000" fill="blue">U36</text>
<text x="762000" y="3555735" font-family="Arial" font-size="2000" fill="blue">TP12</text>
<text x="1371600" y="1930135" font-family="Arial" font-size="2000" fill="blue">TP13</text>
<text x="762000" y="3784335" font-family="Arial" font-size="2000" fill="blue">TP14</text>
<text x="368300" y="1298078" font-family="Arial" font-size="2000" fill="blue">F1</text>
<rect x="342900" y="292100" width="5000" height="5000" stroke="red" stroke-width="20" fill="none"/>
<text x="342900" y="291100" font-family="Arial" font-size="3000" fill="red" font-weight="bold">J12</text>
<rect x="673100" y="1066800" width="5000" height="5000" stroke="red" stroke-width="20" fill="none"/>
<text x="673100" y="1065800" font-family="Arial" font-size="3000" fill="red" font-weight="bold">J15</text>
<rect x="1524000" y="1346200" width="5000" height="5000" stroke="red" stroke-width="20" fill="none"/>
<text x="1524000" y="1345200" font-family="Arial" font-size="3000" fill="red" font-weight="bold">R278</text>
<rect x="1511300" y="1816100" width="5000" height="5000" stroke="red" stroke-width="20" fill="none"/>
<text x="1511300" y="1815100" font-family="Arial" font-size="3000" fill="red" font-weight="bold">R286</text>
<rect x="1765300" y="1816100" width="5000" height="5000" stroke="red" stroke-width="20" fill="none"/>
<text x="1765300" y="1815100" font-family="Arial" font-size="3000" fill="red" font-weight="bold">R287</text>
<rect x="2019300" y="1816100" width="5000" height="5000" stroke="red" stroke-width="20" fill="none"/>
<text x="2019300" y="1815100" font-family="Arial" font-size="3000" fill="red" font-weight="bold">R293</text>
<rect x="2260600" y="1816100" width="5000" height="5000" stroke="red" stroke-width="20" fill="none"/>
<text x="2260600" y="1815100" font-family="Arial" font-size="3000" fill="red" font-weight="bold">R329</text>
<rect x="1460500" y="3568700" width="5000" height="5000" stroke="red" stroke-width="20" fill="none"/>
<text x="1460500" y="3567700" font-family="Arial" font-size="3000" fill="red" font-weight="bold">R330</text>
<rect x="1714500" y="3568700" width="5000" height="5000" stroke="red" stroke-width="20" fill="none"/>
<text x="1714500" y="3567700" font-family="Arial" font-size="3000" fill="red" font-weight="bold">R331</text>
<rect x="1968500" y="3568700" width="5000" height="5000" stroke="red" stroke-width="20" fill="none"/>
<text x="1968500" y="3567700" font-family="Arial" font-size="3000" fill="red" font-weight="bold">R332</text>
<rect x="2171700" y="3568700" width="5000" height="5000" stroke="red" stroke-width="20" fill="none"/>
<text x="2171700" y="3567700" font-family="Arial" font-size="3000" fill="red" font-weight="bold">R333</text>
<rect x="1003300" y="1968500" width="5000" height="5000" stroke="red" stroke-width="20" fill="none"/>
<text x="1003300" y="1967500" font-family="Arial" font-size="3000" fill="red" font-weight="bold">R327</text>
<rect x="812800" y="2628900" width="5000" height="5000" stroke="red" stroke-width="20" fill="none"/>
<text x="812800" y="2627900" font-family="Arial" font-size="3000" fill="red" font-weight="bold">R328</text>
<rect x="2222500" y="3225800" width="5000" height="5000" stroke="red" stroke-width="20" fill="none"/>
<text x="2222500" y="3224800" font-family="Arial" font-size="3000" fill="red" font-weight="bold">R288</text>
<rect x="1587500" y="533400" width="5000" height="5000" stroke="red" stroke-width="20" fill="none"/>
<text x="1587500" y="532400" font-family="Arial" font-size="3000" fill="red" font-weight="bold">R276</text>
<rect x="1841500" y="533400" width="5000" height="5000" stroke="red" stroke-width="20" fill="none"/>
<text x="1841500" y="532400" font-family="Arial" font-size="3000" fill="red" font-weight="bold">R277</text>
<rect x="2171700" y="533400" width="5000" height="5000" stroke="red" stroke-width="20" fill="none"/>
<text x="2171700" y="532400" font-family="Arial" font-size="3000" fill="red" font-weight="bold">R283</text>
<rect x="2019300" y="546100" width="5000" height="5000" stroke="red" stroke-width="20" fill="none"/>
<text x="2019300" y="545100" font-family="Arial" font-size="3000" fill="red" font-weight="bold">R280</text>
<rect x="1003300" y="1587500" width="5000" height="5000" stroke="red" stroke-width="20" fill="none"/>
<text x="1003300" y="1586500" font-family="Arial" font-size="3000" fill="red" font-weight="bold">R273</text>
<rect x="2082800" y="2501900" width="5000" height="5000" stroke="red" stroke-width="20" fill="none"/>
<text x="2082800" y="2500900" font-family="Arial" font-size="3000" fill="red" font-weight="bold">R285</text>
<rect x="2082800" y="2578100" width="5000" height="5000" stroke="red" stroke-width="20" fill="none"/>
<text x="2082800" y="2577100" font-family="Arial" font-size="3000" fill="red" font-weight="bold">R284</text>
<rect x="1638300" y="1562100" width="5000" height="5000" stroke="red" stroke-width="20" fill="none"/>
<text x="1638300" y="1561100" font-family="Arial" font-size="3000" fill="red" font-weight="bold">R279</text>
<rect x="1892300" y="1549400" width="5000" height="5000" stroke="red" stroke-width="20" fill="none"/>
<text x="1892300" y="1548400" font-family="Arial" font-size="3000" fill="red" font-weight="bold">R281</text>
<rect x="1778000" y="1346200" width="5000" height="5000" stroke="red" stroke-width="20" fill="none"/>
<text x="1778000" y="1345200" font-family="Arial" font-size="3000" fill="red" font-weight="bold">R282</text>
<rect x="1511300" y="1219200" width="5000" height="5000" stroke="red" stroke-width="20" fill="none"/>
<text x="1511300" y="1218200" font-family="Arial" font-size="3000" fill="red" font-weight="bold">L8</text>
<rect x="1765300" y="1219200" width="5000" height="5000" stroke="red" stroke-width="20" fill="none"/>
<text x="1765300" y="1218200" font-family="Arial" font-size="3000" fill="red" font-weight="bold">L9</text>
<rect x="1460500" y="3225800" width="5000" height="5000" stroke="red" stroke-width="20" fill="none"/>
<text x="1460500" y="3224800" font-family="Arial" font-size="3000" fill="red" font-weight="bold">L11</text>
<rect x="1714500" y="3225800" width="5000" height="5000" stroke="red" stroke-width="20" fill="none"/>
<text x="1714500" y="3224800" font-family="Arial" font-size="3000" fill="red" font-weight="bold">L10</text>
<rect x="368300" y="2451100" width="5000" height="5000" stroke="red" stroke-width="20" fill="none"/>
<text x="368300" y="2450100" font-family="Arial" font-size="3000" fill="red" font-weight="bold">J14</text>
<rect x="2311400" y="3200400" width="5000" height="5000" stroke="red" stroke-width="20" fill="none"/>
<text x="2311400" y="3199400" font-family="Arial" font-size="3000" fill="red" font-weight="bold">CR8</text>
<rect x="1384300" y="2743200" width="5000" height="5000" stroke="red" stroke-width="20" fill="none"/>
<text x="1384300" y="2742200" font-family="Arial" font-size="3000" fill="red" font-weight="bold">U30</text>
<rect x="419100" y="1422400" width="5000" height="5000" stroke="red" stroke-width="20" fill="none"/>
<text x="419100" y="1421400" font-family="Arial" font-size="3000" fill="red" font-weight="bold">C238</text>
<rect x="660400" y="1930400" width="5000" height="5000" stroke="red" stroke-width="20" fill="none"/>
<text x="660400" y="1929400" font-family="Arial" font-size="3000" fill="red" font-weight="bold">TP15</text>
<rect x="1473200" y="3695700" width="5000" height="5000" stroke="red" stroke-width="20" fill="none"/>
<text x="1473200" y="3694700" font-family="Arial" font-size="3000" fill="red" font-weight="bold">C218</text>
<rect x="774700" y="2374900" width="5000" height="5000" stroke="red" stroke-width="20" fill="none"/>
<text x="774700" y="2373900" font-family="Arial" font-size="3000" fill="red" font-weight="bold">C288</text>
<rect x="533400" y="2032000" width="5000" height="5000" stroke="red" stroke-width="20" fill="none"/>
<text x="533400" y="2031000" font-family="Arial" font-size="3000" fill="red" font-weight="bold">C287</text>
<rect x="419100" y="774700" width="5000" height="5000" stroke="red" stroke-width="20" fill="none"/>
<text x="419100" y="773700" font-family="Arial" font-size="3000" fill="red" font-weight="bold">C236</text>
<rect x="419100" y="1003300" width="5000" height="5000" stroke="red" stroke-width="20" fill="none"/>
<text x="419100" y="1002300" font-family="Arial" font-size="3000" fill="red" font-weight="bold">C237</text>
<rect x="1511300" y="317500" width="5000" height="5000" stroke="red" stroke-width="20" fill="none"/>
<text x="1511300" y="316500" font-family="Arial" font-size="3000" fill="red" font-weight="bold">C241</text>
<rect x="1778000" y="317500" width="5000" height="5000" stroke="red" stroke-width="20" fill="none"/>
<text x="1778000" y="316500" font-family="Arial" font-size="3000" fill="red" font-weight="bold">C253</text>
<rect x="1524000" y="1701800" width="5000" height="5000" stroke="red" stroke-width="20" fill="none"/>
<text x="1524000" y="1700800" font-family="Arial" font-size="3000" fill="red" font-weight="bold">C243</text>
<rect x="1778000" y="1701800" width="5000" height="5000" stroke="red" stroke-width="20" fill="none"/>
<text x="1778000" y="1700800" font-family="Arial" font-size="3000" fill="red" font-weight="bold">C245</text>
<rect x="1727200" y="2641600" width="5000" height="5000" stroke="red" stroke-width="20" fill="none"/>
<text x="1727200" y="2640600" font-family="Arial" font-size="3000" fill="red" font-weight="bold">C247</text>
<rect x="1473200" y="3454400" width="5000" height="5000" stroke="red" stroke-width="20" fill="none"/>
<text x="1473200" y="3453400" font-family="Arial" font-size="3000" fill="red" font-weight="bold">C248</text>
<rect x="1727200" y="3454400" width="5000" height="5000" stroke="red" stroke-width="20" fill="none"/>
<text x="1727200" y="3453400" font-family="Arial" font-size="3000" fill="red" font-weight="bold">C250</text>
<rect x="1968500" y="3454400" width="5000" height="5000" stroke="red" stroke-width="20" fill="none"/>
<text x="1968500" y="3453400" font-family="Arial" font-size="3000" fill="red" font-weight="bold">C255</text>
<rect x="2209800" y="3454400" width="5000" height="5000" stroke="red" stroke-width="20" fill="none"/>
<text x="2209800" y="3453400" font-family="Arial" font-size="3000" fill="red" font-weight="bold">C256</text>
<rect x="1524000" y="1435100" width="5000" height="5000" stroke="red" stroke-width="20" fill="none"/>
<text x="1524000" y="1434100" font-family="Arial" font-size="3000" fill="red" font-weight="bold">C242</text>
<rect x="1778000" y="1435100" width="5000" height="5000" stroke="red" stroke-width="20" fill="none"/>
<text x="1778000" y="1434100" font-family="Arial" font-size="3000" fill="red" font-weight="bold">C244</text>
<rect x="2019300" y="317500" width="5000" height="5000" stroke="red" stroke-width="20" fill="none"/>
<text x="2019300" y="316500" font-family="Arial" font-size="3000" fill="red" font-weight="bold">C254</text>
<rect x="2032000" y="1701800" width="5000" height="5000" stroke="red" stroke-width="20" fill="none"/>
<text x="2032000" y="1700800" font-family="Arial" font-size="3000" fill="red" font-weight="bold">C251</text>
<rect x="2286000" y="1701800" width="5000" height="5000" stroke="red" stroke-width="20" fill="none"/>
<text x="2286000" y="1700800" font-family="Arial" font-size="3000" fill="red" font-weight="bold">C252</text>
<rect x="673100" y="800100" width="5000" height="5000" stroke="red" stroke-width="20" fill="none"/>
<text x="673100" y="799100" font-family="Arial" font-size="3000" fill="red" font-weight="bold">PTH1</text>
<rect x="393700" y="3352800" width="5000" height="5000" stroke="red" stroke-width="20" fill="none"/>
<text x="393700" y="3351800" font-family="Arial" font-size="3000" fill="red" font-weight="bold">PTH2</text>
<rect x="393700" y="3632200" width="5000" height="5000" stroke="red" stroke-width="20" fill="none"/>
<text x="393700" y="3631200" font-family="Arial" font-size="3000" fill="red" font-weight="bold">PTH3</text>
<rect x="393700" y="3911600" width="5000" height="5000" stroke="red" stroke-width="20" fill="none"/>
<text x="393700" y="3910600" font-family="Arial" font-size="3000" fill="red" font-weight="bold">PTH4</text>
<rect x="1435100" y="749300" width="5000" height="5000" stroke="red" stroke-width="20" fill="none"/>
<text x="1435100" y="748300" font-family="Arial" font-size="3000" fill="red" font-weight="bold">U29</text>
<rect x="850900" y="2184400" width="5000" height="5000" stroke="red" stroke-width="20" fill="none"/>
<text x="850900" y="2183400" font-family="Arial" font-size="3000" fill="red" font-weight="bold">U36</text>
<rect x="762000" y="3530600" width="5000" height="5000" stroke="red" stroke-width="20" fill="none"/>
<text x="762000" y="3529600" font-family="Arial" font-size="3000" fill="red" font-weight="bold">TP12</text>
<rect x="1371600" y="1905000" width="5000" height="5000" stroke="red" stroke-width="20" fill="none"/>
<text x="1371600" y="1904000" font-family="Arial" font-size="3000" fill="red" font-weight="bold">TP13</text>
<rect x="762000" y="3759200" width="5000" height="5000" stroke="red" stroke-width="20" fill="none"/>
<text x="762000" y="3758200" font-family="Arial" font-size="3000" fill="red" font-weight="bold">TP14</text>
<rect x="368300" y="1282700" width="5000" height="5000" stroke="red" stroke-width="20" fill="none"/>
<text x="368300" y="1281700" font-family="Arial" font-size="3000" fill="red" font-weight="bold">F1</text>
</svg>