<?xml version="1.0" encoding="UTF-8" standalone="no"?>
<svg xmlns="http://www.w3.org/2000/svg" version="1.1" width="17000mil" height="11000mil" viewBox="0 0 1700000 1100000">
<rect x="0" y="0" width="1700000" height="1100000" fill="white"/>
<polyline points="939800,1295400 1143000,1295400" stroke="#000000" stroke-width="10" fill="none"/>
<polyline points="939800,482600 1384300,482600" stroke="#000000" stroke-width="10" fill="none"/>
<polyline points="939800,1143000 1384300,1143000" stroke="#000000" stroke-width="10" fill="none"/>
<polyline points="939800,533400 1384300,533400" stroke="#000000" stroke-width="10" fill="none"/>
<polyline points="939800,381000 1384300,381000" stroke="#000000" stroke-width="10" fill="none"/>
<polyline points="939800,431800 1384300,431800" stroke="#000000" stroke-width="10" fill="none"/>
<polyline points="939800,635000 1384300,635000" stroke="#000000" stroke-width="10" fill="none"/>
<polyline points="939800,736600 1384300,736600" stroke="#000000" stroke-width="10" fill="none"/>
<polyline points="939800,812800 1384300,812800" stroke="#000000" stroke-width="10" fill="none"/>
<polyline points="939800,685800 1384300,685800" stroke="#000000" stroke-width="10" fill="none"/>
<polyline points="939800,1346200 1358900,1346200" stroke="#000000" stroke-width="10" fill="none"/>
<polyline points="939800,1219200 1384300,1219200" stroke="#000000" stroke-width="10" fill="none"/>
<polyline points="939800,406400 1384300,406400" stroke="#000000" stroke-width="10" fill="none"/>
<polyline points="2197100,330200 2413000,330200" stroke="#000000" stroke-width="10" fill="none"/>
<polyline points="1219200,330200 1384300,330200" stroke="#000000" stroke-width="10" fill="none"/>
<polyline points="939800,965200 1384300,965200" stroke="#000000" stroke-width="10" fill="none"/>
<polyline points="939800,838200 1384300,838200" stroke="#000000" stroke-width="10" fill="none"/>
<polyline points="939800,914400 1384300,914400" stroke="#000000" stroke-width="10" fill="none"/>
<polyline points="939800,1092200 1384300,1092200" stroke="#000000" stroke-width="10" fill="none"/>
<polyline points="939800,1117600 1384300,1117600" stroke="#000000" stroke-width="10" fill="none"/>
<polyline points="939800,584200 1384300,584200" stroke="#000000" stroke-width="10" fill="none"/>
<polyline points="939800,1066800 1384300,1066800" stroke="#000000" stroke-width="10" fill="none"/>
<polyline points="939800,1422400 1384300,1422400" stroke="#000000" stroke-width="10" fill="none"/>
<polyline points="939800,990600 1384300,990600" stroke="#000000" stroke-width="10" fill="none"/>
<polyline points="939800,889000 1384300,889000" stroke="#000000" stroke-width="10" fill="none"/>
<polyline points="939800,762000 1384300,762000" stroke="#000000" stroke-width="10" fill="none"/>
<polyline points="2921000,215900 2921000,254000" stroke="#000000" stroke-width="10" fill="none"/>
<polyline points="3416300,774700 3416300,800100" stroke="#000000" stroke-width="10" fill="none"/>
<text x="736600" y="998400" font-family="Arial" font-size="2000" fill="blue">DDR_DQS_P0</text>
<text x="812800" y="998400" font-family="Arial" font-size="2000" fill="blue">DDR_DQS_P1</text>
<text x="965200" y="998400" font-family="Arial" font-size="2000" fill="blue">DDR_DQS_P3</text>
<text x="838200" y="998400" font-family="Arial" font-size="2000" fill="blue">DDR_DQS_N1</text>
<text x="914400" y="998400" font-family="Arial" font-size="2000" fill="blue">DDR_DQS_N2</text>
<text x="990600" y="998400" font-family="Arial" font-size="2000" fill="blue">DDR_DQS_N3</text>
<text x="889000" y="998400" font-family="Arial" font-size="2000" fill="blue">DDR_DQS_P2</text>
<text x="762000" y="998400" font-family="Arial" font-size="2000" fill="blue">DDR_DQS_N0</text>
<text x="33020" y="27940" font-family="Arial" font-size="2000" fill="blue">VCC_BAR</text>
<text x="711200" y="-63500" font-family="Arial" font-size="2000" fill="blue">DQS3_L</text>
<text x="635000" y="-63500" font-family="Arial" font-size="2000" fill="blue">DQS2_L</text>
<text x="558800" y="-63500" font-family="Arial" font-size="2000" fill="blue">DQS1_L</text>
<text x="482600" y="-63500" font-family="Arial" font-size="2000" fill="blue">DQS0_L</text>
<text x="1143000" y="-63500" font-family="Arial" font-size="2000" fill="blue">RESET_L</text>
<text x="1066800" y="-63500" font-family="Arial" font-size="2000" fill="blue">CK_L</text>
<text x="406400" y="-63500" font-family="Arial" font-size="2000" fill="blue">WE_L</text>
<text x="355600" y="-63500" font-family="Arial" font-size="2000" fill="blue">CAS_L</text>
<text x="304800" y="-63500" font-family="Arial" font-size="2000" fill="blue">RAS_L</text>
<text x="254000" y="-63500" font-family="Arial" font-size="2000" fill="blue">CS_L</text>
<text x="-25400" y="5080" font-family="Arial" font-size="2000" fill="blue">G</text>
<text x="-17780" y="-50800" font-family="Arial" font-size="2000" fill="blue">B</text>
<text x="-5080" y="38100" font-family="Arial" font-size="2000" fill="blue">S</text>
<text x="0" y="-50800" font-family="Arial" font-size="2000" fill="blue">A</text>
<text x="0" y="38100" font-family="Arial" font-size="2000" fill="blue">A</text>
<text x="88900" y="25400" font-family="Arial" font-size="2000" fill="blue">2</text>
<text x="-38100" y="25400" font-family="Arial" font-size="2000" fill="blue">1</text>
<text x="1346200" y="1233495" font-family="Arial" font-size="2000" fill="blue">R115</text>
<text x="1346200" y="1218240" font-family="Arial" font-size="2000" fill="blue">resistor</text>
<text x="279400" y="2922595" font-family="Arial" font-size="2000" fill="blue">R69</text>
<text x="279400" y="2907340" font-family="Arial" font-size="2000" fill="blue">resistor</text>
<text x="419100" y="2922595" font-family="Arial" font-size="2000" fill="blue">R70</text>
<text x="419100" y="2907340" font-family="Arial" font-size="2000" fill="blue">resistor</text>
<text x="482600" y="2478095" font-family="Arial" font-size="2000" fill="blue">R119</text>
<text x="482600" y="2462840" font-family="Arial" font-size="2000" fill="blue">resistor</text>
<text x="533400" y="2478095" font-family="Arial" font-size="2000" fill="blue">R120</text>
<text x="533400" y="2462840" font-family="Arial" font-size="2000" fill="blue">resistor</text>
<text x="825500" y="3662585" font-family="Arial" font-size="2000" fill="blue">C97</text>
<text x="825500" y="3645429" font-family="Arial" font-size="2000" fill="blue">capacitor</text>
<text x="977900" y="3662585" font-family="Arial" font-size="2000" fill="blue">C99</text>
<text x="977900" y="3645429" font-family="Arial" font-size="2000" fill="blue">capacitor</text>
<text x="1079500" y="3662585" font-family="Arial" font-size="2000" fill="blue">C100</text>
<text x="1079500" y="3645429" font-family="Arial" font-size="2000" fill="blue">capacitor</text>
<text x="1155700" y="3662585" font-family="Arial" font-size="2000" fill="blue">C101</text>
<text x="1155700" y="3645429" font-family="Arial" font-size="2000" fill="blue">capacitor</text>
<text x="1231900" y="3662585" font-family="Arial" font-size="2000" fill="blue">C102</text>
<text x="1231900" y="3645429" font-family="Arial" font-size="2000" fill="blue">capacitor</text>
<text x="1308100" y="3662585" font-family="Arial" font-size="2000" fill="blue">C103</text>
<text x="1308100" y="3645429" font-family="Arial" font-size="2000" fill="blue">capacitor</text>
<text x="419100" y="2646585" font-family="Arial" font-size="2000" fill="blue">C95</text>
<text x="419100" y="2629429" font-family="Arial" font-size="2000" fill="blue">capacitor</text>
<text x="469900" y="2837085" font-family="Arial" font-size="2000" fill="blue">C96</text>
<text x="469900" y="2819929" font-family="Arial" font-size="2000" fill="blue">capacitor</text>
<text x="1422400" y="3662585" font-family="Arial" font-size="2000" fill="blue">C104</text>
<text x="1422400" y="3645429" font-family="Arial" font-size="2000" fill="blue">capacitor</text>
<text x="1498600" y="3662585" font-family="Arial" font-size="2000" fill="blue">C105</text>
<text x="1498600" y="3645429" font-family="Arial" font-size="2000" fill="blue">capacitor</text>
<text x="1574800" y="3662585" font-family="Arial" font-size="2000" fill="blue">C106</text>
<text x="1574800" y="3645429" font-family="Arial" font-size="2000" fill="blue">capacitor</text>
<text x="1651000" y="3662585" font-family="Arial" font-size="2000" fill="blue">C107</text>
<text x="1651000" y="3645429" font-family="Arial" font-size="2000" fill="blue">capacitor</text>
<text x="1727200" y="3662585" font-family="Arial" font-size="2000" fill="blue">C108</text>
<text x="1727200" y="3645429" font-family="Arial" font-size="2000" fill="blue">capacitor</text>
<text x="1803400" y="3662585" font-family="Arial" font-size="2000" fill="blue">C109</text>
<text x="1803400" y="3645429" font-family="Arial" font-size="2000" fill="blue">capacitor</text>
<text x="1879600" y="3662585" font-family="Arial" font-size="2000" fill="blue">C110</text>
<text x="1879600" y="3645429" font-family="Arial" font-size="2000" fill="blue">capacitor</text>
<text x="1955800" y="3662585" font-family="Arial" font-size="2000" fill="blue">C111</text>
<text x="1955800" y="3645429" font-family="Arial" font-size="2000" fill="blue">capacitor</text>
<text x="2032000" y="3662585" font-family="Arial" font-size="2000" fill="blue">C112</text>
<text x="2032000" y="3645429" font-family="Arial" font-size="2000" fill="blue">capacitor</text>
<text x="2108200" y="3662585" font-family="Arial" font-size="2000" fill="blue">C113</text>
<text x="2108200" y="3645429" font-family="Arial" font-size="2000" fill="blue">capacitor</text>
<text x="901700" y="3662585" font-family="Arial" font-size="2000" fill="blue">C98</text>
<text x="901700" y="3645429" font-family="Arial" font-size="2000" fill="blue">capacitor</text>
<text x="279400" y="1451967" font-family="Arial" font-size="2000" fill="blue">U20</text>
<rect x="1346200" y="1206500" width="5000" height="5000" stroke="red" stroke-width="20" fill="none"/>
<text x="1346200" y="1205500" font-family="Arial" font-size="3000" fill="red" font-weight="bold">R115</text>
<rect x="279400" y="2895600" width="5000" height="5000" stroke="red" stroke-width="20" fill="none"/>
<text x="279400" y="2894600" font-family="Arial" font-size="3000" fill="red" font-weight="bold">R69</text>
<rect x="419100" y="2895600" width="5000" height="5000" stroke="red" stroke-width="20" fill="none"/>
<text x="419100" y="2894600" font-family="Arial" font-size="3000" fill="red" font-weight="bold">R70</text>
<rect x="482600" y="2451100" width="5000" height="5000" stroke="red" stroke-width="20" fill="none"/>
<text x="482600" y="2450100" font-family="Arial" font-size="3000" fill="red" font-weight="bold">R119</text>
<rect x="533400" y="2451100" width="5000" height="5000" stroke="red" stroke-width="20" fill="none"/>
<text x="533400" y="2450100" font-family="Arial" font-size="3000" fill="red" font-weight="bold">R120</text>
<rect x="825500" y="3632200" width="5000" height="5000" stroke="red" stroke-width="20" fill="none"/>
<text x="825500" y="3631200" font-family="Arial" font-size="3000" fill="red" font-weight="bold">C97</text>
<rect x="977900" y="3632200" width="5000" height="5000" stroke="red" stroke-width="20" fill="none"/>
<text x="977900" y="3631200" font-family="Arial" font-size="3000" fill="red" font-weight="bold">C99</text>
<rect x="1079500" y="3632200" width="5000" height="5000" stroke="red" stroke-width="20" fill="none"/>
<text x="1079500" y="3631200" font-family="Arial" font-size="3000" fill="red" font-weight="bold">C100</text>
<rect x="1155700" y="3632200" width="5000" height="5000" stroke="red" stroke-width="20" fill="none"/>
<text x="1155700" y="3631200" font-family="Arial" font-size="3000" fill="red" font-weight="bold">C101</text>
<rect x="1231900" y="3632200" width="5000" height="5000" stroke="red" stroke-width="20" fill="none"/>
<text x="1231900" y="3631200" font-family="Arial" font-size="3000" fill="red" font-weight="bold">C102</text>
<rect x="1308100" y="3632200" width="5000" height="5000" stroke="red" stroke-width="20" fill="none"/>
<text x="1308100" y="3631200" font-family="Arial" font-size="3000" fill="red" font-weight="bold">C103</text>
<rect x="419100" y="2616200" width="5000" height="5000" stroke="red" stroke-width="20" fill="none"/>
<text x="419100" y="2615200" font-family="Arial" font-size="3000" fill="red" font-weight="bold">C95</text>
<rect x="469900" y="2806700" width="5000" height="5000" stroke="red" stroke-width="20" fill="none"/>
<text x="469900" y="2805700" font-family="Arial" font-size="3000" fill="red" font-weight="bold">C96</text>
<rect x="1422400" y="3632200" width="5000" height="5000" stroke="red" stroke-width="20" fill="none"/>
<text x="1422400" y="3631200" font-family="Arial" font-size="3000" fill="red" font-weight="bold">C104</text>
<rect x="1498600" y="3632200" width="5000" height="5000" stroke="red" stroke-width="20" fill="none"/>
<text x="1498600" y="3631200" font-family="Arial" font-size="3000" fill="red" font-weight="bold">C105</text>
<rect x="1574800" y="3632200" width="5000" height="5000" stroke="red" stroke-width="20" fill="none"/>
<text x="1574800" y="3631200" font-family="Arial" font-size="3000" fill="red" font-weight="bold">C106</text>
<rect x="1651000" y="3632200" width="5000" height="5000" stroke="red" stroke-width="20" fill="none"/>
<text x="1651000" y="3631200" font-family="Arial" font-size="3000" fill="red" font-weight="bold">C107</text>
<rect x="1727200" y="3632200" width="5000" height="5000" stroke="red" stroke-width="20" fill="none"/>
<text x="1727200" y="3631200" font-family="Arial" font-size="3000" fill="red" font-weight="bold">C108</text>
<rect x="1803400" y="3632200" width="5000" height="5000" stroke="red" stroke-width="20" fill="none"/>
<text x="1803400" y="3631200" font-family="Arial" font-size="3000" fill="red" font-weight="bold">C109</text>
<rect x="1879600" y="3632200" width="5000" height="5000" stroke="red" stroke-width="20" fill="none"/>
<text x="1879600" y="3631200" font-family="Arial" font-size="3000" fill="red" font-weight="bold">C110</text>
<rect x="1955800" y="3632200" width="5000" height="5000" stroke="red" stroke-width="20" fill="none"/>
<text x="1955800" y="3631200" font-family="Arial" font-size="3000" fill="red" font-weight="bold">C111</text>
<rect x="2032000" y="3632200" width="5000" height="5000" stroke="red" stroke-width="20" fill="none"/>
<text x="2032000" y="3631200" font-family="Arial" font-size="3000" fill="red" font-weight="bold">C112</text>
<rect x="2108200" y="3632200" width="5000" height="5000" stroke="red" stroke-width="20" fill="none"/>
<text x="2108200" y="3631200" font-family="Arial" font-size="3000" fill="red" font-weight="bold">C113</text>
<rect x="901700" y="3632200" width="5000" height="5000" stroke="red" stroke-width="20" fill="none"/>
<text x="901700" y="3631200" font-family="Arial" font-size="3000" fill="red" font-weight="bold">C98</text>
<rect x="279400" y="1435100" width="5000" height="5000" stroke="red" stroke-width="20" fill="none"/>
<text x="279400" y="1434100" font-family="Arial" font-size="3000" fill="red" font-weight="bold">U20</text>
</svg>