<?xml version="1.0" encoding="UTF-8" standalone="no"?>
<svg xmlns="http://www.w3.org/2000/svg" version="1.1" width="17000mil" height="11000mil" viewBox="0 0 1700000 1100000">
<rect x="0" y="0" width="1700000" height="1100000" fill="white"/>
<polyline points="1803400,977900 2425700,977900" stroke="#000000" stroke-width="10" fill="none"/>
<polyline points="2857500,901700 3670300,901700" stroke="#000000" stroke-width="10" fill="none"/>
<polyline points="1612900,901700 2425700,901700" stroke="#000000" stroke-width="10" fill="none"/>
<polyline points="1612900,698500 2425700,698500" stroke="#000000" stroke-width="10" fill="none"/>
<polyline points="2857500,698500 3670300,698500" stroke="#000000" stroke-width="10" fill="none"/>
<polyline points="1612900,774700 2425700,774700" stroke="#000000" stroke-width="10" fill="none"/>
<polyline points="2857500,774700 3670300,774700" stroke="#000000" stroke-width="10" fill="none"/>
<polyline points="1612900,1003300 1727200,1003300" stroke="#000000" stroke-width="10" fill="none"/>
<polyline points="2857500,927100 3670300,927100" stroke="#000000" stroke-width="10" fill="none"/>
<polyline points="1612900,927100 2425700,927100" stroke="#000000" stroke-width="10" fill="none"/>
<polyline points="3048000,1104900 3403600,1104900" stroke="#000000" stroke-width="10" fill="none"/>
<polyline points="1612900,673100 2425700,673100" stroke="#000000" stroke-width="10" fill="none"/>
<polyline points="2857500,673100 3670300,673100" stroke="#000000" stroke-width="10" fill="none"/>
<polyline points="2857500,749300 3670300,749300" stroke="#000000" stroke-width="10" fill="none"/>
<polyline points="1612900,749300 2425700,749300" stroke="#000000" stroke-width="10" fill="none"/>
<polyline points="2806700,977900 3670300,977900" stroke="#000000" stroke-width="10" fill="none"/>
<polyline points="3111500,1054100 3670300,1054100" stroke="#000000" stroke-width="10" fill="none"/>
<polyline points="1612900,1054100 1790700,1054100" stroke="#000000" stroke-width="10" fill="none"/>
<polyline points="3213100,1079500 3670300,1079500" stroke="#000000" stroke-width="10" fill="none"/>
<polyline points="1612900,1079500 1790700,1079500" stroke="#000000" stroke-width="10" fill="none"/>
<polyline points="1612900,1155700 2362200,1155700" stroke="#000000" stroke-width="10" fill="none"/>
<polyline points="2857500,850900 3670300,850900" stroke="#000000" stroke-width="10" fill="none"/>
<polyline points="1612900,850900 2425700,850900" stroke="#000000" stroke-width="10" fill="none"/>
<polyline points="2857500,825500 3670300,825500" stroke="#000000" stroke-width="10" fill="none"/>
<polyline points="1612900,825500 2425700,825500" stroke="#000000" stroke-width="10" fill="none"/>
<polyline points="1993900,1689100 2082800,1689100" stroke="#000000" stroke-width="10" fill="none"/>
<polyline points="1612900,1612900 1714500,1612900" stroke="#000000" stroke-width="10" fill="none"/>
<polyline points="2806700,1079500 2870200,1079500" stroke="#000000" stroke-width="10" fill="none"/>
<polyline points="1612900,1231900 1727200,1231900" stroke="#000000" stroke-width="10" fill="none"/>
<polyline points="2806700,1104900 2870200,1104900" stroke="#000000" stroke-width="10" fill="none"/>
<polyline points="1612900,1587500 1714500,1587500" stroke="#000000" stroke-width="10" fill="none"/>
<polyline points="2374900,1104900 2425700,1104900" stroke="#000000" stroke-width="10" fill="none"/>
<polyline points="2374900,1079500 2425700,1079500" stroke="#000000" stroke-width="10" fill="none"/>
<polyline points="355600,1562100 393700,1562100" stroke="#000000" stroke-width="10" fill="none"/>
<polyline points="355600,1181100 393700,1181100" stroke="#000000" stroke-width="10" fill="none"/>
<polyline points="355600,1409700 393700,1409700" stroke="#000000" stroke-width="10" fill="none"/>
<polyline points="355600,1765300 393700,1765300" stroke="#000000" stroke-width="10" fill="none"/>
<polyline points="1054100,1028700 1104900,1028700" stroke="#000000" stroke-width="10" fill="none"/>
<polyline points="1054100,977900 1104900,977900" stroke="#000000" stroke-width="10" fill="none"/>
<polyline points="1054100,1079500 1104900,1079500" stroke="#000000" stroke-width="10" fill="none"/>
<polyline points="812800,1562100 1104900,1562100" stroke="#000000" stroke-width="10" fill="none"/>
<polyline points="977900,1181100 1054100,1181100" stroke="#000000" stroke-width="10" fill="none"/>
<polyline points="901700,1765300 977900,1765300" stroke="#000000" stroke-width="10" fill="none"/>
<polyline points="1054100,927100 1104900,927100" stroke="#000000" stroke-width="10" fill="none"/>
<polyline points="812800,1409700 1104900,1409700" stroke="#000000" stroke-width="10" fill="none"/>
<polyline points="774700,1790700 1358900,1790700" stroke="#000000" stroke-width="10" fill="none"/>
<polyline points="1866900,1130300 2832100,1130300" stroke="#000000" stroke-width="10" fill="none"/>
<polyline points="1193800,1435100 1384300,1435100" stroke="#000000" stroke-width="10" fill="none"/>
<polyline points="1206500,1333500 1384300,1333500" stroke="#000000" stroke-width="10" fill="none"/>
<polyline points="1206500,1079500 1384300,1079500" stroke="#000000" stroke-width="10" fill="none"/>
<polyline points="1206500,1181100 1384300,1181100" stroke="#000000" stroke-width="10" fill="none"/>
<polyline points="1866900,1079500 2832100,1079500" stroke="#000000" stroke-width="10" fill="none"/>
<polyline points="1193800,1231900 1384300,1231900" stroke="#000000" stroke-width="10" fill="none"/>
<polyline points="1206500,1282700 1384300,1282700" stroke="#000000" stroke-width="10" fill="none"/>
<polyline points="2222500,1181100 2222500,1638300" stroke="#000000" stroke-width="10" fill="none"/>
<polyline points="1079500,1663700 1181100,1663700" stroke="#000000" stroke-width="10" fill="none"/>
<polyline points="1193800,1536700 1384300,1536700" stroke="#000000" stroke-width="10" fill="none"/>
<text x="33020" y="27940" font-family="Arial" font-size="2000" fill="blue">VCC_BAR</text>
<text x="431800" y="-63500" font-family="Arial" font-size="2000" fill="blue">SDA</text>
<text x="406400" y="-63500" font-family="Arial" font-size="2000" fill="blue">SCL</text>
<text x="660400" y="-63500" font-family="Arial" font-size="2000" fill="blue">CLKS</text>
<text x="723900" y="1080930" font-family="Arial" font-size="2000" fill="blue">CONNECTOR_SIGNAL_MODEL</text>
<text x="787400" y="342900" font-family="Arial" font-size="2000" fill="blue">GND3</text>
<text x="762000" y="342900" font-family="Arial" font-size="2000" fill="blue">GND2</text>
<text x="736600" y="342900" font-family="Arial" font-size="2000" fill="blue">GND1</text>
<text x="685800" y="-63500" font-family="Arial" font-size="2000" fill="blue">VCCA</text>
<text x="812800" y="-63500" font-family="Arial" font-size="2000" fill="blue">VCC_5V</text>
<text x="736600" y="-63500" font-family="Arial" font-size="2000" fill="blue">CT_HPD</text>
<text x="711200" y="-63500" font-family="Arial" font-size="2000" fill="blue">LS_OE</text>
<text x="584200" y="342900" font-family="Arial" font-size="2000" fill="blue">HPD_B</text>
<text x="584200" y="-63500" font-family="Arial" font-size="2000" fill="blue">HPD_A</text>
<text x="482600" y="342900" font-family="Arial" font-size="2000" fill="blue">SDA_B</text>
<text x="482600" y="-63500" font-family="Arial" font-size="2000" fill="blue">SDA_A</text>
<text x="457200" y="342900" font-family="Arial" font-size="2000" fill="blue">SCL_B</text>
<text x="457200" y="-63500" font-family="Arial" font-size="2000" fill="blue">SCL_A</text>
<text x="355600" y="-63500" font-family="Arial" font-size="2000" fill="blue">CEC_A</text>
<text x="355600" y="342900" font-family="Arial" font-size="2000" fill="blue">CEC_B</text>
<text x="1270000" y="469900" font-family="Arial" font-size="2000" fill="blue">DVDD_3V</text>
<text x="863600" y="469900" font-family="Arial" font-size="2000" fill="blue">SCLK</text>
<text x="381000" y="469900" font-family="Arial" font-size="2000" fill="blue">CEC_CLK</text>
<text x="1066800" y="469900" font-family="Arial" font-size="2000" fill="blue">INT</text>
<text x="1117600" y="469900" font-family="Arial" font-size="2000" fill="blue">R_EXT</text>
<text x="355600" y="-63500" font-family="Arial" font-size="2000" fill="blue">CLK</text>
<text x="-25400" y="5080" font-family="Arial" font-size="2000" fill="blue">G</text>
<text x="-30480" y="38100" font-family="Arial" font-size="2000" fill="blue">B</text>
<text x="-5080" y="-63500" font-family="Arial" font-size="2000" fill="blue">S</text>
<text x="0" y="-50800" font-family="Arial" font-size="2000" fill="blue">A</text>
<text x="0" y="38100" font-family="Arial" font-size="2000" fill="blue">A</text>
<text x="88900" y="25400" font-family="Arial" font-size="2000" fill="blue">2</text>
<text x="-38100" y="25400" font-family="Arial" font-size="2000" fill="blue">1</text>
<text x="25400" y="88900" font-family="Arial" font-size="2000" fill="blue">K</text>
<text x="25400" y="-38100" font-family="Arial" font-size="2000" fill="blue">A</text>
<text x="25400" y="88900" font-family="Arial" font-size="2000" fill="blue">2</text>
<text x="25400" y="-38100" font-family="Arial" font-size="2000" fill="blue">1</text>
<text x="1435100" y="1193800" font-family="Arial" font-size="2000" fill="blue">P1_USB_24M_REFCLK</text>
<text x="1536700" y="1193800" font-family="Arial" font-size="2000" fill="blue">BOARD_RESET_L</text>
<text x="-58420" y="27940" font-family="Arial" font-size="2000" fill="blue">GND</text>
<text x="33020" y="27940" font-family="Arial" font-size="2000" fill="blue">VCC_BAR</text>
<text x="660400" y="-63500" font-family="Arial" font-size="2000" fill="blue">VDD18_2</text>
<text x="635000" y="-63500" font-family="Arial" font-size="2000" fill="blue">VDD18_1</text>
<text x="406400" y="444500" font-family="Arial" font-size="2000" fill="blue">SPK_L</text>
<text x="355600" y="444500" font-family="Arial" font-size="2000" fill="blue">SPK_R</text>
<text x="304800" y="-63500" font-family="Arial" font-size="2000" fill="blue">CLKOUT</text>
<text x="0" y="-50800" font-family="Arial" font-size="2000" fill="blue">A</text>
<text x="0" y="38100" font-family="Arial" font-size="2000" fill="blue">A</text>
<text x="88900" y="25400" font-family="Arial" font-size="2000" fill="blue">2</text>
<text x="-38100" y="25400" font-family="Arial" font-size="2000" fill="blue">1</text>
<text x="1206500" y="2058995" font-family="Arial" font-size="2000" fill="blue">R101</text>
<text x="1206500" y="2043740" font-family="Arial" font-size="2000" fill="blue">resistor</text>
<text x="1206500" y="2058995" font-family="Arial" font-size="2000" fill="blue">R103</text>
<text x="1206500" y="2043740" font-family="Arial" font-size="2000" fill="blue">resistor</text>
<text x="1866900" y="1970095" font-family="Arial" font-size="2000" fill="blue">R106</text>
<text x="1866900" y="1954840" font-family="Arial" font-size="2000" fill="blue">resistor</text>
<text x="1028700" y="1465485" font-family="Arial" font-size="2000" fill="blue">U1</text>
<text x="1727200" y="1135285" font-family="Arial" font-size="2000" fill="blue">C64</text>
<text x="1727200" y="1118129" font-family="Arial" font-size="2000" fill="blue">capacitor</text>
<text x="1727200" y="1236885" font-family="Arial" font-size="2000" fill="blue">C65</text>
<text x="1727200" y="1219729" font-family="Arial" font-size="2000" fill="blue">capacitor</text>
<text x="1765300" y="2189385" font-family="Arial" font-size="2000" fill="blue">C66</text>
<text x="1765300" y="2172229" font-family="Arial" font-size="2000" fill="blue">capacitor</text>
<text x="1727200" y="2227485" font-family="Arial" font-size="2000" fill="blue">C68</text>
<text x="1727200" y="2210329" font-family="Arial" font-size="2000" fill="blue">capacitor</text>
<text x="1727200" y="1287685" font-family="Arial" font-size="2000" fill="blue">C69</text>
<text x="1727200" y="1270529" font-family="Arial" font-size="2000" fill="blue">capacitor</text>
<rect x="1231900" y="952500" width="5000" height="5000" stroke="red" stroke-width="20" fill="none"/>
<text x="1231900" y="951500" font-family="Arial" font-size="3000" fill="red" font-weight="bold">C67</text>
<rect x="647700" y="3721100" width="5000" height="5000" stroke="red" stroke-width="20" fill="none"/>
<text x="647700" y="3720100" font-family="Arial" font-size="3000" fill="red" font-weight="bold">J1</text>
<rect x="584200" y="1892300" width="5000" height="5000" stroke="red" stroke-width="20" fill="none"/>
<text x="584200" y="1891300" font-family="Arial" font-size="3000" fill="red" font-weight="bold">D1</text>
<rect x="1943100" y="1816100" width="5000" height="5000" stroke="red" stroke-width="20" fill="none"/>
<text x="1943100" y="1815100" font-family="Arial" font-size="3000" fill="red" font-weight="bold">C262</text>
<rect x="1231900" y="876300" width="5000" height="5000" stroke="red" stroke-width="20" fill="none"/>
<text x="1231900" y="875300" font-family="Arial" font-size="3000" fill="red" font-weight="bold">C230</text>
<rect x="1231900" y="711200" width="5000" height="5000" stroke="red" stroke-width="20" fill="none"/>
<text x="1231900" y="710200" font-family="Arial" font-size="3000" fill="red" font-weight="bold">C231</text>
<rect x="1803400" y="876300" width="5000" height="5000" stroke="red" stroke-width="20" fill="none"/>
<text x="1803400" y="875300" font-family="Arial" font-size="3000" fill="red" font-weight="bold">C233</text>
<rect x="1803400" y="711200" width="5000" height="5000" stroke="red" stroke-width="20" fill="none"/>
<text x="1803400" y="710200" font-family="Arial" font-size="3000" fill="red" font-weight="bold">C234</text>
<rect x="1460500" y="711200" width="5000" height="5000" stroke="red" stroke-width="20" fill="none"/>
<text x="1460500" y="710200" font-family="Arial" font-size="3000" fill="red" font-weight="bold">C265</text>
<rect x="1612900" y="711200" width="5000" height="5000" stroke="red" stroke-width="20" fill="none"/>
<text x="1612900" y="710200" font-family="Arial" font-size="3000" fill="red" font-weight="bold">C266</text>
<rect x="1943100" y="1739900" width="5000" height="5000" stroke="red" stroke-width="20" fill="none"/>
<text x="1943100" y="1738900" font-family="Arial" font-size="3000" fill="red" font-weight="bold">C257</text>
<rect x="1231900" y="635000" width="5000" height="5000" stroke="red" stroke-width="20" fill="none"/>
<text x="1231900" y="634000" font-family="Arial" font-size="3000" fill="red" font-weight="bold">C232</text>
<rect x="1803400" y="635000" width="5000" height="5000" stroke="red" stroke-width="20" fill="none"/>
<text x="1803400" y="634000" font-family="Arial" font-size="3000" fill="red" font-weight="bold">C235</text>
<rect x="1612900" y="635000" width="5000" height="5000" stroke="red" stroke-width="20" fill="none"/>
<text x="1612900" y="634000" font-family="Arial" font-size="3000" fill="red" font-weight="bold">C267</text>
<rect x="1460500" y="635000" width="5000" height="5000" stroke="red" stroke-width="20" fill="none"/>
<text x="1460500" y="634000" font-family="Arial" font-size="3000" fill="red" font-weight="bold">C296</text>
<rect x="1866900" y="2070100" width="5000" height="5000" stroke="red" stroke-width="20" fill="none"/>
<text x="1866900" y="2069100" font-family="Arial" font-size="3000" fill="red" font-weight="bold">FB16</text>
<rect x="1143000" y="3086100" width="5000" height="5000" stroke="red" stroke-width="20" fill="none"/>
<text x="1143000" y="3085100" font-family="Arial" font-size="3000" fill="red" font-weight="bold">R19</text>
<rect x="1143000" y="3187700" width="5000" height="5000" stroke="red" stroke-width="20" fill="none"/>
<text x="1143000" y="3186700" font-family="Arial" font-size="3000" fill="red" font-weight="bold">R21</text>
<rect x="1651000" y="2019300" width="5000" height="5000" stroke="red" stroke-width="20" fill="none"/>
<text x="1651000" y="2018300" font-family="Arial" font-size="3000" fill="red" font-weight="bold">R22</text>
<rect x="1181100" y="3378200" width="5000" height="5000" stroke="red" stroke-width="20" fill="none"/>
<text x="1181100" y="3377200" font-family="Arial" font-size="3000" fill="red" font-weight="bold">R24</text>
<rect x="622300" y="1155700" width="5000" height="5000" stroke="red" stroke-width="20" fill="none"/>
<text x="622300" y="1154700" font-family="Arial" font-size="3000" fill="red" font-weight="bold">U26</text>
<rect x="1943100" y="1892300" width="5000" height="5000" stroke="red" stroke-width="20" fill="none"/>
<text x="1943100" y="1891300" font-family="Arial" font-size="3000" fill="red" font-weight="bold">C196</text>
<rect x="1346200" y="2171700" width="5000" height="5000" stroke="red" stroke-width="20" fill="none"/>
<text x="1346200" y="2170700" font-family="Arial" font-size="3000" fill="red" font-weight="bold">C239</text>
<rect x="1460500" y="2273300" width="5000" height="5000" stroke="red" stroke-width="20" fill="none"/>
<text x="1460500" y="2272300" font-family="Arial" font-size="3000" fill="red" font-weight="bold">C258</text>
<rect x="1193800" y="3517900" width="5000" height="5000" stroke="red" stroke-width="20" fill="none"/>
<text x="1193800" y="3516900" font-family="Arial" font-size="3000" fill="red" font-weight="bold">C289</text>
<rect x="1803400" y="787400" width="5000" height="5000" stroke="red" stroke-width="20" fill="none"/>
<text x="1803400" y="786400" font-family="Arial" font-size="3000" fill="red" font-weight="bold">C144</text>
<rect x="1803400" y="952500" width="5000" height="5000" stroke="red" stroke-width="20" fill="none"/>
<text x="1803400" y="951500" font-family="Arial" font-size="3000" fill="red" font-weight="bold">C145</text>
<rect x="1612900" y="787400" width="5000" height="5000" stroke="red" stroke-width="20" fill="none"/>
<text x="1612900" y="786400" font-family="Arial" font-size="3000" fill="red" font-weight="bold">C263</text>
<rect x="1460500" y="787400" width="5000" height="5000" stroke="red" stroke-width="20" fill="none"/>
<text x="1460500" y="786400" font-family="Arial" font-size="3000" fill="red" font-weight="bold">C264</text>
<rect x="1816100" y="1765300" width="5000" height="5000" stroke="red" stroke-width="20" fill="none"/>
<text x="1816100" y="1764300" font-family="Arial" font-size="3000" fill="red" font-weight="bold">R237</text>
<rect x="1155700" y="419100" width="5000" height="5000" stroke="red" stroke-width="20" fill="none"/>
<text x="1155700" y="418100" font-family="Arial" font-size="3000" fill="red" font-weight="bold">FB14</text>
<rect x="1739900" y="419100" width="5000" height="5000" stroke="red" stroke-width="20" fill="none"/>
<text x="1739900" y="418100" font-family="Arial" font-size="3000" fill="red" font-weight="bold">FB15</text>
<rect x="1536700" y="419100" width="5000" height="5000" stroke="red" stroke-width="20" fill="none"/>
<text x="1536700" y="418100" font-family="Arial" font-size="3000" fill="red" font-weight="bold">FB17</text>
<rect x="1384300" y="419100" width="5000" height="5000" stroke="red" stroke-width="20" fill="none"/>
<text x="1384300" y="418100" font-family="Arial" font-size="3000" fill="red" font-weight="bold">FB18</text>
<rect x="533400" y="2070100" width="5000" height="5000" stroke="red" stroke-width="20" fill="none"/>
<text x="533400" y="2069100" font-family="Arial" font-size="3000" fill="red" font-weight="bold">R225</text>
<rect x="1231900" y="787400" width="5000" height="5000" stroke="red" stroke-width="20" fill="none"/>
<text x="1231900" y="786400" font-family="Arial" font-size="3000" fill="red" font-weight="bold">C58</text>
<rect x="622300" y="2476500" width="5000" height="5000" stroke="red" stroke-width="20" fill="none"/>
<text x="622300" y="2475500" font-family="Arial" font-size="3000" fill="red" font-weight="bold">U37</text>
<rect x="1765300" y="1765300" width="5000" height="5000" stroke="red" stroke-width="20" fill="none"/>
<text x="1765300" y="1764300" font-family="Arial" font-size="3000" fill="red" font-weight="bold">R224</text>
<rect x="1206500" y="2032000" width="5000" height="5000" stroke="red" stroke-width="20" fill="none"/>
<text x="1206500" y="2031000" font-family="Arial" font-size="3000" fill="red" font-weight="bold">R101</text>
<rect x="1206500" y="2032000" width="5000" height="5000" stroke="red" stroke-width="20" fill="none"/>
<text x="1206500" y="2031000" font-family="Arial" font-size="3000" fill="red" font-weight="bold">R103</text>
<rect x="1866900" y="1943100" width="5000" height="5000" stroke="red" stroke-width="20" fill="none"/>
<text x="1866900" y="1942100" font-family="Arial" font-size="3000" fill="red" font-weight="bold">R106</text>
<rect x="1028700" y="1435100" width="5000" height="5000" stroke="red" stroke-width="20" fill="none"/>
<text x="1028700" y="1434100" font-family="Arial" font-size="3000" fill="red" font-weight="bold">U1</text>
<rect x="1727200" y="1104900" width="5000" height="5000" stroke="red" stroke-width="20" fill="none"/>
<text x="1727200" y="1103900" font-family="Arial" font-size="3000" fill="red" font-weight="bold">C64</text>
<rect x="1727200" y="1206500" width="5000" height="5000" stroke="red" stroke-width="20" fill="none"/>
<text x="1727200" y="1205500" font-family="Arial" font-size="3000" fill="red" font-weight="bold">C65</text>
<rect x="1765300" y="2159000" width="5000" height="5000" stroke="red" stroke-width="20" fill="none"/>
<text x="1765300" y="2158000" font-family="Arial" font-size="3000" fill="red" font-weight="bold">C66</text>
<rect x="1727200" y="2197100" width="5000" height="5000" stroke="red" stroke-width="20" fill="none"/>
<text x="1727200" y="2196100" font-family="Arial" font-size="3000" fill="red" font-weight="bold">C68</text>
<rect x="1727200" y="1257300" width="5000" height="5000" stroke="red" stroke-width="20" fill="none"/>
<text x="1727200" y="1256300" font-family="Arial" font-size="3000" fill="red" font-weight="bold">C69</text>
</svg>