<?xml version="1.0" encoding="UTF-8" standalone="no"?>
<svg xmlns="http://www.w3.org/2000/svg" version="1.1" width="17000mil" height="11000mil" viewBox="0 0 1700000 1100000">
<rect x="0" y="0" width="1700000" height="1100000" fill="white"/>
<polyline points="1536700,2400300 1917700,2400300" stroke="#000000" stroke-width="10" fill="none"/>
<polyline points="1536700,2349500 1917700,2349500" stroke="#000000" stroke-width="10" fill="none"/>
<polyline points="1536700,2247900 1917700,2247900" stroke="#000000" stroke-width="10" fill="none"/>
<polyline points="2273300,850900 2654300,850900" stroke="#000000" stroke-width="10" fill="none"/>
<polyline points="1536700,1790700 1917700,1790700" stroke="#000000" stroke-width="10" fill="none"/>
<polyline points="1536700,1866900 1917700,1866900" stroke="#000000" stroke-width="10" fill="none"/>
<polyline points="1536700,977900 1917700,977900" stroke="#000000" stroke-width="10" fill="none"/>
<polyline points="2273300,825500 2654300,825500" stroke="#000000" stroke-width="10" fill="none"/>
<polyline points="2273300,977900 2654300,977900" stroke="#000000" stroke-width="10" fill="none"/>
<polyline points="1536700,1104900 1917700,1104900" stroke="#000000" stroke-width="10" fill="none"/>
<polyline points="1536700,698500 1917700,698500" stroke="#000000" stroke-width="10" fill="none"/>
<polyline points="2273300,1104900 2654300,1104900" stroke="#000000" stroke-width="10" fill="none"/>
<polyline points="1536700,825500 1917700,825500" stroke="#000000" stroke-width="10" fill="none"/>
<polyline points="1536700,901700 1917700,901700" stroke="#000000" stroke-width="10" fill="none"/>
<polyline points="1536700,1028700 1917700,1028700" stroke="#000000" stroke-width="10" fill="none"/>
<polyline points="1536700,647700 1917700,647700" stroke="#000000" stroke-width="10" fill="none"/>
<polyline points="2273300,927100 2654300,927100" stroke="#000000" stroke-width="10" fill="none"/>
<polyline points="2273300,469900 2654300,469900" stroke="#000000" stroke-width="10" fill="none"/>
<polyline points="1536700,774700 1917700,774700" stroke="#000000" stroke-width="10" fill="none"/>
<polyline points="2273300,723900 2654300,723900" stroke="#000000" stroke-width="10" fill="none"/>
<polyline points="1536700,444500 1917700,444500" stroke="#000000" stroke-width="10" fill="none"/>
<polyline points="2273300,698500 2654300,698500" stroke="#000000" stroke-width="10" fill="none"/>
<polyline points="1536700,2146300 1917700,2146300" stroke="#000000" stroke-width="10" fill="none"/>
<polyline points="2273300,520700 2654300,520700" stroke="#000000" stroke-width="10" fill="none"/>
<polyline points="2273300,1054100 2654300,1054100" stroke="#000000" stroke-width="10" fill="none"/>
<polyline points="1536700,800100 1917700,800100" stroke="#000000" stroke-width="10" fill="none"/>
<polyline points="1536700,2273300 1917700,2273300" stroke="#000000" stroke-width="10" fill="none"/>
<polyline points="2273300,647700 2654300,647700" stroke="#000000" stroke-width="10" fill="none"/>
<polyline points="1536700,1054100 1917700,1054100" stroke="#000000" stroke-width="10" fill="none"/>
<polyline points="2273300,571500 2654300,571500" stroke="#000000" stroke-width="10" fill="none"/>
<polyline points="1536700,1993900 1917700,1993900" stroke="#000000" stroke-width="10" fill="none"/>
<polyline points="1536700,1079500 1917700,1079500" stroke="#000000" stroke-width="10" fill="none"/>
<polyline points="1536700,673100 1917700,673100" stroke="#000000" stroke-width="10" fill="none"/>
<polyline points="1536700,571500 1917700,571500" stroke="#000000" stroke-width="10" fill="none"/>
<polyline points="1536700,2019300 1917700,2019300" stroke="#000000" stroke-width="10" fill="none"/>
<polyline points="1536700,520700 1917700,520700" stroke="#000000" stroke-width="10" fill="none"/>
<polyline points="2273300,596900 2654300,596900" stroke="#000000" stroke-width="10" fill="none"/>
<polyline points="1536700,1968500 1917700,1968500" stroke="#000000" stroke-width="10" fill="none"/>
<polyline points="2273300,673100 2654300,673100" stroke="#000000" stroke-width="10" fill="none"/>
<polyline points="1536700,419100 1917700,419100" stroke="#000000" stroke-width="10" fill="none"/>
<polyline points="2273300,1028700 2654300,1028700" stroke="#000000" stroke-width="10" fill="none"/>
<polyline points="1536700,2044700 1917700,2044700" stroke="#000000" stroke-width="10" fill="none"/>
<polyline points="1536700,596900 1917700,596900" stroke="#000000" stroke-width="10" fill="none"/>
<polyline points="1536700,469900 1917700,469900" stroke="#000000" stroke-width="10" fill="none"/>
<polyline points="2273300,952500 2654300,952500" stroke="#000000" stroke-width="10" fill="none"/>
<polyline points="1536700,546100 1917700,546100" stroke="#000000" stroke-width="10" fill="none"/>
<polyline points="2273300,901700 2654300,901700" stroke="#000000" stroke-width="10" fill="none"/>
<polyline points="1536700,2171700 1917700,2171700" stroke="#000000" stroke-width="10" fill="none"/>
<polyline points="1536700,1739900 1917700,1739900" stroke="#000000" stroke-width="10" fill="none"/>
<polyline points="1536700,2120900 1917700,2120900" stroke="#000000" stroke-width="10" fill="none"/>
<polyline points="2273300,419100 2654300,419100" stroke="#000000" stroke-width="10" fill="none"/>
<polyline points="2273300,774700 2654300,774700" stroke="#000000" stroke-width="10" fill="none"/>
<polyline points="2273300,546100 2654300,546100" stroke="#000000" stroke-width="10" fill="none"/>
<polyline points="1536700,1714500 1917700,1714500" stroke="#000000" stroke-width="10" fill="none"/>
<polyline points="1536700,723900 1917700,723900" stroke="#000000" stroke-width="10" fill="none"/>
<polyline points="1536700,850900 1917700,850900" stroke="#000000" stroke-width="10" fill="none"/>
<polyline points="1536700,952500 1917700,952500" stroke="#000000" stroke-width="10" fill="none"/>
<polyline points="2273300,1079500 2654300,1079500" stroke="#000000" stroke-width="10" fill="none"/>
<polyline points="2273300,393700 2654300,393700" stroke="#000000" stroke-width="10" fill="none"/>
<polyline points="2273300,800100 2654300,800100" stroke="#000000" stroke-width="10" fill="none"/>
<polyline points="1536700,1892300 1917700,1892300" stroke="#000000" stroke-width="10" fill="none"/>
<polyline points="2273300,444500 2654300,444500" stroke="#000000" stroke-width="10" fill="none"/>
<polyline points="1536700,1841500 1917700,1841500" stroke="#000000" stroke-width="10" fill="none"/>
<polyline points="1536700,1765300 1917700,1765300" stroke="#000000" stroke-width="10" fill="none"/>
<polyline points="1536700,2298700 1917700,2298700" stroke="#000000" stroke-width="10" fill="none"/>
<polyline points="1676400,1536700 1765300,1536700" stroke="#000000" stroke-width="10" fill="none"/>
<polyline points="1765300,368300 1917700,368300" stroke="#000000" stroke-width="10" fill="none"/>
<polyline points="1536700,393700 1917700,393700" stroke="#000000" stroke-width="10" fill="none"/>
<polyline points="1536700,927100 1917700,927100" stroke="#000000" stroke-width="10" fill="none"/>
<polyline points="2273300,2171700 2654300,2171700" stroke="#000000" stroke-width="10" fill="none"/>
<polyline points="2273300,1917700 2654300,1917700" stroke="#000000" stroke-width="10" fill="none"/>
<polyline points="2273300,1993900 2654300,1993900" stroke="#000000" stroke-width="10" fill="none"/>
<polyline points="2273300,1790700 2654300,1790700" stroke="#000000" stroke-width="10" fill="none"/>
<polyline points="1536700,2425700 1917700,2425700" stroke="#000000" stroke-width="10" fill="none"/>
<polyline points="2273300,2120900 2654300,2120900" stroke="#000000" stroke-width="10" fill="none"/>
<polyline points="2273300,1714500 2654300,1714500" stroke="#000000" stroke-width="10" fill="none"/>
<polyline points="1536700,2374900 1917700,2374900" stroke="#000000" stroke-width="10" fill="none"/>
<polyline points="2273300,2019300 2654300,2019300" stroke="#000000" stroke-width="10" fill="none"/>
<polyline points="2273300,1968500 2654300,1968500" stroke="#000000" stroke-width="10" fill="none"/>
<polyline points="2273300,2298700 2654300,2298700" stroke="#000000" stroke-width="10" fill="none"/>
<polyline points="2273300,2273300 2654300,2273300" stroke="#000000" stroke-width="10" fill="none"/>
<polyline points="1536700,2095500 1917700,2095500" stroke="#000000" stroke-width="10" fill="none"/>
<polyline points="2273300,1866900 2654300,1866900" stroke="#000000" stroke-width="10" fill="none"/>
<polyline points="2273300,2349500 2654300,2349500" stroke="#000000" stroke-width="10" fill="none"/>
<polyline points="2273300,1739900 2654300,1739900" stroke="#000000" stroke-width="10" fill="none"/>
<polyline points="2273300,2400300 2654300,2400300" stroke="#000000" stroke-width="10" fill="none"/>
<polyline points="2273300,1841500 2654300,1841500" stroke="#000000" stroke-width="10" fill="none"/>
<polyline points="1536700,1917700 1917700,1917700" stroke="#000000" stroke-width="10" fill="none"/>
<polyline points="1536700,2222500 1917700,2222500" stroke="#000000" stroke-width="10" fill="none"/>
<polyline points="2273300,1765300 2654300,1765300" stroke="#000000" stroke-width="10" fill="none"/>
<polyline points="2273300,2247900 2654300,2247900" stroke="#000000" stroke-width="10" fill="none"/>
<polyline points="2273300,2425700 2654300,2425700" stroke="#000000" stroke-width="10" fill="none"/>
<polyline points="2273300,2095500 2654300,2095500" stroke="#000000" stroke-width="10" fill="none"/>
<polyline points="2273300,1892300 2654300,1892300" stroke="#000000" stroke-width="10" fill="none"/>
<polyline points="2273300,2146300 2654300,2146300" stroke="#000000" stroke-width="10" fill="none"/>
<polyline points="2273300,2374900 2654300,2374900" stroke="#000000" stroke-width="10" fill="none"/>
<polyline points="2273300,2044700 2654300,2044700" stroke="#000000" stroke-width="10" fill="none"/>
<polyline points="2273300,2222500 2654300,2222500" stroke="#000000" stroke-width="10" fill="none"/>
<text x="33020" y="27940" font-family="Arial" font-size="2000" fill="blue">VCC_BAR</text>
<text x="190500" y="0" font-family="Arial" font-size="2000" fill="blue">CONNECTOR_SIGNAL_MODEL</text>
<text x="-2540" y="53340" font-family="Arial" font-size="2000" fill="blue">PART_NAME</text>
<text x="-25400" y="5080" font-family="Arial" font-size="2000" fill="blue">G</text>
<text x="0" y="50800" font-family="Arial" font-size="2000" fill="blue">A</text>
<text x="0" y="-254000" font-family="Arial" font-size="2000" fill="blue">A</text>
<text x="88900" y="25400" font-family="Arial" font-size="2000" fill="blue">2</text>
<text x="-38100" y="25400" font-family="Arial" font-size="2000" fill="blue">1</text>
<text x="215900" y="1681385" font-family="Arial" font-size="2000" fill="blue">C271</text>
<text x="215900" y="1664229" font-family="Arial" font-size="2000" fill="blue">capacitor</text>
<text x="1562100" y="1681385" font-family="Arial" font-size="2000" fill="blue">C273</text>
<text x="1562100" y="1664229" font-family="Arial" font-size="2000" fill="blue">capacitor</text>
<text x="228600" y="2494185" font-family="Arial" font-size="2000" fill="blue">C270</text>
<text x="228600" y="2477029" font-family="Arial" font-size="2000" fill="blue">capacitor</text>
<text x="1562100" y="2519585" font-family="Arial" font-size="2000" fill="blue">C272</text>
<text x="1562100" y="2502429" font-family="Arial" font-size="2000" fill="blue">capacitor</text>
<text x="317500" y="1982431" font-family="Arial" font-size="2000" fill="blue">J8</text>
<text x="1638300" y="1982431" font-family="Arial" font-size="2000" fill="blue">J9</text>
<rect x="215900" y="1651000" width="5000" height="5000" stroke="red" stroke-width="20" fill="none"/>
<text x="215900" y="1650000" font-family="Arial" font-size="3000" fill="red" font-weight="bold">C271</text>
<rect x="1562100" y="1651000" width="5000" height="5000" stroke="red" stroke-width="20" fill="none"/>
<text x="1562100" y="1650000" font-family="Arial" font-size="3000" fill="red" font-weight="bold">C273</text>
<rect x="228600" y="2463800" width="5000" height="5000" stroke="red" stroke-width="20" fill="none"/>
<text x="228600" y="2462800" font-family="Arial" font-size="3000" fill="red" font-weight="bold">C270</text>
<rect x="1562100" y="2489200" width="5000" height="5000" stroke="red" stroke-width="20" fill="none"/>
<text x="1562100" y="2488200" font-family="Arial" font-size="3000" fill="red" font-weight="bold">C272</text>
<rect x="317500" y="1968500" width="5000" height="5000" stroke="red" stroke-width="20" fill="none"/>
<text x="317500" y="1967500" font-family="Arial" font-size="3000" fill="red" font-weight="bold">J8</text>
<rect x="1638300" y="1968500" width="5000" height="5000" stroke="red" stroke-width="20" fill="none"/>
<text x="1638300" y="1967500" font-family="Arial" font-size="3000" fill="red" font-weight="bold">J9</text>
</svg>