<?xml version="1.0" encoding="UTF-8" standalone="no"?>
<svg xmlns="http://www.w3.org/2000/svg" version="1.1" width="17000mil" height="11000mil" viewBox="0 0 1700000 1100000">
<rect x="0" y="0" width="1700000" height="1100000" fill="white"/>
<polyline points="1244600,1041400 1422400,1041400" stroke="#000000" stroke-width="10" fill="none"/>
<polyline points="3276600,736600 3276600,1143000" stroke="#000000" stroke-width="10" fill="none"/>
<polyline points="1244600,1651000 1422400,1651000" stroke="#000000" stroke-width="10" fill="none"/>
<polyline points="3276600,1358900 3276600,1651000" stroke="#000000" stroke-width="10" fill="none"/>
<polyline points="1054100,939800 1193800,939800" stroke="#000000" stroke-width="10" fill="none"/>
<polyline points="3644900,1143000 3644900,1257300" stroke="#000000" stroke-width="10" fill="none"/>
<polyline points="1066800,1574800 1193800,1574800" stroke="#000000" stroke-width="10" fill="none"/>
<polyline points="3644900,939800 3644900,1054100" stroke="#000000" stroke-width="10" fill="none"/>
<polyline points="1473200,825500 1841500,825500" stroke="#000000" stroke-width="10" fill="none"/>
<polyline points="2857500,774700 3225800,774700" stroke="#000000" stroke-width="10" fill="none"/>
<polyline points="1473200,1485900 1841500,1485900" stroke="#000000" stroke-width="10" fill="none"/>
<polyline points="2857500,1587500 3225800,1587500" stroke="#000000" stroke-width="10" fill="none"/>
<polyline points="1473200,1231900 1841500,1231900" stroke="#000000" stroke-width="10" fill="none"/>
<polyline points="2857500,927100 3225800,927100" stroke="#000000" stroke-width="10" fill="none"/>
<polyline points="2857500,1638300 3225800,1638300" stroke="#000000" stroke-width="10" fill="none"/>
<polyline points="1473200,774700 1841500,774700" stroke="#000000" stroke-width="10" fill="none"/>
<polyline points="1473200,571500 1841500,571500" stroke="#000000" stroke-width="10" fill="none"/>
<polyline points="1244600,1739900 1841500,1739900" stroke="#000000" stroke-width="10" fill="none"/>
<polyline points="1320800,469900 1841500,469900" stroke="#000000" stroke-width="10" fill="none"/>
<polyline points="1473200,622300 1841500,622300" stroke="#000000" stroke-width="10" fill="none"/>
<polyline points="1473200,876300 1841500,876300" stroke="#000000" stroke-width="10" fill="none"/>
<polyline points="1473200,1181100 1841500,1181100" stroke="#000000" stroke-width="10" fill="none"/>
<polyline points="2857500,1130300 3225800,1130300" stroke="#000000" stroke-width="10" fill="none"/>
<polyline points="1473200,673100 1841500,673100" stroke="#000000" stroke-width="10" fill="none"/>
<polyline points="2857500,1384300 3225800,1384300" stroke="#000000" stroke-width="10" fill="none"/>
<polyline points="1473200,927100 1841500,927100" stroke="#000000" stroke-width="10" fill="none"/>
<polyline points="2857500,876300 3225800,876300" stroke="#000000" stroke-width="10" fill="none"/>
<polyline points="1473200,1536700 1841500,1536700" stroke="#000000" stroke-width="10" fill="none"/>
<polyline points="2857500,1231900 3594100,1231900" stroke="#000000" stroke-width="10" fill="none"/>
<polyline points="1473200,1435100 1841500,1435100" stroke="#000000" stroke-width="10" fill="none"/>
<polyline points="2857500,1181100 3594100,1181100" stroke="#000000" stroke-width="10" fill="none"/>
<polyline points="2857500,1435100 3225800,1435100" stroke="#000000" stroke-width="10" fill="none"/>
<polyline points="1473200,723900 1841500,723900" stroke="#000000" stroke-width="10" fill="none"/>
<polyline points="1244600,1079500 1841500,1079500" stroke="#000000" stroke-width="10" fill="none"/>
<polyline points="2857500,1536700 3225800,1536700" stroke="#000000" stroke-width="10" fill="none"/>
<polyline points="2857500,1028700 3594100,1028700" stroke="#000000" stroke-width="10" fill="none"/>
<polyline points="1244600,1130300 1841500,1130300" stroke="#000000" stroke-width="10" fill="none"/>
<polyline points="1473200,1638300 1841500,1638300" stroke="#000000" stroke-width="10" fill="none"/>
<polyline points="1473200,1028700 1841500,1028700" stroke="#000000" stroke-width="10" fill="none"/>
<polyline points="1473200,1333500 1841500,1333500" stroke="#000000" stroke-width="10" fill="none"/>
<polyline points="2857500,1079500 3225800,1079500" stroke="#000000" stroke-width="10" fill="none"/>
<polyline points="2857500,825500 3225800,825500" stroke="#000000" stroke-width="10" fill="none"/>
<polyline points="2857500,977900 3594100,977900" stroke="#000000" stroke-width="10" fill="none"/>
<polyline points="2857500,1485900 3225800,1485900" stroke="#000000" stroke-width="10" fill="none"/>
<polyline points="1473200,1282700 1841500,1282700" stroke="#000000" stroke-width="10" fill="none"/>
<polyline points="1473200,1384300 1841500,1384300" stroke="#000000" stroke-width="10" fill="none"/>
<polyline points="1244600,1689100 1841500,1689100" stroke="#000000" stroke-width="10" fill="none"/>
<polyline points="1473200,1587500 1841500,1587500" stroke="#000000" stroke-width="10" fill="none"/>
<rect x="1219200" y="1422400" width="5000" height="5000" stroke="red" stroke-width="10" fill="none"/>
<rect x="1028700" y="1193800" width="5000" height="5000" stroke="red" stroke-width="10" fill="none"/>
<rect x="1638300" y="1193800" width="5000" height="5000" stroke="red" stroke-width="10" fill="none"/>
<rect x="0" y="0" width="5000" height="5000" stroke="red" stroke-width="10" fill="none"/>
<rect x="0" y="0" width="5000" height="5000" stroke="red" stroke-width="10" fill="none"/>
</svg>