<?xml version="1.0" encoding="UTF-8" standalone="no"?>
<svg xmlns="http://www.w3.org/2000/svg" version="1.1" width="17000mil" height="11000mil" viewBox="0 0 1700000 1100000">
<rect x="0" y="0" width="1700000" height="1100000" fill="white"/>
<polyline points="2743200,2108200 2984500,2108200" stroke="#000000" stroke-width="10" fill="none"/>
<polyline points="2743200,2082800 3111500,2082800" stroke="#000000" stroke-width="10" fill="none"/>
<polyline points="1727200,596900 1828800,596900" stroke="#000000" stroke-width="10" fill="none"/>
<polyline points="2819400,1346200 2946400,1346200" stroke="#000000" stroke-width="10" fill="none"/>
<polyline points="4076700,1168400 4076700,1206500" stroke="#000000" stroke-width="10" fill="none"/>
<polyline points="1422400,520700 1663700,520700" stroke="#000000" stroke-width="10" fill="none"/>
<polyline points="482600,1765300 723900,1765300" stroke="#000000" stroke-width="10" fill="none"/>
<polyline points="1422400,368300 1663700,368300" stroke="#000000" stroke-width="10" fill="none"/>
<polyline points="482600,2273300 723900,2273300" stroke="#000000" stroke-width="10" fill="none"/>
<polyline points="1422400,1104900 1600200,1104900" stroke="#000000" stroke-width="10" fill="none"/>
<polyline points="2603500,1663700 2844800,1663700" stroke="#000000" stroke-width="10" fill="none"/>
<polyline points="711200,596900 787400,596900" stroke="#000000" stroke-width="10" fill="none"/>
<polyline points="1422400,469900 1663700,469900" stroke="#000000" stroke-width="10" fill="none"/>
<polyline points="482600,2514600 622300,2514600" stroke="#000000" stroke-width="10" fill="none"/>
<polyline points="1422400,723900 2768600,723900" stroke="#000000" stroke-width="10" fill="none"/>
<polyline points="2616200,825500 3352800,825500" stroke="#000000" stroke-width="10" fill="none"/>
<polyline points="1422400,774700 2692400,774700" stroke="#000000" stroke-width="10" fill="none"/>
<polyline points="2463800,927100 3352800,927100" stroke="#000000" stroke-width="10" fill="none"/>
<polyline points="711200,368300 787400,368300" stroke="#000000" stroke-width="10" fill="none"/>
<polyline points="1422400,622300 2921000,622300" stroke="#000000" stroke-width="10" fill="none"/>
<polyline points="1422400,1054100 1600200,1054100" stroke="#000000" stroke-width="10" fill="none"/>
<polyline points="2603500,1765300 2844800,1765300" stroke="#000000" stroke-width="10" fill="none"/>
<polyline points="1473200,266700 1663700,266700" stroke="#000000" stroke-width="10" fill="none"/>
<polyline points="1422400,673100 2844800,673100" stroke="#000000" stroke-width="10" fill="none"/>
<polyline points="1701800,1054100 1752600,1054100" stroke="#000000" stroke-width="10" fill="none"/>
<polyline points="2438400,1206500 2501900,1206500" stroke="#000000" stroke-width="10" fill="none"/>
<polyline points="1422400,317500 1663700,317500" stroke="#000000" stroke-width="10" fill="none"/>
<polyline points="723900,1917700 723900,2019300" stroke="#000000" stroke-width="10" fill="none"/>
<polyline points="1422400,419100 1663700,419100" stroke="#000000" stroke-width="10" fill="none"/>
<polyline points="482600,2171700 723900,2171700" stroke="#000000" stroke-width="10" fill="none"/>
<polyline points="1549400,876300 2540000,876300" stroke="#000000" stroke-width="10" fill="none"/>
<polyline points="2044700,469900 2044700,520700" stroke="#000000" stroke-width="10" fill="none"/>
<polyline points="1473200,127000 1473200,165100" stroke="#000000" stroke-width="10" fill="none"/>
<polyline points="3238500,546100 3289300,546100" stroke="#000000" stroke-width="10" fill="none"/>
<polyline points="1879600,1206500 2019300,1206500" stroke="#000000" stroke-width="10" fill="none"/>
<polyline points="762000,1028700 762000,1079500" stroke="#000000" stroke-width="10" fill="none"/>
<polyline points="825500,2438400 952500,2438400" stroke="#000000" stroke-width="10" fill="none"/>
<polyline points="825500,1917700 952500,1917700" stroke="#000000" stroke-width="10" fill="none"/>
<polyline points="825500,1663700 952500,1663700" stroke="#000000" stroke-width="10" fill="none"/>
<polyline points="2946400,1663700 3073400,1663700" stroke="#000000" stroke-width="10" fill="none"/>
<polyline points="2044700,241300 2044700,317500" stroke="#000000" stroke-width="10" fill="none"/>
<polyline points="2768600,393700 2844800,393700" stroke="#000000" stroke-width="10" fill="none"/>
<rect x="0" y="0" width="5000" height="5000" stroke="red" stroke-width="10" fill="none"/>
<rect x="0" y="0" width="5000" height="5000" stroke="red" stroke-width="10" fill="none"/>
<rect x="457200" y="2921000" width="5000" height="5000" stroke="red" stroke-width="10" fill="none"/>
<rect x="0" y="50518" width="5000" height="5000" stroke="red" stroke-width="10" fill="none"/>
<rect x="0" y="50518" width="5000" height="5000" stroke="red" stroke-width="10" fill="none"/>
<rect x="0" y="50518" width="5000" height="5000" stroke="red" stroke-width="10" fill="none"/>
<rect x="0" y="0" width="5000" height="5000" stroke="red" stroke-width="10" fill="none"/>
<rect x="0" y="0" width="5000" height="5000" stroke="red" stroke-width="10" fill="none"/>
<rect x="0" y="0" width="5000" height="5000" stroke="red" stroke-width="10" fill="none"/>
<rect x="0" y="0" width="5000" height="5000" stroke="red" stroke-width="10" fill="none"/>
<rect x="0" y="0" width="5000" height="5000" stroke="red" stroke-width="10" fill="none"/>
<rect x="0" y="0" width="5000" height="5000" stroke="red" stroke-width="10" fill="none"/>
<rect x="0" y="0" width="5000" height="5000" stroke="red" stroke-width="10" fill="none"/>
<rect x="0" y="0" width="5000" height="5000" stroke="red" stroke-width="10" fill="none"/>
<rect x="0" y="0" width="5000" height="5000" stroke="red" stroke-width="10" fill="none"/>
<rect x="0" y="0" width="5000" height="5000" stroke="red" stroke-width="10" fill="none"/>
<rect x="0" y="0" width="5000" height="5000" stroke="red" stroke-width="10" fill="none"/>
<rect x="0" y="0" width="5000" height="5000" stroke="red" stroke-width="10" fill="none"/>
<rect x="0" y="0" width="5000" height="5000" stroke="red" stroke-width="10" fill="none"/>
<rect x="0" y="0" width="5000" height="5000" stroke="red" stroke-width="10" fill="none"/>
<rect x="0" y="0" width="5000" height="5000" stroke="red" stroke-width="10" fill="none"/>
<rect x="0" y="0" width="5000" height="5000" stroke="red" stroke-width="10" fill="none"/>
</svg>