<?xml version="1.0" encoding="UTF-8" standalone="no"?>
<svg xmlns="http://www.w3.org/2000/svg" version="1.1" width="17000mil" height="11000mil" viewBox="0 0 1700000 1100000">
<rect x="0" y="0" width="1700000" height="1100000" fill="white"/>
<polyline points="1244600,1041400 1422400,1041400" stroke="#000000" stroke-width="10" fill="none"/>
<polyline points="3276600,736600 3276600,1143000" stroke="#000000" stroke-width="10" fill="none"/>
<polyline points="1244600,1651000 1422400,1651000" stroke="#000000" stroke-width="10" fill="none"/>
<polyline points="3276600,1358900 3276600,1651000" stroke="#000000" stroke-width="10" fill="none"/>
<polyline points="1054100,939800 1193800,939800" stroke="#000000" stroke-width="10" fill="none"/>
<polyline points="3644900,1143000 3644900,1257300" stroke="#000000" stroke-width="10" fill="none"/>
<polyline points="1066800,1574800 1193800,1574800" stroke="#000000" stroke-width="10" fill="none"/>
<polyline points="3644900,939800 3644900,1054100" stroke="#000000" stroke-width="10" fill="none"/>
<polyline points="1473200,825500 1841500,825500" stroke="#000000" stroke-width="10" fill="none"/>
<polyline points="2857500,774700 3225800,774700" stroke="#000000" stroke-width="10" fill="none"/>
<polyline points="1473200,1485900 1841500,1485900" stroke="#000000" stroke-width="10" fill="none"/>
<polyline points="2857500,1587500 3225800,1587500" stroke="#000000" stroke-width="10" fill="none"/>
<polyline points="1473200,1231900 1841500,1231900" stroke="#000000" stroke-width="10" fill="none"/>
<polyline points="2857500,927100 3225800,927100" stroke="#000000" stroke-width="10" fill="none"/>
<polyline points="2857500,1638300 3225800,1638300" stroke="#000000" stroke-width="10" fill="none"/>
<polyline points="1473200,774700 1841500,774700" stroke="#000000" stroke-width="10" fill="none"/>
<polyline points="1473200,571500 1841500,571500" stroke="#000000" stroke-width="10" fill="none"/>
<polyline points="1244600,1739900 1841500,1739900" stroke="#000000" stroke-width="10" fill="none"/>
<polyline points="1320800,469900 1841500,469900" stroke="#000000" stroke-width="10" fill="none"/>
<polyline points="1473200,622300 1841500,622300" stroke="#000000" stroke-width="10" fill="none"/>
<polyline points="1473200,876300 1841500,876300" stroke="#000000" stroke-width="10" fill="none"/>
<polyline points="1473200,1181100 1841500,1181100" stroke="#000000" stroke-width="10" fill="none"/>
<polyline points="2857500,1130300 3225800,1130300" stroke="#000000" stroke-width="10" fill="none"/>
<polyline points="1473200,673100 1841500,673100" stroke="#000000" stroke-width="10" fill="none"/>
<polyline points="2857500,1384300 3225800,1384300" stroke="#000000" stroke-width="10" fill="none"/>
<polyline points="1473200,927100 1841500,927100" stroke="#000000" stroke-width="10" fill="none"/>
<polyline points="2857500,876300 3225800,876300" stroke="#000000" stroke-width="10" fill="none"/>
<polyline points="1473200,1536700 1841500,1536700" stroke="#000000" stroke-width="10" fill="none"/>
<polyline points="2857500,1231900 3594100,1231900" stroke="#000000" stroke-width="10" fill="none"/>
<polyline points="1473200,1435100 1841500,1435100" stroke="#000000" stroke-width="10" fill="none"/>
<polyline points="2857500,1181100 3594100,1181100" stroke="#000000" stroke-width="10" fill="none"/>
<polyline points="2857500,1435100 3225800,1435100" stroke="#000000" stroke-width="10" fill="none"/>
<polyline points="1473200,723900 1841500,723900" stroke="#000000" stroke-width="10" fill="none"/>
<polyline points="1244600,1079500 1841500,1079500" stroke="#000000" stroke-width="10" fill="none"/>
<polyline points="2857500,1536700 3225800,1536700" stroke="#000000" stroke-width="10" fill="none"/>
<polyline points="2857500,1028700 3594100,1028700" stroke="#000000" stroke-width="10" fill="none"/>
<polyline points="1244600,1130300 1841500,1130300" stroke="#000000" stroke-width="10" fill="none"/>
<polyline points="1473200,1638300 1841500,1638300" stroke="#000000" stroke-width="10" fill="none"/>
<polyline points="1473200,1028700 1841500,1028700" stroke="#000000" stroke-width="10" fill="none"/>
<polyline points="1473200,1333500 1841500,1333500" stroke="#000000" stroke-width="10" fill="none"/>
<polyline points="2857500,1079500 3225800,1079500" stroke="#000000" stroke-width="10" fill="none"/>
<polyline points="2857500,825500 3225800,825500" stroke="#000000" stroke-width="10" fill="none"/>
<polyline points="2857500,977900 3594100,977900" stroke="#000000" stroke-width="10" fill="none"/>
<polyline points="2857500,1485900 3225800,1485900" stroke="#000000" stroke-width="10" fill="none"/>
<polyline points="1473200,1282700 1841500,1282700" stroke="#000000" stroke-width="10" fill="none"/>
<polyline points="1473200,1384300 1841500,1384300" stroke="#000000" stroke-width="10" fill="none"/>
<polyline points="1244600,1689100 1841500,1689100" stroke="#000000" stroke-width="10" fill="none"/>
<polyline points="1473200,1587500 1841500,1587500" stroke="#000000" stroke-width="10" fill="none"/>
<text x="33020" y="27940" font-family="Arial" font-size="2000" fill="blue">VCC_BAR</text>
<text x="101600" y="952500" font-family="Arial" font-size="2000" fill="blue">IO_25_35</text>
<text x="1651000" y="-88900" font-family="Arial" font-size="2000" fill="blue">VCCO_35_6</text>
<text x="1625600" y="-88900" font-family="Arial" font-size="2000" fill="blue">VCCO_35_5</text>
<text x="1600200" y="-88900" font-family="Arial" font-size="2000" fill="blue">VCCO_35_4</text>
<text x="1574800" y="-88900" font-family="Arial" font-size="2000" fill="blue">VCCO_35_3</text>
<text x="1549400" y="-88900" font-family="Arial" font-size="2000" fill="blue">VCCO_35_2</text>
<text x="1524000" y="-88900" font-family="Arial" font-size="2000" fill="blue">VCCO_35_1</text>
<text x="101600" y="-88900" font-family="Arial" font-size="2000" fill="blue">IO_0_35</text>
<text x="1371600" y="952500" font-family="Arial" font-size="2000" fill="blue">IO_L24N_T3_AD15N_35</text>
<text x="1270000" y="952500" font-family="Arial" font-size="2000" fill="blue">IO_L23N_T3_35</text>
<text x="1168400" y="952500" font-family="Arial" font-size="2000" fill="blue">IO_L22N_T3_AD7N_35</text>
<text x="1066800" y="952500" font-family="Arial" font-size="2000" fill="blue">IO_L21N_T3_DQS_AD14N_35</text>
<text x="965200" y="952500" font-family="Arial" font-size="2000" fill="blue">IO_L20N_T3_AD6N_35</text>
<text x="863600" y="952500" font-family="Arial" font-size="2000" fill="blue">IO_L19N_T3_VREF_35</text>
<text x="762000" y="952500" font-family="Arial" font-size="2000" fill="blue">IO_L18N_T2_AD13N_35</text>
<text x="660400" y="952500" font-family="Arial" font-size="2000" fill="blue">IO_L17N_T2_AD5N_35</text>
<text x="558800" y="952500" font-family="Arial" font-size="2000" fill="blue">IO_L16N_T2_35</text>
<text x="457200" y="952500" font-family="Arial" font-size="2000" fill="blue">IO_L15N_T2_DQS_AD12N_35</text>
<text x="355600" y="952500" font-family="Arial" font-size="2000" fill="blue">IO_L14N_T2_AD4N_SRCC_35</text>
<text x="254000" y="952500" font-family="Arial" font-size="2000" fill="blue">IO_L13N_T2_MRCC_35</text>
<text x="1371600" y="-88900" font-family="Arial" font-size="2000" fill="blue">IO_L12N_T1_MRCC_35</text>
<text x="1270000" y="-88900" font-family="Arial" font-size="2000" fill="blue">IO_L11N_T1_SRCC_35</text>
<text x="1168400" y="-88900" font-family="Arial" font-size="2000" fill="blue">IO_L10N_T1_AD11N_35</text>
<text x="1066800" y="-88900" font-family="Arial" font-size="2000" fill="blue">IO_L9N_T1_DQS_AD3N_35</text>
<text x="965200" y="-88900" font-family="Arial" font-size="2000" fill="blue">IO_L8N_T1_AD10N_35</text>
<text x="863600" y="-88900" font-family="Arial" font-size="2000" fill="blue">IO_L7N_T1_AD2N_35</text>
<text x="762000" y="-88900" font-family="Arial" font-size="2000" fill="blue">IO_L6N_T0_VREF_35</text>
<text x="660400" y="-88900" font-family="Arial" font-size="2000" fill="blue">IO_L5N_T0_AD9N_35</text>
<text x="558800" y="-88900" font-family="Arial" font-size="2000" fill="blue">IO_L4N_T0_35</text>
<text x="457200" y="-88900" font-family="Arial" font-size="2000" fill="blue">IO_L3N_T0_DQS_AD1N_35</text>
<text x="355600" y="-88900" font-family="Arial" font-size="2000" fill="blue">IO_L2N_T0_AD8N_35</text>
<text x="254000" y="-88900" font-family="Arial" font-size="2000" fill="blue">IO_L1N_T0_AD0N_35</text>
<text x="1320800" y="952500" font-family="Arial" font-size="2000" fill="blue">IO_L24P_T3_AD15P_35</text>
<text x="1219200" y="952500" font-family="Arial" font-size="2000" fill="blue">IO_L23P_T3_35</text>
<text x="1117600" y="952500" font-family="Arial" font-size="2000" fill="blue">IO_L22P_T3_AD7P_35</text>
<text x="1016000" y="952500" font-family="Arial" font-size="2000" fill="blue">IO_L21P_T3_DQS_AD14P_35</text>
<text x="914400" y="952500" font-family="Arial" font-size="2000" fill="blue">IO_L20P_T3_AD6P_35</text>
<text x="812800" y="952500" font-family="Arial" font-size="2000" fill="blue">IO_L19P_T3_35</text>
<text x="711200" y="952500" font-family="Arial" font-size="2000" fill="blue">IO_L18P_T2_AD13P_35</text>
<text x="609600" y="952500" font-family="Arial" font-size="2000" fill="blue">IO_L17P_T2_AD5P_35</text>
<text x="508000" y="952500" font-family="Arial" font-size="2000" fill="blue">IO_L16P_T2_35</text>
<text x="406400" y="952500" font-family="Arial" font-size="2000" fill="blue">IO_L15P_T2_DQS_AD12P_35</text>
<text x="304800" y="952500" font-family="Arial" font-size="2000" fill="blue">IO_L14P_T2_AD4P_SRCC_35</text>
<text x="203200" y="952500" font-family="Arial" font-size="2000" fill="blue">IO_L13P_T2_MRCC_35</text>
<text x="1320800" y="-88900" font-family="Arial" font-size="2000" fill="blue">IO_L12P_T1_MRCC_35</text>
<text x="1219200" y="-88900" font-family="Arial" font-size="2000" fill="blue">IO_L11P_T1_SRCC_35</text>
<text x="1117600" y="-88900" font-family="Arial" font-size="2000" fill="blue">IO_L10P_T1_AD11P_35</text>
<text x="1016000" y="-88900" font-family="Arial" font-size="2000" fill="blue">IO_L9P_T1_DQS_AD3P_35</text>
<text x="914400" y="-88900" font-family="Arial" font-size="2000" fill="blue">IO_L8P_T1_AD10P_35</text>
<text x="812800" y="-88900" font-family="Arial" font-size="2000" fill="blue">IO_L7P_T1_AD2P_35</text>
<text x="711200" y="-88900" font-family="Arial" font-size="2000" fill="blue">IO_L6P_T0_35</text>
<text x="609600" y="-88900" font-family="Arial" font-size="2000" fill="blue">IO_L5P_T0_AD9P_35</text>
<text x="508000" y="-88900" font-family="Arial" font-size="2000" fill="blue">IO_L4P_T0_35</text>
<text x="406400" y="-88900" font-family="Arial" font-size="2000" fill="blue">IO_L3P_T0_DQS_AD1P_35</text>
<text x="304800" y="-88900" font-family="Arial" font-size="2000" fill="blue">IO_L2P_T0_AD8P_35</text>
<text x="203200" y="-88900" font-family="Arial" font-size="2000" fill="blue">IO_L1P_T0_AD0P_35</text>
<text x="368300" y="1917700" font-family="Arial" font-size="2000" fill="blue">CDS_LMAN_SPLIT_NUMBER</text>
<text x="-33020" y="-2540" font-family="Arial" font-size="2000" fill="blue">SPLIT_INST</text>
<text x="-25400" y="5080" font-family="Arial" font-size="2000" fill="blue">G</text>
<text x="-17780" y="-50800" font-family="Arial" font-size="2000" fill="blue">B</text>
<text x="-5080" y="38100" font-family="Arial" font-size="2000" fill="blue">S</text>
<text x="-30480" y="38100" font-family="Arial" font-size="2000" fill="blue">B</text>
<text x="-5080" y="-63500" font-family="Arial" font-size="2000" fill="blue">S</text>
<text x="0" y="-50800" font-family="Arial" font-size="2000" fill="blue">A</text>
<text x="0" y="38100" font-family="Arial" font-size="2000" fill="blue">A</text>
<text x="88900" y="25400" font-family="Arial" font-size="2000" fill="blue">2</text>
<text x="-38100" y="25400" font-family="Arial" font-size="2000" fill="blue">1</text>
<text x="571500" y="1322395" font-family="Arial" font-size="2000" fill="blue">R178</text>
<text x="571500" y="1307140" font-family="Arial" font-size="2000" fill="blue">resistor</text>
<text x="2222500" y="2633885" font-family="Arial" font-size="2000" fill="blue">C143</text>
<text x="2222500" y="2616729" font-family="Arial" font-size="2000" fill="blue">capacitor</text>
<text x="2222500" y="2329085" font-family="Arial" font-size="2000" fill="blue">C140</text>
<text x="2222500" y="2311929" font-family="Arial" font-size="2000" fill="blue">capacitor</text>
<text x="2222500" y="2430685" font-family="Arial" font-size="2000" fill="blue">C141</text>
<text x="2222500" y="2413529" font-family="Arial" font-size="2000" fill="blue">capacitor</text>
<text x="2222500" y="2532285" font-family="Arial" font-size="2000" fill="blue">C142</text>
<text x="2222500" y="2515129" font-family="Arial" font-size="2000" fill="blue">capacitor</text>
<text x="2222500" y="1821085" font-family="Arial" font-size="2000" fill="blue">C135</text>
<text x="2222500" y="1803929" font-family="Arial" font-size="2000" fill="blue">capacitor</text>
<text x="2222500" y="1922685" font-family="Arial" font-size="2000" fill="blue">C136</text>
<text x="2222500" y="1905529" font-family="Arial" font-size="2000" fill="blue">capacitor</text>
<text x="2222500" y="2024285" font-family="Arial" font-size="2000" fill="blue">C137</text>
<text x="2222500" y="2007129" font-family="Arial" font-size="2000" fill="blue">capacitor</text>
<text x="2222500" y="2125885" font-family="Arial" font-size="2000" fill="blue">C138</text>
<text x="2222500" y="2108729" font-family="Arial" font-size="2000" fill="blue">capacitor</text>
<text x="2222500" y="2227485" font-family="Arial" font-size="2000" fill="blue">C139</text>
<text x="2222500" y="2210329" font-family="Arial" font-size="2000" fill="blue">capacitor</text>
<rect x="571500" y="1295400" width="5000" height="5000" stroke="red" stroke-width="20" fill="none"/>
<text x="571500" y="1294400" font-family="Arial" font-size="3000" fill="red" font-weight="bold">R178</text>
<rect x="2222500" y="2603500" width="5000" height="5000" stroke="red" stroke-width="20" fill="none"/>
<text x="2222500" y="2602500" font-family="Arial" font-size="3000" fill="red" font-weight="bold">C143</text>
<rect x="2222500" y="2298700" width="5000" height="5000" stroke="red" stroke-width="20" fill="none"/>
<text x="2222500" y="2297700" font-family="Arial" font-size="3000" fill="red" font-weight="bold">C140</text>
<rect x="2222500" y="2400300" width="5000" height="5000" stroke="red" stroke-width="20" fill="none"/>
<text x="2222500" y="2399300" font-family="Arial" font-size="3000" fill="red" font-weight="bold">C141</text>
<rect x="2222500" y="2501900" width="5000" height="5000" stroke="red" stroke-width="20" fill="none"/>
<text x="2222500" y="2500900" font-family="Arial" font-size="3000" fill="red" font-weight="bold">C142</text>
<rect x="2222500" y="1790700" width="5000" height="5000" stroke="red" stroke-width="20" fill="none"/>
<text x="2222500" y="1789700" font-family="Arial" font-size="3000" fill="red" font-weight="bold">C135</text>
<rect x="2222500" y="1892300" width="5000" height="5000" stroke="red" stroke-width="20" fill="none"/>
<text x="2222500" y="1891300" font-family="Arial" font-size="3000" fill="red" font-weight="bold">C136</text>
<rect x="2222500" y="1993900" width="5000" height="5000" stroke="red" stroke-width="20" fill="none"/>
<text x="2222500" y="1992900" font-family="Arial" font-size="3000" fill="red" font-weight="bold">C137</text>
<rect x="2222500" y="2095500" width="5000" height="5000" stroke="red" stroke-width="20" fill="none"/>
<text x="2222500" y="2094500" font-family="Arial" font-size="3000" fill="red" font-weight="bold">C138</text>
<rect x="2222500" y="2197100" width="5000" height="5000" stroke="red" stroke-width="20" fill="none"/>
<text x="2222500" y="2196100" font-family="Arial" font-size="3000" fill="red" font-weight="bold">C139</text>
</svg>