<?xml version="1.0" encoding="UTF-8" standalone="no"?>
<svg xmlns="http://www.w3.org/2000/svg" version="1.1" width="17000mil" height="11000mil" viewBox="0 0 1700000 1100000">
<rect x="0" y="0" width="1700000" height="1100000" fill="white"/>
<polyline points="1422400,520700 1663700,520700" stroke="#000000" stroke-width="10" fill="none"/>
<polyline points="482600,1765300 723900,1765300" stroke="#000000" stroke-width="10" fill="none"/>
<polyline points="1422400,368300 1663700,368300" stroke="#000000" stroke-width="10" fill="none"/>
<polyline points="482600,2273300 723900,2273300" stroke="#000000" stroke-width="10" fill="none"/>
<polyline points="1422400,1104900 1600200,1104900" stroke="#000000" stroke-width="10" fill="none"/>
<polyline points="2603500,1663700 2844800,1663700" stroke="#000000" stroke-width="10" fill="none"/>
<polyline points="711200,596900 787400,596900" stroke="#000000" stroke-width="10" fill="none"/>
<polyline points="1422400,469900 1663700,469900" stroke="#000000" stroke-width="10" fill="none"/>
<polyline points="482600,2514600 622300,2514600" stroke="#000000" stroke-width="10" fill="none"/>
<polyline points="1422400,723900 2768600,723900" stroke="#000000" stroke-width="10" fill="none"/>
<polyline points="2616200,825500 3352800,825500" stroke="#000000" stroke-width="10" fill="none"/>
<polyline points="1422400,774700 2692400,774700" stroke="#000000" stroke-width="10" fill="none"/>
<polyline points="2463800,927100 3352800,927100" stroke="#000000" stroke-width="10" fill="none"/>
<polyline points="711200,368300 787400,368300" stroke="#000000" stroke-width="10" fill="none"/>
<polyline points="1422400,622300 2921000,622300" stroke="#000000" stroke-width="10" fill="none"/>
<polyline points="1422400,1054100 1600200,1054100" stroke="#000000" stroke-width="10" fill="none"/>
<polyline points="2603500,1765300 2844800,1765300" stroke="#000000" stroke-width="10" fill="none"/>
<polyline points="1473200,266700 1663700,266700" stroke="#000000" stroke-width="10" fill="none"/>
<polyline points="1422400,673100 2844800,673100" stroke="#000000" stroke-width="10" fill="none"/>
<polyline points="1701800,1054100 1752600,1054100" stroke="#000000" stroke-width="10" fill="none"/>
<polyline points="2438400,1206500 2501900,1206500" stroke="#000000" stroke-width="10" fill="none"/>
<polyline points="1422400,317500 1663700,317500" stroke="#000000" stroke-width="10" fill="none"/>
<polyline points="723900,1917700 723900,2019300" stroke="#000000" stroke-width="10" fill="none"/>
<polyline points="1422400,419100 1663700,419100" stroke="#000000" stroke-width="10" fill="none"/>
<polyline points="482600,2171700 723900,2171700" stroke="#000000" stroke-width="10" fill="none"/>
<polyline points="1549400,876300 2540000,876300" stroke="#000000" stroke-width="10" fill="none"/>
<polyline points="2044700,469900 2044700,520700" stroke="#000000" stroke-width="10" fill="none"/>
<polyline points="1473200,127000 1473200,165100" stroke="#000000" stroke-width="10" fill="none"/>
<polyline points="3238500,546100 3289300,546100" stroke="#000000" stroke-width="10" fill="none"/>
<polyline points="1879600,1206500 2019300,1206500" stroke="#000000" stroke-width="10" fill="none"/>
<polyline points="762000,1028700 762000,1079500" stroke="#000000" stroke-width="10" fill="none"/>
<polyline points="825500,2438400 952500,2438400" stroke="#000000" stroke-width="10" fill="none"/>
<polyline points="825500,1917700 952500,1917700" stroke="#000000" stroke-width="10" fill="none"/>
<polyline points="825500,1663700 952500,1663700" stroke="#000000" stroke-width="10" fill="none"/>
<polyline points="2946400,1663700 3073400,1663700" stroke="#000000" stroke-width="10" fill="none"/>
<polyline points="2044700,241300 2044700,317500" stroke="#000000" stroke-width="10" fill="none"/>
<polyline points="2768600,393700 2844800,393700" stroke="#000000" stroke-width="10" fill="none"/>
<text x="1064260" y="2588260" font-family="Arial" font-size="2000" fill="blue">SIG_NAME</text>
<text x="33020" y="27940" font-family="Arial" font-size="2000" fill="blue">VCC_BAR</text>
<text x="246380" y="12700" font-family="Arial" font-size="2000" fill="blue">CONNECTOR_SIGNAL_MODEL</text>
<text x="863600" y="-63500" font-family="Arial" font-size="2000" fill="blue">VCCO_MIO0_2</text>
<text x="812800" y="-63500" font-family="Arial" font-size="2000" fill="blue">VCCO_MIO0_1</text>
<text x="558800" y="596900" font-family="Arial" font-size="2000" fill="blue">PS_MIO15</text>
<text x="508000" y="596900" font-family="Arial" font-size="2000" fill="blue">PS_MIO14</text>
<text x="457200" y="596900" font-family="Arial" font-size="2000" fill="blue">PS_MIO13</text>
<text x="660400" y="596900" font-family="Arial" font-size="2000" fill="blue">PS_MIO12</text>
<text x="609600" y="596900" font-family="Arial" font-size="2000" fill="blue">PS_MIO11</text>
<text x="406400" y="596900" font-family="Arial" font-size="2000" fill="blue">PS_MIO10</text>
<text x="939800" y="596900" font-family="Arial" font-size="2000" fill="blue">PS_MIO9</text>
<text x="889000" y="596900" font-family="Arial" font-size="2000" fill="blue">PS_MIO8</text>
<text x="838200" y="596900" font-family="Arial" font-size="2000" fill="blue">PS_MIO7</text>
<text x="304800" y="596900" font-family="Arial" font-size="2000" fill="blue">PS_MIO6</text>
<text x="254000" y="596900" font-family="Arial" font-size="2000" fill="blue">PS_MIO5</text>
<text x="203200" y="596900" font-family="Arial" font-size="2000" fill="blue">PS_MIO4</text>
<text x="152400" y="596900" font-family="Arial" font-size="2000" fill="blue">PS_MIO3</text>
<text x="101600" y="596900" font-family="Arial" font-size="2000" fill="blue">PS_MIO2</text>
<text x="50800" y="596900" font-family="Arial" font-size="2000" fill="blue">PS_MIO1</text>
<text x="711200" y="596900" font-family="Arial" font-size="2000" fill="blue">PS_MIO0</text>
<text x="381000" y="-63500" font-family="Arial" font-size="2000" fill="blue">PS_POR_B</text>
<text x="152400" y="-63500" font-family="Arial" font-size="2000" fill="blue">PS_CLK</text>
<text x="215900" y="838200" font-family="Arial" font-size="2000" fill="blue">CDS_LMAN_SPLIT_NUMBER</text>
<text x="-27940" y="0" font-family="Arial" font-size="2000" fill="blue">SPLIT_INST</text>
<text x="152400" y="-63500" font-family="Arial" font-size="2000" fill="blue">VCC</text>
<text x="149860" y="48260" font-family="Arial" font-size="2000" fill="blue">PIN_TEXT</text>
<text x="152400" y="190500" font-family="Arial" font-size="2000" fill="blue">GND</text>
<text x="50800" y="317500" font-family="Arial" font-size="2000" fill="blue">S_N</text>
<text x="152400" y="317500" font-family="Arial" font-size="2000" fill="blue">DO_DQ1</text>
<text x="101600" y="317500" font-family="Arial" font-size="2000" fill="blue">DI_DQ0</text>
<text x="457200" y="469900" font-family="Arial" font-size="2000" fill="blue">GNDTAB6</text>
<text x="431800" y="469900" font-family="Arial" font-size="2000" fill="blue">GNDTAB5</text>
<text x="406400" y="469900" font-family="Arial" font-size="2000" fill="blue">GNDTAB4</text>
<text x="381000" y="469900" font-family="Arial" font-size="2000" fill="blue">GNDTAB3</text>
<text x="355600" y="469900" font-family="Arial" font-size="2000" fill="blue">GNDTAB2</text>
<text x="330200" y="469900" font-family="Arial" font-size="2000" fill="blue">GNDTAB1</text>
<text x="355600" y="-63500" font-family="Arial" font-size="2000" fill="blue">CLK</text>
<text x="254000" y="-63500" font-family="Arial" font-size="2000" fill="blue">CD_DAT3</text>
<text x="-25400" y="5080" font-family="Arial" font-size="2000" fill="blue">G</text>
<text x="0" y="-50800" font-family="Arial" font-size="2000" fill="blue">A</text>
<text x="0" y="50800" font-family="Arial" font-size="2000" fill="blue">A</text>
<text x="0" y="38100" font-family="Arial" font-size="2000" fill="blue">A</text>
<text x="88900" y="25400" font-family="Arial" font-size="2000" fill="blue">2</text>
<text x="-38100" y="25400" font-family="Arial" font-size="2000" fill="blue">1</text>
<text x="127000" y="114300" font-family="Arial" font-size="2000" fill="blue">3</text>
<text x="76200" y="114300" font-family="Arial" font-size="2000" fill="blue">2</text>
<text x="25400" y="114300" font-family="Arial" font-size="2000" fill="blue">1</text>
<text x="304800" y="317500" font-family="Arial" font-size="2000" fill="blue">C</text>
<text x="2540000" y="776295" font-family="Arial" font-size="2000" fill="blue">R97</text>
<text x="2540000" y="761040" font-family="Arial" font-size="2000" fill="blue">resistor</text>
<text x="2565400" y="827095" font-family="Arial" font-size="2000" fill="blue">R76</text>
<text x="2565400" y="811840" font-family="Arial" font-size="2000" fill="blue">resistor</text>
<text x="1079500" y="1652595" font-family="Arial" font-size="2000" fill="blue">R334</text>
<text x="1079500" y="1637340" font-family="Arial" font-size="2000" fill="blue">resistor</text>
<text x="1130300" y="1652595" font-family="Arial" font-size="2000" fill="blue">R75</text>
<text x="1130300" y="1637340" font-family="Arial" font-size="2000" fill="blue">resistor</text>
<text x="1244600" y="2351095" font-family="Arial" font-size="2000" fill="blue">R40</text>
<text x="1244600" y="2335840" font-family="Arial" font-size="2000" fill="blue">resistor</text>
<text x="533400" y="2465395" font-family="Arial" font-size="2000" fill="blue">R38</text>
<text x="533400" y="2450140" font-family="Arial" font-size="2000" fill="blue">resistor</text>
<text x="533400" y="2541595" font-family="Arial" font-size="2000" fill="blue">R33</text>
<text x="533400" y="2526340" font-family="Arial" font-size="2000" fill="blue">resistor</text>
<text x="533400" y="2617795" font-family="Arial" font-size="2000" fill="blue">R39</text>
<text x="533400" y="2602540" font-family="Arial" font-size="2000" fill="blue">resistor</text>
<text x="533400" y="2693995" font-family="Arial" font-size="2000" fill="blue">R34</text>
<text x="533400" y="2678740" font-family="Arial" font-size="2000" fill="blue">resistor</text>
<text x="533400" y="2770195" font-family="Arial" font-size="2000" fill="blue">R35</text>
<text x="533400" y="2754940" font-family="Arial" font-size="2000" fill="blue">resistor</text>
<text x="533400" y="2846395" font-family="Arial" font-size="2000" fill="blue">R36</text>
<text x="533400" y="2831140" font-family="Arial" font-size="2000" fill="blue">resistor</text>
<text x="533400" y="2922595" font-family="Arial" font-size="2000" fill="blue">R37</text>
<text x="533400" y="2907340" font-family="Arial" font-size="2000" fill="blue">resistor</text>
<text x="190500" y="1474795" font-family="Arial" font-size="2000" fill="blue">R28</text>
<text x="190500" y="1459540" font-family="Arial" font-size="2000" fill="blue">resistor</text>
<text x="901700" y="1500195" font-family="Arial" font-size="2000" fill="blue">R32</text>
<text x="901700" y="1484940" font-family="Arial" font-size="2000" fill="blue">resistor</text>
<text x="1689100" y="776295" font-family="Arial" font-size="2000" fill="blue">R46</text>
<text x="1689100" y="761040" font-family="Arial" font-size="2000" fill="blue">resistor</text>
<text x="1790700" y="776295" font-family="Arial" font-size="2000" fill="blue">R47</text>
<text x="1790700" y="761040" font-family="Arial" font-size="2000" fill="blue">resistor</text>
<text x="1943100" y="776295" font-family="Arial" font-size="2000" fill="blue">R48</text>
<text x="1943100" y="761040" font-family="Arial" font-size="2000" fill="blue">resistor</text>
<text x="2044700" y="776295" font-family="Arial" font-size="2000" fill="blue">R49</text>
<text x="2044700" y="761040" font-family="Arial" font-size="2000" fill="blue">resistor</text>
<text x="2197100" y="827095" font-family="Arial" font-size="2000" fill="blue">R50</text>
<text x="2197100" y="811840" font-family="Arial" font-size="2000" fill="blue">resistor</text>
<text x="2298700" y="827095" font-family="Arial" font-size="2000" fill="blue">R51</text>
<text x="2298700" y="811840" font-family="Arial" font-size="2000" fill="blue">resistor</text>
<text x="2413000" y="827095" font-family="Arial" font-size="2000" fill="blue">R52</text>
<text x="2413000" y="811840" font-family="Arial" font-size="2000" fill="blue">resistor</text>
<text x="1689100" y="2947995" font-family="Arial" font-size="2000" fill="blue">R43</text>
<text x="1689100" y="2932740" font-family="Arial" font-size="2000" fill="blue">resistor</text>
<text x="1790700" y="2947995" font-family="Arial" font-size="2000" fill="blue">R45</text>
<text x="1790700" y="2932740" font-family="Arial" font-size="2000" fill="blue">resistor</text>
<text x="215900" y="1985367" font-family="Arial" font-size="2000" fill="blue">U7</text>
<text x="520700" y="3417531" font-family="Arial" font-size="2000" fill="blue">J3</text>
<text x="1054100" y="2086967" font-family="Arial" font-size="2000" fill="blue">U5</text>
<text x="1143000" y="385985" font-family="Arial" font-size="2000" fill="blue">C12</text>
<text x="1143000" y="368829" font-family="Arial" font-size="2000" fill="blue">capacitor</text>
<text x="1143000" y="487585" font-family="Arial" font-size="2000" fill="blue">C13</text>
<text x="1143000" y="470429" font-family="Arial" font-size="2000" fill="blue">capacitor</text>
<text x="1143000" y="589185" font-family="Arial" font-size="2000" fill="blue">C14</text>
<text x="1143000" y="572029" font-family="Arial" font-size="2000" fill="blue">capacitor</text>
<text x="1143000" y="690785" font-family="Arial" font-size="2000" fill="blue">C15</text>
<text x="1143000" y="673629" font-family="Arial" font-size="2000" fill="blue">capacitor</text>
<text x="1295400" y="1884585" font-family="Arial" font-size="2000" fill="blue">C7</text>
<text x="1295400" y="1867429" font-family="Arial" font-size="2000" fill="blue">capacitor</text>
<text x="406400" y="2100485" font-family="Arial" font-size="2000" fill="blue">C10</text>
<text x="406400" y="2083329" font-family="Arial" font-size="2000" fill="blue">capacitor</text>
<text x="520700" y="3192685" font-family="Arial" font-size="2000" fill="blue">C11</text>
<text x="520700" y="3175529" font-family="Arial" font-size="2000" fill="blue">capacitor</text>
<text x="1079500" y="3049231" font-family="Arial" font-size="2000" fill="blue">J2</text>
<rect x="2540000" y="749300" width="5000" height="5000" stroke="red" stroke-width="20" fill="none"/>
<text x="2540000" y="748300" font-family="Arial" font-size="3000" fill="red" font-weight="bold">R97</text>
<rect x="2565400" y="800100" width="5000" height="5000" stroke="red" stroke-width="20" fill="none"/>
<text x="2565400" y="799100" font-family="Arial" font-size="3000" fill="red" font-weight="bold">R76</text>
<rect x="1079500" y="1625600" width="5000" height="5000" stroke="red" stroke-width="20" fill="none"/>
<text x="1079500" y="1624600" font-family="Arial" font-size="3000" fill="red" font-weight="bold">R334</text>
<rect x="1130300" y="1625600" width="5000" height="5000" stroke="red" stroke-width="20" fill="none"/>
<text x="1130300" y="1624600" font-family="Arial" font-size="3000" fill="red" font-weight="bold">R75</text>
<rect x="1244600" y="2324100" width="5000" height="5000" stroke="red" stroke-width="20" fill="none"/>
<text x="1244600" y="2323100" font-family="Arial" font-size="3000" fill="red" font-weight="bold">R40</text>
<rect x="533400" y="2438400" width="5000" height="5000" stroke="red" stroke-width="20" fill="none"/>
<text x="533400" y="2437400" font-family="Arial" font-size="3000" fill="red" font-weight="bold">R38</text>
<rect x="533400" y="2514600" width="5000" height="5000" stroke="red" stroke-width="20" fill="none"/>
<text x="533400" y="2513600" font-family="Arial" font-size="3000" fill="red" font-weight="bold">R33</text>
<rect x="533400" y="2590800" width="5000" height="5000" stroke="red" stroke-width="20" fill="none"/>
<text x="533400" y="2589800" font-family="Arial" font-size="3000" fill="red" font-weight="bold">R39</text>
<rect x="533400" y="2667000" width="5000" height="5000" stroke="red" stroke-width="20" fill="none"/>
<text x="533400" y="2666000" font-family="Arial" font-size="3000" fill="red" font-weight="bold">R34</text>
<rect x="533400" y="2743200" width="5000" height="5000" stroke="red" stroke-width="20" fill="none"/>
<text x="533400" y="2742200" font-family="Arial" font-size="3000" fill="red" font-weight="bold">R35</text>
<rect x="533400" y="2819400" width="5000" height="5000" stroke="red" stroke-width="20" fill="none"/>
<text x="533400" y="2818400" font-family="Arial" font-size="3000" fill="red" font-weight="bold">R36</text>
<rect x="533400" y="2895600" width="5000" height="5000" stroke="red" stroke-width="20" fill="none"/>
<text x="533400" y="2894600" font-family="Arial" font-size="3000" fill="red" font-weight="bold">R37</text>
<rect x="190500" y="1447800" width="5000" height="5000" stroke="red" stroke-width="20" fill="none"/>
<text x="190500" y="1446800" font-family="Arial" font-size="3000" fill="red" font-weight="bold">R28</text>
<rect x="901700" y="1473200" width="5000" height="5000" stroke="red" stroke-width="20" fill="none"/>
<text x="901700" y="1472200" font-family="Arial" font-size="3000" fill="red" font-weight="bold">R32</text>
<rect x="1689100" y="749300" width="5000" height="5000" stroke="red" stroke-width="20" fill="none"/>
<text x="1689100" y="748300" font-family="Arial" font-size="3000" fill="red" font-weight="bold">R46</text>
<rect x="1790700" y="749300" width="5000" height="5000" stroke="red" stroke-width="20" fill="none"/>
<text x="1790700" y="748300" font-family="Arial" font-size="3000" fill="red" font-weight="bold">R47</text>
<rect x="1943100" y="749300" width="5000" height="5000" stroke="red" stroke-width="20" fill="none"/>
<text x="1943100" y="748300" font-family="Arial" font-size="3000" fill="red" font-weight="bold">R48</text>
<rect x="2044700" y="749300" width="5000" height="5000" stroke="red" stroke-width="20" fill="none"/>
<text x="2044700" y="748300" font-family="Arial" font-size="3000" fill="red" font-weight="bold">R49</text>
<rect x="2197100" y="800100" width="5000" height="5000" stroke="red" stroke-width="20" fill="none"/>
<text x="2197100" y="799100" font-family="Arial" font-size="3000" fill="red" font-weight="bold">R50</text>
<rect x="2298700" y="800100" width="5000" height="5000" stroke="red" stroke-width="20" fill="none"/>
<text x="2298700" y="799100" font-family="Arial" font-size="3000" fill="red" font-weight="bold">R51</text>
<rect x="2413000" y="800100" width="5000" height="5000" stroke="red" stroke-width="20" fill="none"/>
<text x="2413000" y="799100" font-family="Arial" font-size="3000" fill="red" font-weight="bold">R52</text>
<rect x="1689100" y="2921000" width="5000" height="5000" stroke="red" stroke-width="20" fill="none"/>
<text x="1689100" y="2920000" font-family="Arial" font-size="3000" fill="red" font-weight="bold">R43</text>
<rect x="1790700" y="2921000" width="5000" height="5000" stroke="red" stroke-width="20" fill="none"/>
<text x="1790700" y="2920000" font-family="Arial" font-size="3000" fill="red" font-weight="bold">R45</text>
<rect x="215900" y="1968500" width="5000" height="5000" stroke="red" stroke-width="20" fill="none"/>
<text x="215900" y="1967500" font-family="Arial" font-size="3000" fill="red" font-weight="bold">U7</text>
<rect x="520700" y="3403600" width="5000" height="5000" stroke="red" stroke-width="20" fill="none"/>
<text x="520700" y="3402600" font-family="Arial" font-size="3000" fill="red" font-weight="bold">J3</text>
<rect x="1054100" y="2070100" width="5000" height="5000" stroke="red" stroke-width="20" fill="none"/>
<text x="1054100" y="2069100" font-family="Arial" font-size="3000" fill="red" font-weight="bold">U5</text>
<rect x="1143000" y="355600" width="5000" height="5000" stroke="red" stroke-width="20" fill="none"/>
<text x="1143000" y="354600" font-family="Arial" font-size="3000" fill="red" font-weight="bold">C12</text>
<rect x="1143000" y="457200" width="5000" height="5000" stroke="red" stroke-width="20" fill="none"/>
<text x="1143000" y="456200" font-family="Arial" font-size="3000" fill="red" font-weight="bold">C13</text>
<rect x="1143000" y="558800" width="5000" height="5000" stroke="red" stroke-width="20" fill="none"/>
<text x="1143000" y="557800" font-family="Arial" font-size="3000" fill="red" font-weight="bold">C14</text>
<rect x="1143000" y="660400" width="5000" height="5000" stroke="red" stroke-width="20" fill="none"/>
<text x="1143000" y="659400" font-family="Arial" font-size="3000" fill="red" font-weight="bold">C15</text>
<rect x="1295400" y="1854200" width="5000" height="5000" stroke="red" stroke-width="20" fill="none"/>
<text x="1295400" y="1853200" font-family="Arial" font-size="3000" fill="red" font-weight="bold">C7</text>
<rect x="406400" y="2070100" width="5000" height="5000" stroke="red" stroke-width="20" fill="none"/>
<text x="406400" y="2069100" font-family="Arial" font-size="3000" fill="red" font-weight="bold">C10</text>
<rect x="520700" y="3162300" width="5000" height="5000" stroke="red" stroke-width="20" fill="none"/>
<text x="520700" y="3161300" font-family="Arial" font-size="3000" fill="red" font-weight="bold">C11</text>
<rect x="1079500" y="3035300" width="5000" height="5000" stroke="red" stroke-width="20" fill="none"/>
<text x="1079500" y="3034300" font-family="Arial" font-size="3000" fill="red" font-weight="bold">J2</text>
</svg>