<?xml version="1.0" encoding="UTF-8" standalone="no"?>
<svg xmlns="http://www.w3.org/2000/svg" version="1.1" width="17000mil" height="11000mil" viewBox="0 0 1700000 1100000">
<rect x="0" y="0" width="1700000" height="1100000" fill="white"/>
<polyline points="1536700,2400300 1917700,2400300" stroke="#000000" stroke-width="10" fill="none"/>
<polyline points="1536700,2349500 1917700,2349500" stroke="#000000" stroke-width="10" fill="none"/>
<polyline points="1536700,2247900 1917700,2247900" stroke="#000000" stroke-width="10" fill="none"/>
<polyline points="2273300,850900 2654300,850900" stroke="#000000" stroke-width="10" fill="none"/>
<polyline points="1536700,1790700 1917700,1790700" stroke="#000000" stroke-width="10" fill="none"/>
<polyline points="1536700,1866900 1917700,1866900" stroke="#000000" stroke-width="10" fill="none"/>
<polyline points="1536700,977900 1917700,977900" stroke="#000000" stroke-width="10" fill="none"/>
<polyline points="2273300,825500 2654300,825500" stroke="#000000" stroke-width="10" fill="none"/>
<polyline points="2273300,977900 2654300,977900" stroke="#000000" stroke-width="10" fill="none"/>
<polyline points="1536700,1104900 1917700,1104900" stroke="#000000" stroke-width="10" fill="none"/>
<polyline points="1536700,698500 1917700,698500" stroke="#000000" stroke-width="10" fill="none"/>
<polyline points="2273300,1104900 2654300,1104900" stroke="#000000" stroke-width="10" fill="none"/>
<polyline points="1536700,825500 1917700,825500" stroke="#000000" stroke-width="10" fill="none"/>
<polyline points="1536700,901700 1917700,901700" stroke="#000000" stroke-width="10" fill="none"/>
<polyline points="1536700,1028700 1917700,1028700" stroke="#000000" stroke-width="10" fill="none"/>
<polyline points="1536700,647700 1917700,647700" stroke="#000000" stroke-width="10" fill="none"/>
<polyline points="2273300,927100 2654300,927100" stroke="#000000" stroke-width="10" fill="none"/>
<polyline points="2273300,469900 2654300,469900" stroke="#000000" stroke-width="10" fill="none"/>
<polyline points="1536700,774700 1917700,774700" stroke="#000000" stroke-width="10" fill="none"/>
<polyline points="2273300,723900 2654300,723900" stroke="#000000" stroke-width="10" fill="none"/>
<polyline points="1536700,444500 1917700,444500" stroke="#000000" stroke-width="10" fill="none"/>
<polyline points="2273300,698500 2654300,698500" stroke="#000000" stroke-width="10" fill="none"/>
<polyline points="1536700,2146300 1917700,2146300" stroke="#000000" stroke-width="10" fill="none"/>
<polyline points="2273300,520700 2654300,520700" stroke="#000000" stroke-width="10" fill="none"/>
<polyline points="2273300,1054100 2654300,1054100" stroke="#000000" stroke-width="10" fill="none"/>
<polyline points="1536700,800100 1917700,800100" stroke="#000000" stroke-width="10" fill="none"/>
<polyline points="1536700,2273300 1917700,2273300" stroke="#000000" stroke-width="10" fill="none"/>
<polyline points="2273300,647700 2654300,647700" stroke="#000000" stroke-width="10" fill="none"/>
<polyline points="1536700,1054100 1917700,1054100" stroke="#000000" stroke-width="10" fill="none"/>
<polyline points="2273300,571500 2654300,571500" stroke="#000000" stroke-width="10" fill="none"/>
<polyline points="1536700,1993900 1917700,1993900" stroke="#000000" stroke-width="10" fill="none"/>
<polyline points="1536700,1079500 1917700,1079500" stroke="#000000" stroke-width="10" fill="none"/>
<polyline points="1536700,673100 1917700,673100" stroke="#000000" stroke-width="10" fill="none"/>
<polyline points="1536700,571500 1917700,571500" stroke="#000000" stroke-width="10" fill="none"/>
<polyline points="1536700,2019300 1917700,2019300" stroke="#000000" stroke-width="10" fill="none"/>
<polyline points="1536700,520700 1917700,520700" stroke="#000000" stroke-width="10" fill="none"/>
<polyline points="2273300,596900 2654300,596900" stroke="#000000" stroke-width="10" fill="none"/>
<polyline points="1536700,1968500 1917700,1968500" stroke="#000000" stroke-width="10" fill="none"/>
<polyline points="2273300,673100 2654300,673100" stroke="#000000" stroke-width="10" fill="none"/>
<polyline points="1536700,419100 1917700,419100" stroke="#000000" stroke-width="10" fill="none"/>
<polyline points="2273300,1028700 2654300,1028700" stroke="#000000" stroke-width="10" fill="none"/>
<polyline points="1536700,2044700 1917700,2044700" stroke="#000000" stroke-width="10" fill="none"/>
<polyline points="1536700,596900 1917700,596900" stroke="#000000" stroke-width="10" fill="none"/>
<polyline points="1536700,469900 1917700,469900" stroke="#000000" stroke-width="10" fill="none"/>
<polyline points="2273300,952500 2654300,952500" stroke="#000000" stroke-width="10" fill="none"/>
<polyline points="1536700,546100 1917700,546100" stroke="#000000" stroke-width="10" fill="none"/>
<polyline points="2273300,901700 2654300,901700" stroke="#000000" stroke-width="10" fill="none"/>
<polyline points="1536700,2171700 1917700,2171700" stroke="#000000" stroke-width="10" fill="none"/>
<polyline points="1536700,1739900 1917700,1739900" stroke="#000000" stroke-width="10" fill="none"/>
<polyline points="1536700,2120900 1917700,2120900" stroke="#000000" stroke-width="10" fill="none"/>
<polyline points="2273300,419100 2654300,419100" stroke="#000000" stroke-width="10" fill="none"/>
<polyline points="2273300,774700 2654300,774700" stroke="#000000" stroke-width="10" fill="none"/>
<polyline points="2273300,546100 2654300,546100" stroke="#000000" stroke-width="10" fill="none"/>
<polyline points="1536700,1714500 1917700,1714500" stroke="#000000" stroke-width="10" fill="none"/>
<polyline points="1536700,723900 1917700,723900" stroke="#000000" stroke-width="10" fill="none"/>
<polyline points="1536700,850900 1917700,850900" stroke="#000000" stroke-width="10" fill="none"/>
<polyline points="1536700,952500 1917700,952500" stroke="#000000" stroke-width="10" fill="none"/>
<polyline points="2273300,1079500 2654300,1079500" stroke="#000000" stroke-width="10" fill="none"/>
<polyline points="2273300,393700 2654300,393700" stroke="#000000" stroke-width="10" fill="none"/>
<polyline points="2273300,800100 2654300,800100" stroke="#000000" stroke-width="10" fill="none"/>
<polyline points="1536700,1892300 1917700,1892300" stroke="#000000" stroke-width="10" fill="none"/>
<polyline points="2273300,444500 2654300,444500" stroke="#000000" stroke-width="10" fill="none"/>
<polyline points="1536700,1841500 1917700,1841500" stroke="#000000" stroke-width="10" fill="none"/>
<polyline points="1536700,1765300 1917700,1765300" stroke="#000000" stroke-width="10" fill="none"/>
<polyline points="1536700,2298700 1917700,2298700" stroke="#000000" stroke-width="10" fill="none"/>
<polyline points="1676400,1536700 1765300,1536700" stroke="#000000" stroke-width="10" fill="none"/>
<polyline points="1765300,368300 1917700,368300" stroke="#000000" stroke-width="10" fill="none"/>
<polyline points="1536700,393700 1917700,393700" stroke="#000000" stroke-width="10" fill="none"/>
<polyline points="1536700,927100 1917700,927100" stroke="#000000" stroke-width="10" fill="none"/>
<polyline points="2273300,2171700 2654300,2171700" stroke="#000000" stroke-width="10" fill="none"/>
<polyline points="2273300,1917700 2654300,1917700" stroke="#000000" stroke-width="10" fill="none"/>
<polyline points="2273300,1993900 2654300,1993900" stroke="#000000" stroke-width="10" fill="none"/>
<polyline points="2273300,1790700 2654300,1790700" stroke="#000000" stroke-width="10" fill="none"/>
<polyline points="1536700,2425700 1917700,2425700" stroke="#000000" stroke-width="10" fill="none"/>
<polyline points="2273300,2120900 2654300,2120900" stroke="#000000" stroke-width="10" fill="none"/>
<polyline points="2273300,1714500 2654300,1714500" stroke="#000000" stroke-width="10" fill="none"/>
<polyline points="1536700,2374900 1917700,2374900" stroke="#000000" stroke-width="10" fill="none"/>
<polyline points="2273300,2019300 2654300,2019300" stroke="#000000" stroke-width="10" fill="none"/>
<polyline points="2273300,1968500 2654300,1968500" stroke="#000000" stroke-width="10" fill="none"/>
<polyline points="2273300,2298700 2654300,2298700" stroke="#000000" stroke-width="10" fill="none"/>
<polyline points="2273300,2273300 2654300,2273300" stroke="#000000" stroke-width="10" fill="none"/>
<polyline points="1536700,2095500 1917700,2095500" stroke="#000000" stroke-width="10" fill="none"/>
<polyline points="2273300,1866900 2654300,1866900" stroke="#000000" stroke-width="10" fill="none"/>
<polyline points="2273300,2349500 2654300,2349500" stroke="#000000" stroke-width="10" fill="none"/>
<polyline points="2273300,1739900 2654300,1739900" stroke="#000000" stroke-width="10" fill="none"/>
<polyline points="2273300,2400300 2654300,2400300" stroke="#000000" stroke-width="10" fill="none"/>
<polyline points="2273300,1841500 2654300,1841500" stroke="#000000" stroke-width="10" fill="none"/>
<polyline points="1536700,1917700 1917700,1917700" stroke="#000000" stroke-width="10" fill="none"/>
<polyline points="1536700,2222500 1917700,2222500" stroke="#000000" stroke-width="10" fill="none"/>
<polyline points="2273300,1765300 2654300,1765300" stroke="#000000" stroke-width="10" fill="none"/>
<polyline points="2273300,2247900 2654300,2247900" stroke="#000000" stroke-width="10" fill="none"/>
<polyline points="2273300,2425700 2654300,2425700" stroke="#000000" stroke-width="10" fill="none"/>
<polyline points="2273300,2095500 2654300,2095500" stroke="#000000" stroke-width="10" fill="none"/>
<polyline points="2273300,1892300 2654300,1892300" stroke="#000000" stroke-width="10" fill="none"/>
<polyline points="2273300,2146300 2654300,2146300" stroke="#000000" stroke-width="10" fill="none"/>
<polyline points="2273300,2374900 2654300,2374900" stroke="#000000" stroke-width="10" fill="none"/>
<polyline points="2273300,2044700 2654300,2044700" stroke="#000000" stroke-width="10" fill="none"/>
<polyline points="2273300,2222500 2654300,2222500" stroke="#000000" stroke-width="10" fill="none"/>
<polyline points="1727200,2349500 1828800,2349500" stroke="#000000" stroke-width="10" fill="none"/>
<polyline points="1358900,825500 1485900,825500" stroke="#000000" stroke-width="10" fill="none"/>
<polyline points="1638300,825500 1816100,825500" stroke="#000000" stroke-width="10" fill="none"/>
<polyline points="1041400,647700 1193800,647700" stroke="#000000" stroke-width="10" fill="none"/>
<polyline points="2908300,876300 3022600,876300" stroke="#000000" stroke-width="10" fill="none"/>
<polyline points="1041400,698500 1092200,698500" stroke="#000000" stroke-width="10" fill="none"/>
<polyline points="2476500,977900 3022600,977900" stroke="#000000" stroke-width="10" fill="none"/>
<polyline points="3009900,1879600 3111500,1879600" stroke="#000000" stroke-width="10" fill="none"/>
<polyline points="3009900,2247900 3111500,2247900" stroke="#000000" stroke-width="10" fill="none"/>
<polyline points="2108200,2197100 2184400,2197100" stroke="#000000" stroke-width="10" fill="none"/>
<polyline points="2108200,2247900 2489200,2247900" stroke="#000000" stroke-width="10" fill="none"/>
<polyline points="2590800,927100 3022600,927100" stroke="#000000" stroke-width="10" fill="none"/>
<polyline points="2717800,825500 3022600,825500" stroke="#000000" stroke-width="10" fill="none"/>
<polyline points="3009900,1930400 3111500,1930400" stroke="#000000" stroke-width="10" fill="none"/>
<rect x="0" y="0" width="5000" height="5000" stroke="red" stroke-width="10" fill="none"/>
<rect x="0" y="0" width="5000" height="5000" stroke="red" stroke-width="10" fill="none"/>
<rect x="0" y="0" width="5000" height="5000" stroke="red" stroke-width="10" fill="none"/>
<rect x="0" y="0" width="5000" height="5000" stroke="red" stroke-width="10" fill="none"/>
</svg>