<?xml version="1.0" encoding="UTF-8" standalone="no"?>
<svg xmlns="http://www.w3.org/2000/svg" version="1.1" width="17000mil" height="11000mil" viewBox="0 0 1700000 1100000">
<rect x="0" y="0" width="1700000" height="1100000" fill="white"/>
<polyline points="800100,596900 977900,596900" stroke="#000000" stroke-width="10" fill="none"/>
<polyline points="3479800,1104900 3619500,1104900" stroke="#000000" stroke-width="10" fill="none"/>
<polyline points="2971800,431800 2971800,482600" stroke="#000000" stroke-width="10" fill="none"/>
<polyline points="2921000,1524000 2921000,1536700" stroke="#000000" stroke-width="10" fill="none"/>
<polyline points="2971800,1435100 3136900,1435100" stroke="#000000" stroke-width="10" fill="none"/>
<polyline points="1028700,622300 1765300,622300" stroke="#000000" stroke-width="10" fill="none"/>
<polyline points="1193800,241300 1663700,241300" stroke="#000000" stroke-width="10" fill="none"/>
<polyline points="2971800,1333500 3136900,1333500" stroke="#000000" stroke-width="10" fill="none"/>
<polyline points="1028700,977900 1765300,977900" stroke="#000000" stroke-width="10" fill="none"/>
<polyline points="2705100,1130300 3429000,1130300" stroke="#000000" stroke-width="10" fill="none"/>
<polyline points="1028700,1689100 1765300,1689100" stroke="#000000" stroke-width="10" fill="none"/>
<polyline points="2705100,774700 3136900,774700" stroke="#000000" stroke-width="10" fill="none"/>
<polyline points="2971800,622300 3136900,622300" stroke="#000000" stroke-width="10" fill="none"/>
<polyline points="1028700,876300 1765300,876300" stroke="#000000" stroke-width="10" fill="none"/>
<polyline points="2705100,1739900 3429000,1739900" stroke="#000000" stroke-width="10" fill="none"/>
<polyline points="1028700,1384300 1765300,1384300" stroke="#000000" stroke-width="10" fill="none"/>
<polyline points="1028700,1333500 1765300,1333500" stroke="#000000" stroke-width="10" fill="none"/>
<polyline points="1092200,825500 1765300,825500" stroke="#000000" stroke-width="10" fill="none"/>
<polyline points="1028700,1181100 1765300,1181100" stroke="#000000" stroke-width="10" fill="none"/>
<polyline points="1028700,1028700 1765300,1028700" stroke="#000000" stroke-width="10" fill="none"/>
<polyline points="1028700,1435100 1765300,1435100" stroke="#000000" stroke-width="10" fill="none"/>
<polyline points="1358900,1282700 1447800,1282700" stroke="#000000" stroke-width="10" fill="none"/>
<polyline points="1028700,673100 1765300,673100" stroke="#000000" stroke-width="10" fill="none"/>
<polyline points="2705100,1790700 3429000,1790700" stroke="#000000" stroke-width="10" fill="none"/>
<polyline points="1028700,927100 1765300,927100" stroke="#000000" stroke-width="10" fill="none"/>
<polyline points="1028700,1739900 1765300,1739900" stroke="#000000" stroke-width="10" fill="none"/>
<polyline points="1028700,723900 1765300,723900" stroke="#000000" stroke-width="10" fill="none"/>
<polyline points="2705100,1181100 3429000,1181100" stroke="#000000" stroke-width="10" fill="none"/>
<polyline points="1028700,1079500 1765300,1079500" stroke="#000000" stroke-width="10" fill="none"/>
<polyline points="1028700,774700 1765300,774700" stroke="#000000" stroke-width="10" fill="none"/>
<polyline points="2971800,1282700 3136900,1282700" stroke="#000000" stroke-width="10" fill="none"/>
<polyline points="1028700,1485900 1765300,1485900" stroke="#000000" stroke-width="10" fill="none"/>
<polyline points="1028700,1638300 1765300,1638300" stroke="#000000" stroke-width="10" fill="none"/>
<polyline points="1028700,1130300 1765300,1130300" stroke="#000000" stroke-width="10" fill="none"/>
<polyline points="1028700,1790700 1765300,1790700" stroke="#000000" stroke-width="10" fill="none"/>
<polyline points="1358900,1231900 1447800,1231900" stroke="#000000" stroke-width="10" fill="none"/>
<polyline points="2705100,723900 3136900,723900" stroke="#000000" stroke-width="10" fill="none"/>
<polyline points="2921000,1638300 3136900,1638300" stroke="#000000" stroke-width="10" fill="none"/>
<rect x="0" y="100831" width="5000" height="5000" stroke="red" stroke-width="10" fill="none"/>
<rect x="2374900" y="1714500" width="5000" height="5000" stroke="red" stroke-width="10" fill="none"/>
<rect x="0" y="0" width="5000" height="5000" stroke="red" stroke-width="10" fill="none"/>
<rect x="0" y="0" width="5000" height="5000" stroke="red" stroke-width="10" fill="none"/>
<rect x="0" y="0" width="5000" height="5000" stroke="red" stroke-width="10" fill="none"/>
</svg>