<?xml version="1.0" encoding="UTF-8" standalone="no"?>
<svg xmlns="http://www.w3.org/2000/svg" version="1.1" width="17000mil" height="11000mil" viewBox="0 0 1700000 1100000">
<rect x="0" y="0" width="1700000" height="1100000" fill="white"/>
<polyline points="1905000,1016000 1968500,1016000" stroke="#000000" stroke-width="10" fill="none"/>
<polyline points="2286000,1016000 2311400,1016000" stroke="#000000" stroke-width="10" fill="none"/>
<polyline points="1841500,2095500 2425700,2095500" stroke="#000000" stroke-width="10" fill="none"/>
<polyline points="1841500,2057400 2425700,2057400" stroke="#000000" stroke-width="10" fill="none"/>
<polyline points="927100,457200 1079500,457200" stroke="#000000" stroke-width="10" fill="none"/>
<polyline points="1562100,914400 2844800,914400" stroke="#000000" stroke-width="10" fill="none"/>
<polyline points="927100,609600 1079500,609600" stroke="#000000" stroke-width="10" fill="none"/>
<polyline points="2717800,1016000 2844800,1016000" stroke="#000000" stroke-width="10" fill="none"/>
<polyline points="1562100,508000 3543300,508000" stroke="#000000" stroke-width="10" fill="none"/>
<polyline points="1841500,2247900 2425700,2247900" stroke="#000000" stroke-width="10" fill="none"/>
<polyline points="1562100,457200 3543300,457200" stroke="#000000" stroke-width="10" fill="none"/>
<polyline points="927100,558800 1079500,558800" stroke="#000000" stroke-width="10" fill="none"/>
<polyline points="1841500,2209800 2425700,2209800" stroke="#000000" stroke-width="10" fill="none"/>
<polyline points="2006600,609600 3390900,609600" stroke="#000000" stroke-width="10" fill="none"/>
<polyline points="927100,660400 1079500,660400" stroke="#000000" stroke-width="10" fill="none"/>
<polyline points="2413000,1244600 2717800,1244600" stroke="#000000" stroke-width="10" fill="none"/>
<polyline points="1841500,2133600 2425700,2133600" stroke="#000000" stroke-width="10" fill="none"/>
<polyline points="3340100,406400 3543300,406400" stroke="#000000" stroke-width="10" fill="none"/>
<polyline points="1841500,2286000 2425700,2286000" stroke="#000000" stroke-width="10" fill="none"/>
<polyline points="914400,914400 1079500,914400" stroke="#000000" stroke-width="10" fill="none"/>
<polyline points="914400,812800 1079500,812800" stroke="#000000" stroke-width="10" fill="none"/>
<polyline points="927100,711200 1079500,711200" stroke="#000000" stroke-width="10" fill="none"/>
<polyline points="1841500,2171700 2425700,2171700" stroke="#000000" stroke-width="10" fill="none"/>
<polyline points="1803400,977900 2425700,977900" stroke="#000000" stroke-width="10" fill="none"/>
<polyline points="2857500,901700 3670300,901700" stroke="#000000" stroke-width="10" fill="none"/>
<polyline points="1612900,901700 2425700,901700" stroke="#000000" stroke-width="10" fill="none"/>
<polyline points="1612900,698500 2425700,698500" stroke="#000000" stroke-width="10" fill="none"/>
<polyline points="2857500,698500 3670300,698500" stroke="#000000" stroke-width="10" fill="none"/>
<polyline points="1612900,774700 2425700,774700" stroke="#000000" stroke-width="10" fill="none"/>
<polyline points="2857500,774700 3670300,774700" stroke="#000000" stroke-width="10" fill="none"/>
<polyline points="1612900,1003300 1727200,1003300" stroke="#000000" stroke-width="10" fill="none"/>
<polyline points="2857500,927100 3670300,927100" stroke="#000000" stroke-width="10" fill="none"/>
<polyline points="1612900,927100 2425700,927100" stroke="#000000" stroke-width="10" fill="none"/>
<polyline points="3048000,1104900 3403600,1104900" stroke="#000000" stroke-width="10" fill="none"/>
<polyline points="1612900,673100 2425700,673100" stroke="#000000" stroke-width="10" fill="none"/>
<polyline points="2857500,673100 3670300,673100" stroke="#000000" stroke-width="10" fill="none"/>
<polyline points="2857500,749300 3670300,749300" stroke="#000000" stroke-width="10" fill="none"/>
<polyline points="1612900,749300 2425700,749300" stroke="#000000" stroke-width="10" fill="none"/>
<polyline points="2806700,977900 3670300,977900" stroke="#000000" stroke-width="10" fill="none"/>
<polyline points="3111500,1054100 3670300,1054100" stroke="#000000" stroke-width="10" fill="none"/>
<polyline points="1612900,1054100 1790700,1054100" stroke="#000000" stroke-width="10" fill="none"/>
<polyline points="3213100,1079500 3670300,1079500" stroke="#000000" stroke-width="10" fill="none"/>
<polyline points="1612900,1079500 1790700,1079500" stroke="#000000" stroke-width="10" fill="none"/>
<polyline points="1612900,1155700 2362200,1155700" stroke="#000000" stroke-width="10" fill="none"/>
<polyline points="2857500,850900 3670300,850900" stroke="#000000" stroke-width="10" fill="none"/>
<polyline points="1612900,850900 2425700,850900" stroke="#000000" stroke-width="10" fill="none"/>
<polyline points="2857500,825500 3670300,825500" stroke="#000000" stroke-width="10" fill="none"/>
<polyline points="1612900,825500 2425700,825500" stroke="#000000" stroke-width="10" fill="none"/>
<polyline points="1993900,1689100 2082800,1689100" stroke="#000000" stroke-width="10" fill="none"/>
<polyline points="1612900,1612900 1714500,1612900" stroke="#000000" stroke-width="10" fill="none"/>
<polyline points="2806700,1079500 2870200,1079500" stroke="#000000" stroke-width="10" fill="none"/>
<polyline points="1612900,1231900 1727200,1231900" stroke="#000000" stroke-width="10" fill="none"/>
<polyline points="2806700,1104900 2870200,1104900" stroke="#000000" stroke-width="10" fill="none"/>
<polyline points="1612900,1587500 1714500,1587500" stroke="#000000" stroke-width="10" fill="none"/>
<polyline points="2374900,1104900 2425700,1104900" stroke="#000000" stroke-width="10" fill="none"/>
<polyline points="2374900,1079500 2425700,1079500" stroke="#000000" stroke-width="10" fill="none"/>
<polyline points="355600,1562100 393700,1562100" stroke="#000000" stroke-width="10" fill="none"/>
<polyline points="355600,1181100 393700,1181100" stroke="#000000" stroke-width="10" fill="none"/>
<polyline points="355600,1409700 393700,1409700" stroke="#000000" stroke-width="10" fill="none"/>
<polyline points="355600,1765300 393700,1765300" stroke="#000000" stroke-width="10" fill="none"/>
<polyline points="1054100,1028700 1104900,1028700" stroke="#000000" stroke-width="10" fill="none"/>
<polyline points="1054100,977900 1104900,977900" stroke="#000000" stroke-width="10" fill="none"/>
<polyline points="1054100,1079500 1104900,1079500" stroke="#000000" stroke-width="10" fill="none"/>
<polyline points="812800,1562100 1104900,1562100" stroke="#000000" stroke-width="10" fill="none"/>
<polyline points="977900,1181100 1054100,1181100" stroke="#000000" stroke-width="10" fill="none"/>
<polyline points="901700,1765300 977900,1765300" stroke="#000000" stroke-width="10" fill="none"/>
<polyline points="1054100,927100 1104900,927100" stroke="#000000" stroke-width="10" fill="none"/>
<polyline points="812800,1409700 1104900,1409700" stroke="#000000" stroke-width="10" fill="none"/>
<polyline points="774700,1790700 1358900,1790700" stroke="#000000" stroke-width="10" fill="none"/>
<polyline points="1866900,1130300 2832100,1130300" stroke="#000000" stroke-width="10" fill="none"/>
<polyline points="1193800,1435100 1384300,1435100" stroke="#000000" stroke-width="10" fill="none"/>
<polyline points="1206500,1333500 1384300,1333500" stroke="#000000" stroke-width="10" fill="none"/>
<polyline points="1206500,1079500 1384300,1079500" stroke="#000000" stroke-width="10" fill="none"/>
<polyline points="1206500,1181100 1384300,1181100" stroke="#000000" stroke-width="10" fill="none"/>
<polyline points="1866900,1079500 2832100,1079500" stroke="#000000" stroke-width="10" fill="none"/>
<polyline points="1193800,1231900 1384300,1231900" stroke="#000000" stroke-width="10" fill="none"/>
<polyline points="1206500,1282700 1384300,1282700" stroke="#000000" stroke-width="10" fill="none"/>
<polyline points="2222500,1181100 2222500,1638300" stroke="#000000" stroke-width="10" fill="none"/>
<polyline points="1079500,1663700 1181100,1663700" stroke="#000000" stroke-width="10" fill="none"/>
<polyline points="1193800,1536700 1384300,1536700" stroke="#000000" stroke-width="10" fill="none"/>
<polyline points="3771900,469900 3771900,1422400" stroke="#000000" stroke-width="10" fill="none"/>
<polyline points="2311400,482600 2311400,1422400" stroke="#000000" stroke-width="10" fill="none"/>
<polyline points="2146300,1320800 2235200,1320800" stroke="#000000" stroke-width="10" fill="none"/>
<polyline points="3860800,1320800 3898900,1320800" stroke="#000000" stroke-width="10" fill="none"/>
<polyline points="2362200,533400 2641600,533400" stroke="#000000" stroke-width="10" fill="none"/>
<polyline points="3429000,1143000 3721100,1143000" stroke="#000000" stroke-width="10" fill="none"/>
<polyline points="1600200,698500 1663700,698500" stroke="#000000" stroke-width="10" fill="none"/>
<polyline points="3492500,1828800 3670300,1828800" stroke="#000000" stroke-width="10" fill="none"/>
<polyline points="3429000,1701800 3810000,1701800" stroke="#000000" stroke-width="10" fill="none"/>
<polyline points="2362200,1270000 2768600,1270000" stroke="#000000" stroke-width="10" fill="none"/>
<polyline points="3429000,1270000 3721100,1270000" stroke="#000000" stroke-width="10" fill="none"/>
<polyline points="3429000,635000 3721100,635000" stroke="#000000" stroke-width="10" fill="none"/>
<polyline points="2730500,1981200 2794000,1981200" stroke="#000000" stroke-width="10" fill="none"/>
<polyline points="3619500,1981200 3670300,1981200" stroke="#000000" stroke-width="10" fill="none"/>
<polyline points="2362200,635000 2768600,635000" stroke="#000000" stroke-width="10" fill="none"/>
<polyline points="2362200,1295400 2641600,1295400" stroke="#000000" stroke-width="10" fill="none"/>
<polyline points="2362200,660400 2641600,660400" stroke="#000000" stroke-width="10" fill="none"/>
<polyline points="2362200,508000 2768600,508000" stroke="#000000" stroke-width="10" fill="none"/>
<polyline points="2362200,1143000 2768600,1143000" stroke="#000000" stroke-width="10" fill="none"/>
<polyline points="2362200,914400 2641600,914400" stroke="#000000" stroke-width="10" fill="none"/>
<polyline points="2362200,1016000 2768600,1016000" stroke="#000000" stroke-width="10" fill="none"/>
<polyline points="2641600,1524000 2641600,1574800" stroke="#000000" stroke-width="10" fill="none"/>
<polyline points="2730500,1955800 2794000,1955800" stroke="#000000" stroke-width="10" fill="none"/>
<polyline points="2362200,762000 2768600,762000" stroke="#000000" stroke-width="10" fill="none"/>
<polyline points="2362200,889000 2768600,889000" stroke="#000000" stroke-width="10" fill="none"/>
<polyline points="2362200,787400 2641600,787400" stroke="#000000" stroke-width="10" fill="none"/>
<polyline points="2286000,1549400 2768600,1549400" stroke="#000000" stroke-width="10" fill="none"/>
<polyline points="2362200,1397000 2768600,1397000" stroke="#000000" stroke-width="10" fill="none"/>
<polyline points="2286000,1676400 2768600,1676400" stroke="#000000" stroke-width="10" fill="none"/>
<polyline points="2362200,1168400 2641600,1168400" stroke="#000000" stroke-width="10" fill="none"/>
<polyline points="2362200,1422400 2641600,1422400" stroke="#000000" stroke-width="10" fill="none"/>
<polyline points="3429000,1676400 3810000,1676400" stroke="#000000" stroke-width="10" fill="none"/>
<polyline points="1917700,1854200 2768600,1854200" stroke="#000000" stroke-width="10" fill="none"/>
<polyline points="1587500,850900 1663700,850900" stroke="#000000" stroke-width="10" fill="none"/>
<polyline points="2641600,1651000 2641600,1701800" stroke="#000000" stroke-width="10" fill="none"/>
<polyline points="1587500,901700 1663700,901700" stroke="#000000" stroke-width="10" fill="none"/>
<polyline points="3429000,1422400 3721100,1422400" stroke="#000000" stroke-width="10" fill="none"/>
<polyline points="3429000,1574800 3810000,1574800" stroke="#000000" stroke-width="10" fill="none"/>
<polyline points="3429000,533400 3721100,533400" stroke="#000000" stroke-width="10" fill="none"/>
<polyline points="3429000,1549400 3810000,1549400" stroke="#000000" stroke-width="10" fill="none"/>
<polyline points="1587500,774700 1663700,774700" stroke="#000000" stroke-width="10" fill="none"/>
<polyline points="3492500,1955800 3670300,1955800" stroke="#000000" stroke-width="10" fill="none"/>
<polyline points="2362200,1041400 2641600,1041400" stroke="#000000" stroke-width="10" fill="none"/>
<polyline points="3429000,762000 3721100,762000" stroke="#000000" stroke-width="10" fill="none"/>
<polyline points="3429000,1397000 3721100,1397000" stroke="#000000" stroke-width="10" fill="none"/>
<polyline points="1536700,1841500 1574800,1841500" stroke="#000000" stroke-width="10" fill="none"/>
<polyline points="3429000,508000 3721100,508000" stroke="#000000" stroke-width="10" fill="none"/>
<polyline points="3429000,787400 3721100,787400" stroke="#000000" stroke-width="10" fill="none"/>
<polyline points="3429000,1041400 3721100,1041400" stroke="#000000" stroke-width="10" fill="none"/>
<polyline points="3429000,1168400 3721100,1168400" stroke="#000000" stroke-width="10" fill="none"/>
<polyline points="3429000,1295400 3721100,1295400" stroke="#000000" stroke-width="10" fill="none"/>
<polyline points="3429000,914400 3721100,914400" stroke="#000000" stroke-width="10" fill="none"/>
<polyline points="3619500,1854200 3670300,1854200" stroke="#000000" stroke-width="10" fill="none"/>
<polyline points="3429000,660400 3721100,660400" stroke="#000000" stroke-width="10" fill="none"/>
<polyline points="3429000,889000 3721100,889000" stroke="#000000" stroke-width="10" fill="none"/>
<polyline points="3429000,1016000 3721100,1016000" stroke="#000000" stroke-width="10" fill="none"/>
<polyline points="2438400,2082800 2590800,2082800" stroke="#000000" stroke-width="10" fill="none"/>
<polyline points="1930400,495300 1930400,609600" stroke="#000000" stroke-width="10" fill="none"/>
<polyline points="584200,317500 660400,317500" stroke="#000000" stroke-width="10" fill="none"/>
<polyline points="1524000,1524000 1524000,1600200" stroke="#000000" stroke-width="10" fill="none"/>
<polyline points="1854200,1765300 1917700,1765300" stroke="#000000" stroke-width="10" fill="none"/>
<polyline points="393700,457200 393700,660400" stroke="#000000" stroke-width="10" fill="none"/>
<polyline points="368300,711200 393700,711200" stroke="#000000" stroke-width="10" fill="none"/>
<polyline points="1917700,1828800 2641600,1828800" stroke="#000000" stroke-width="10" fill="none"/>
<polyline points="1270000,1625600 1308100,1625600" stroke="#000000" stroke-width="10" fill="none"/>
<polyline points="1041400,1955800 1104900,1955800" stroke="#000000" stroke-width="10" fill="none"/>
<polyline points="2540000,1066800 2755900,1066800" stroke="#000000" stroke-width="10" fill="none"/>
<polyline points="2311400,1219200 3073400,1219200" stroke="#000000" stroke-width="10" fill="none"/>
<polyline points="2540000,584200 3073400,584200" stroke="#000000" stroke-width="10" fill="none"/>
<polyline points="2311400,1168400 3073400,1168400" stroke="#000000" stroke-width="10" fill="none"/>
<polyline points="2336800,990600 3073400,990600" stroke="#000000" stroke-width="10" fill="none"/>
<polyline points="2311400,1905000 2641600,1905000" stroke="#000000" stroke-width="10" fill="none"/>
<polyline points="2311400,1955800 2641600,1955800" stroke="#000000" stroke-width="10" fill="none"/>
<polyline points="2311400,2057400 2641600,2057400" stroke="#000000" stroke-width="10" fill="none"/>
<polyline points="2311400,1981200 2641600,1981200" stroke="#000000" stroke-width="10" fill="none"/>
<polyline points="2311400,2032000 2641600,2032000" stroke="#000000" stroke-width="10" fill="none"/>
<polyline points="2692400,1854200 3073400,1854200" stroke="#000000" stroke-width="10" fill="none"/>
<polyline points="2311400,1879600 2641600,1879600" stroke="#000000" stroke-width="10" fill="none"/>
<polyline points="2311400,1930400 2641600,1930400" stroke="#000000" stroke-width="10" fill="none"/>
<polyline points="2311400,2006600 2641600,2006600" stroke="#000000" stroke-width="10" fill="none"/>
<polyline points="2311400,1346200 2641600,1346200" stroke="#000000" stroke-width="10" fill="none"/>
<polyline points="2311400,1498600 2641600,1498600" stroke="#000000" stroke-width="10" fill="none"/>
<polyline points="2311400,1422400 2641600,1422400" stroke="#000000" stroke-width="10" fill="none"/>
<polyline points="2311400,1371600 2641600,1371600" stroke="#000000" stroke-width="10" fill="none"/>
<polyline points="2311400,1524000 2641600,1524000" stroke="#000000" stroke-width="10" fill="none"/>
<polyline points="2311400,1397000 2641600,1397000" stroke="#000000" stroke-width="10" fill="none"/>
<polyline points="2692400,1320800 3073400,1320800" stroke="#000000" stroke-width="10" fill="none"/>
<polyline points="2311400,1447800 2641600,1447800" stroke="#000000" stroke-width="10" fill="none"/>
<polyline points="2311400,1473200 2641600,1473200" stroke="#000000" stroke-width="10" fill="none"/>
<polyline points="2311400,533400 2743200,533400" stroke="#000000" stroke-width="10" fill="none"/>
<polyline points="2311400,508000 2743200,508000" stroke="#000000" stroke-width="10" fill="none"/>
<polyline points="2311400,457200 2743200,457200" stroke="#000000" stroke-width="10" fill="none"/>
<polyline points="2794000,419100 3073400,419100" stroke="#000000" stroke-width="10" fill="none"/>
<polyline points="2311400,482600 2743200,482600" stroke="#000000" stroke-width="10" fill="none"/>
<polyline points="2311400,1270000 3073400,1270000" stroke="#000000" stroke-width="10" fill="none"/>
<polyline points="2311400,1701800 3073400,1701800" stroke="#000000" stroke-width="10" fill="none"/>
<polyline points="2311400,1117600 3073400,1117600" stroke="#000000" stroke-width="10" fill="none"/>
<polyline points="2311400,889000 3073400,889000" stroke="#000000" stroke-width="10" fill="none"/>
<polyline points="2794000,685800 3073400,685800" stroke="#000000" stroke-width="10" fill="none"/>
<polyline points="2311400,736600 2743200,736600" stroke="#000000" stroke-width="10" fill="none"/>
<polyline points="2311400,787400 2743200,787400" stroke="#000000" stroke-width="10" fill="none"/>
<polyline points="2311400,711200 2743200,711200" stroke="#000000" stroke-width="10" fill="none"/>
<polyline points="2311400,762000 2743200,762000" stroke="#000000" stroke-width="10" fill="none"/>
<polyline points="2540000,635000 3073400,635000" stroke="#000000" stroke-width="10" fill="none"/>
<polyline points="2311400,838200 3073400,838200" stroke="#000000" stroke-width="10" fill="none"/>
<polyline points="1435100,1955800 1435100,1981200" stroke="#000000" stroke-width="10" fill="none"/>
<polyline points="2540000,939800 3073400,939800" stroke="#000000" stroke-width="10" fill="none"/>
<polyline points="2311400,1803400 3073400,1803400" stroke="#000000" stroke-width="10" fill="none"/>
<polyline points="2311400,1752600 3073400,1752600" stroke="#000000" stroke-width="10" fill="none"/>
<polyline points="2540000,914400 2654300,914400" stroke="#000000" stroke-width="10" fill="none"/>
<polyline points="355600,2451100 482600,2451100" stroke="#000000" stroke-width="10" fill="none"/>
<polyline points="2476500,2451100 2590800,2451100" stroke="#000000" stroke-width="10" fill="none"/>
<polyline points="2476500,2222500 2590800,2222500" stroke="#000000" stroke-width="10" fill="none"/>
<polyline points="3632200,533400 3733800,533400" stroke="#000000" stroke-width="10" fill="none"/>
<polyline points="3632200,304800 3733800,304800" stroke="#000000" stroke-width="10" fill="none"/>
<polyline points="355600,2222500 482600,2222500" stroke="#000000" stroke-width="10" fill="none"/>
<polyline points="850900,1003300 1104900,1003300" stroke="#000000" stroke-width="10" fill="none"/>
<polyline points="850900,952500 1104900,952500" stroke="#000000" stroke-width="10" fill="none"/>
<polyline points="850900,927100 1104900,927100" stroke="#000000" stroke-width="10" fill="none"/>
<polyline points="520700,914400 800100,914400" stroke="#000000" stroke-width="10" fill="none"/>
<polyline points="850900,977900 1104900,977900" stroke="#000000" stroke-width="10" fill="none"/>
<polyline points="850900,596900 1104900,596900" stroke="#000000" stroke-width="10" fill="none"/>
<polyline points="850900,673100 1104900,673100" stroke="#000000" stroke-width="10" fill="none"/>
<polyline points="850900,647700 1104900,647700" stroke="#000000" stroke-width="10" fill="none"/>
<polyline points="850900,622300 1104900,622300" stroke="#000000" stroke-width="10" fill="none"/>
<polyline points="520700,1155700 965200,1155700" stroke="#000000" stroke-width="10" fill="none"/>
<polyline points="685800,1587500 1104900,1587500" stroke="#000000" stroke-width="10" fill="none"/>
<polyline points="520700,1308100 1104900,1308100" stroke="#000000" stroke-width="10" fill="none"/>
<polyline points="1092200,1765300 1104900,1765300" stroke="#000000" stroke-width="10" fill="none"/>
<polyline points="520700,825500 1104900,825500" stroke="#000000" stroke-width="10" fill="none"/>
<polyline points="520700,774700 1104900,774700" stroke="#000000" stroke-width="10" fill="none"/>
<polyline points="520700,1104900 965200,1104900" stroke="#000000" stroke-width="10" fill="none"/>
<polyline points="1866900,1231900 3962400,1231900" stroke="#000000" stroke-width="10" fill="none"/>
<polyline points="520700,1358900 1104900,1358900" stroke="#000000" stroke-width="10" fill="none"/>
<polyline points="1866900,1181100 3937000,1181100" stroke="#000000" stroke-width="10" fill="none"/>
<polyline points="558800,1511300 1104900,1511300" stroke="#000000" stroke-width="10" fill="none"/>
<polyline points="1968500,1511300 2413000,1511300" stroke="#000000" stroke-width="10" fill="none"/>
<polyline points="1968500,1485900 2413000,1485900" stroke="#000000" stroke-width="10" fill="none"/>
<polyline points="1968500,1841500 2260600,1841500" stroke="#000000" stroke-width="10" fill="none"/>
<polyline points="1968500,1536700 2247900,1536700" stroke="#000000" stroke-width="10" fill="none"/>
<polyline points="1968500,1765300 2260600,1765300" stroke="#000000" stroke-width="10" fill="none"/>
<polyline points="1320800,1841500 1612900,1841500" stroke="#000000" stroke-width="10" fill="none"/>
<polyline points="1320800,1917700 1612900,1917700" stroke="#000000" stroke-width="10" fill="none"/>
<polyline points="1968500,1714500 2260600,1714500" stroke="#000000" stroke-width="10" fill="none"/>
<polyline points="1193800,1485900 1612900,1485900" stroke="#000000" stroke-width="10" fill="none"/>
<polyline points="1346200,1460500 1612900,1460500" stroke="#000000" stroke-width="10" fill="none"/>
<polyline points="3238500,711200 3378200,711200" stroke="#000000" stroke-width="10" fill="none"/>
<polyline points="1358900,1765300 1612900,1765300" stroke="#000000" stroke-width="10" fill="none"/>
<polyline points="1320800,1739900 1612900,1739900" stroke="#000000" stroke-width="10" fill="none"/>
<polyline points="1968500,1460500 2247900,1460500" stroke="#000000" stroke-width="10" fill="none"/>
<polyline points="1968500,1917700 2260600,1917700" stroke="#000000" stroke-width="10" fill="none"/>
<polyline points="1320800,1892300 1612900,1892300" stroke="#000000" stroke-width="10" fill="none"/>
<polyline points="990600,1892300 990600,1993900" stroke="#000000" stroke-width="10" fill="none"/>
<polyline points="2717800,1828800 2717800,1993900" stroke="#000000" stroke-width="10" fill="none"/>
<polyline points="1206500,647700 1308100,647700" stroke="#000000" stroke-width="10" fill="none"/>
<polyline points="1104900,1892300 1104900,1968500" stroke="#000000" stroke-width="10" fill="none"/>
<polyline points="2578100,1828800 2578100,1968500" stroke="#000000" stroke-width="10" fill="none"/>
<polyline points="1193800,1511300 1612900,1511300" stroke="#000000" stroke-width="10" fill="none"/>
<polyline points="1320800,1714500 1612900,1714500" stroke="#000000" stroke-width="10" fill="none"/>
<polyline points="2654300,419100 3378200,419100" stroke="#000000" stroke-width="10" fill="none"/>
<polyline points="2184400,1219200 2235200,1219200" stroke="#000000" stroke-width="10" fill="none"/>
<polyline points="1333500,1219200 1384300,1219200" stroke="#000000" stroke-width="10" fill="none"/>
<polyline points="1206500,495300 1625600,495300" stroke="#000000" stroke-width="10" fill="none"/>
<polyline points="3238500,508000 3238500,571500" stroke="#000000" stroke-width="10" fill="none"/>
<polyline points="762000,1892300 762000,2044700" stroke="#000000" stroke-width="10" fill="none"/>
<polyline points="3009900,1828800 3009900,2044700" stroke="#000000" stroke-width="10" fill="none"/>
<polyline points="1968500,1790700 2260600,1790700" stroke="#000000" stroke-width="10" fill="none"/>
<polyline points="419100,1892300 419100,2146300" stroke="#000000" stroke-width="10" fill="none"/>
<polyline points="3467100,1828800 3467100,2146300" stroke="#000000" stroke-width="10" fill="none"/>
<polyline points="1206500,571500 1308100,571500" stroke="#000000" stroke-width="10" fill="none"/>
<polyline points="876300,1892300 876300,2019300" stroke="#000000" stroke-width="10" fill="none"/>
<polyline points="2870200,1828800 2870200,2019300" stroke="#000000" stroke-width="10" fill="none"/>
<polyline points="1206500,419100 1625600,419100" stroke="#000000" stroke-width="10" fill="none"/>
<polyline points="2882900,533400 2959100,533400" stroke="#000000" stroke-width="10" fill="none"/>
<polyline points="2438400,228600 2438400,266700" stroke="#000000" stroke-width="10" fill="none"/>
<polyline points="304800,1892300 304800,2171700" stroke="#000000" stroke-width="10" fill="none"/>
<polyline points="3619500,1828800 3619500,2171700" stroke="#000000" stroke-width="10" fill="none"/>
<polyline points="647700,1892300 647700,2095500" stroke="#000000" stroke-width="10" fill="none"/>
<polyline points="3162300,1828800 3162300,2095500" stroke="#000000" stroke-width="10" fill="none"/>
<polyline points="533400,1892300 533400,2120900" stroke="#000000" stroke-width="10" fill="none"/>
<polyline points="3327400,1828800 3327400,2120900" stroke="#000000" stroke-width="10" fill="none"/>
<polyline points="1968500,1739900 2260600,1739900" stroke="#000000" stroke-width="10" fill="none"/>
<polyline points="1968500,1892300 2260600,1892300" stroke="#000000" stroke-width="10" fill="none"/>
<polyline points="1041400,1562100 1168400,1562100" stroke="#000000" stroke-width="10" fill="none"/>
<polyline points="1219200,1663700 1612900,1663700" stroke="#000000" stroke-width="10" fill="none"/>
<polyline points="1219200,1638300 1612900,1638300" stroke="#000000" stroke-width="10" fill="none"/>
<polyline points="1219200,1612900 1612900,1612900" stroke="#000000" stroke-width="10" fill="none"/>
<polyline points="1219200,1587500 1612900,1587500" stroke="#000000" stroke-width="10" fill="none"/>
<polyline points="2438400,1562100 2565400,1562100" stroke="#000000" stroke-width="10" fill="none"/>
<polyline points="1968500,1663700 2387600,1663700" stroke="#000000" stroke-width="10" fill="none"/>
<polyline points="1968500,1638300 2387600,1638300" stroke="#000000" stroke-width="10" fill="none"/>
<polyline points="1968500,1612900 2387600,1612900" stroke="#000000" stroke-width="10" fill="none"/>
<polyline points="1968500,1587500 2387600,1587500" stroke="#000000" stroke-width="10" fill="none"/>
<polyline points="939800,1295400 1143000,1295400" stroke="#000000" stroke-width="10" fill="none"/>
<polyline points="939800,482600 1384300,482600" stroke="#000000" stroke-width="10" fill="none"/>
<polyline points="939800,1143000 1384300,1143000" stroke="#000000" stroke-width="10" fill="none"/>
<polyline points="939800,533400 1384300,533400" stroke="#000000" stroke-width="10" fill="none"/>
<polyline points="939800,381000 1384300,381000" stroke="#000000" stroke-width="10" fill="none"/>
<polyline points="939800,431800 1384300,431800" stroke="#000000" stroke-width="10" fill="none"/>
<polyline points="939800,635000 1384300,635000" stroke="#000000" stroke-width="10" fill="none"/>
<polyline points="939800,736600 1384300,736600" stroke="#000000" stroke-width="10" fill="none"/>
<polyline points="939800,812800 1384300,812800" stroke="#000000" stroke-width="10" fill="none"/>
<polyline points="939800,685800 1384300,685800" stroke="#000000" stroke-width="10" fill="none"/>
<polyline points="939800,1346200 1358900,1346200" stroke="#000000" stroke-width="10" fill="none"/>
<polyline points="939800,1219200 1384300,1219200" stroke="#000000" stroke-width="10" fill="none"/>
<polyline points="939800,406400 1384300,406400" stroke="#000000" stroke-width="10" fill="none"/>
<polyline points="2197100,330200 2413000,330200" stroke="#000000" stroke-width="10" fill="none"/>
<polyline points="1219200,330200 1384300,330200" stroke="#000000" stroke-width="10" fill="none"/>
<polyline points="939800,965200 1384300,965200" stroke="#000000" stroke-width="10" fill="none"/>
<polyline points="939800,838200 1384300,838200" stroke="#000000" stroke-width="10" fill="none"/>
<polyline points="939800,914400 1384300,914400" stroke="#000000" stroke-width="10" fill="none"/>
<polyline points="939800,1092200 1384300,1092200" stroke="#000000" stroke-width="10" fill="none"/>
<polyline points="939800,1117600 1384300,1117600" stroke="#000000" stroke-width="10" fill="none"/>
<polyline points="939800,584200 1384300,584200" stroke="#000000" stroke-width="10" fill="none"/>
<polyline points="939800,1066800 1384300,1066800" stroke="#000000" stroke-width="10" fill="none"/>
<polyline points="939800,1422400 1384300,1422400" stroke="#000000" stroke-width="10" fill="none"/>
<polyline points="939800,990600 1384300,990600" stroke="#000000" stroke-width="10" fill="none"/>
<polyline points="939800,889000 1384300,889000" stroke="#000000" stroke-width="10" fill="none"/>
<polyline points="939800,762000 1384300,762000" stroke="#000000" stroke-width="10" fill="none"/>
<polyline points="2921000,215900 2921000,254000" stroke="#000000" stroke-width="10" fill="none"/>
<polyline points="3416300,774700 3416300,800100" stroke="#000000" stroke-width="10" fill="none"/>
<polyline points="2959100,1714500 3390900,1714500" stroke="#000000" stroke-width="10" fill="none"/>
<polyline points="2451100,558800 2451100,812800" stroke="#000000" stroke-width="10" fill="none"/>
<polyline points="2603500,558800 2603500,812800" stroke="#000000" stroke-width="10" fill="none"/>
<polyline points="1663700,1155700 2247900,1155700" stroke="#000000" stroke-width="10" fill="none"/>
<polyline points="1663700,1181100 2247900,1181100" stroke="#000000" stroke-width="10" fill="none"/>
<polyline points="1663700,1206500 2247900,1206500" stroke="#000000" stroke-width="10" fill="none"/>
<polyline points="1663700,1231900 2247900,1231900" stroke="#000000" stroke-width="10" fill="none"/>
<polyline points="1663700,1257300 2247900,1257300" stroke="#000000" stroke-width="10" fill="none"/>
<polyline points="1663700,1282700 2247900,1282700" stroke="#000000" stroke-width="10" fill="none"/>
<polyline points="1663700,1333500 2247900,1333500" stroke="#000000" stroke-width="10" fill="none"/>
<polyline points="1663700,1384300 2247900,1384300" stroke="#000000" stroke-width="10" fill="none"/>
<polyline points="1663700,1435100 2247900,1435100" stroke="#000000" stroke-width="10" fill="none"/>
<polyline points="1663700,1409700 2247900,1409700" stroke="#000000" stroke-width="10" fill="none"/>
<polyline points="1663700,1358900 2247900,1358900" stroke="#000000" stroke-width="10" fill="none"/>
<polyline points="2654300,1879600 2654300,2184400" stroke="#000000" stroke-width="10" fill="none"/>
<polyline points="1206500,901700 1651000,901700" stroke="#000000" stroke-width="10" fill="none"/>
<polyline points="1206500,1524000 2247900,1524000" stroke="#000000" stroke-width="10" fill="none"/>
<polyline points="1168400,1574800 2247900,1574800" stroke="#000000" stroke-width="10" fill="none"/>
<polyline points="1168400,1600200 2247900,1600200" stroke="#000000" stroke-width="10" fill="none"/>
<polyline points="1168400,1625600 2247900,1625600" stroke="#000000" stroke-width="10" fill="none"/>
<polyline points="1168400,1651000 2247900,1651000" stroke="#000000" stroke-width="10" fill="none"/>
<polyline points="1168400,1676400 2247900,1676400" stroke="#000000" stroke-width="10" fill="none"/>
<polyline points="1168400,1727200 2247900,1727200" stroke="#000000" stroke-width="10" fill="none"/>
<polyline points="1168400,1752600 2247900,1752600" stroke="#000000" stroke-width="10" fill="none"/>
<polyline points="2387600,1879600 2387600,1892300" stroke="#000000" stroke-width="10" fill="none"/>
<polyline points="2413000,1879600 2413000,1917700" stroke="#000000" stroke-width="10" fill="none"/>
<polyline points="2438400,1879600 2438400,1943100" stroke="#000000" stroke-width="10" fill="none"/>
<polyline points="1168400,2070100 2578100,2070100" stroke="#000000" stroke-width="10" fill="none"/>
<polyline points="1968500,889000 2247900,889000" stroke="#000000" stroke-width="10" fill="none"/>
<polyline points="1968500,914400 2247900,914400" stroke="#000000" stroke-width="10" fill="none"/>
<polyline points="1968500,939800 2247900,939800" stroke="#000000" stroke-width="10" fill="none"/>
<polyline points="1968500,965200 2247900,965200" stroke="#000000" stroke-width="10" fill="none"/>
<polyline points="1968500,990600 2247900,990600" stroke="#000000" stroke-width="10" fill="none"/>
<polyline points="1968500,1016000 2247900,1016000" stroke="#000000" stroke-width="10" fill="none"/>
<polyline points="1968500,1041400 2247900,1041400" stroke="#000000" stroke-width="10" fill="none"/>
<polyline points="1968500,1066800 2247900,1066800" stroke="#000000" stroke-width="10" fill="none"/>
<polyline points="2959100,1308100 3390900,1308100" stroke="#000000" stroke-width="10" fill="none"/>
<polyline points="2959100,1536700 3390900,1536700" stroke="#000000" stroke-width="10" fill="none"/>
<polyline points="2959100,1663700 3390900,1663700" stroke="#000000" stroke-width="10" fill="none"/>
<polyline points="2959100,1282700 3390900,1282700" stroke="#000000" stroke-width="10" fill="none"/>
<polyline points="2959100,1587500 3390900,1587500" stroke="#000000" stroke-width="10" fill="none"/>
<polyline points="2959100,1206500 3390900,1206500" stroke="#000000" stroke-width="10" fill="none"/>
<polyline points="2959100,1155700 3390900,1155700" stroke="#000000" stroke-width="10" fill="none"/>
<polyline points="2959100,1333500 3390900,1333500" stroke="#000000" stroke-width="10" fill="none"/>
<polyline points="2959100,1435100 3390900,1435100" stroke="#000000" stroke-width="10" fill="none"/>
<polyline points="1168400,2171700 2501900,2171700" stroke="#000000" stroke-width="10" fill="none"/>
<polyline points="1168400,2019300 2527300,2019300" stroke="#000000" stroke-width="10" fill="none"/>
<polyline points="1168400,2146300 2527300,2146300" stroke="#000000" stroke-width="10" fill="none"/>
<polyline points="2959100,1384300 3390900,1384300" stroke="#000000" stroke-width="10" fill="none"/>
<polyline points="2959100,1358900 3390900,1358900" stroke="#000000" stroke-width="10" fill="none"/>
<polyline points="2959100,1485900 3390900,1485900" stroke="#000000" stroke-width="10" fill="none"/>
<polyline points="2959100,1562100 3390900,1562100" stroke="#000000" stroke-width="10" fill="none"/>
<polyline points="2959100,1231900 3390900,1231900" stroke="#000000" stroke-width="10" fill="none"/>
<polyline points="2959100,1181100 3390900,1181100" stroke="#000000" stroke-width="10" fill="none"/>
<polyline points="2959100,1130300 3390900,1130300" stroke="#000000" stroke-width="10" fill="none"/>
<polyline points="2527300,558800 2527300,812800" stroke="#000000" stroke-width="10" fill="none"/>
<polyline points="2476500,558800 2476500,812800" stroke="#000000" stroke-width="10" fill="none"/>
<polyline points="2857500,1879600 2857500,2184400" stroke="#000000" stroke-width="10" fill="none"/>
<polyline points="2832100,1879600 2832100,2184400" stroke="#000000" stroke-width="10" fill="none"/>
<polyline points="2781300,1879600 2781300,2184400" stroke="#000000" stroke-width="10" fill="none"/>
<polyline points="2730500,1879600 2730500,2184400" stroke="#000000" stroke-width="10" fill="none"/>
<polyline points="2501900,1879600 2501900,1993900" stroke="#000000" stroke-width="10" fill="none"/>
<polyline points="2628900,558800 2628900,812800" stroke="#000000" stroke-width="10" fill="none"/>
<polyline points="2654300,558800 2654300,812800" stroke="#000000" stroke-width="10" fill="none"/>
<polyline points="2705100,558800 2705100,812800" stroke="#000000" stroke-width="10" fill="none"/>
<polyline points="2806700,558800 2806700,812800" stroke="#000000" stroke-width="10" fill="none"/>
<polyline points="2870200,558800 2870200,812800" stroke="#000000" stroke-width="10" fill="none"/>
<polyline points="838200,406400 2108200,406400" stroke="#000000" stroke-width="10" fill="none"/>
<polyline points="901700,457200 2108200,457200" stroke="#000000" stroke-width="10" fill="none"/>
<polyline points="927100,482600 2108200,482600" stroke="#000000" stroke-width="10" fill="none"/>
<polyline points="2501900,558800 2501900,812800" stroke="#000000" stroke-width="10" fill="none"/>
<polyline points="2679700,558800 2679700,812800" stroke="#000000" stroke-width="10" fill="none"/>
<polyline points="2781300,558800 2781300,812800" stroke="#000000" stroke-width="10" fill="none"/>
<polyline points="2628900,1879600 2628900,2184400" stroke="#000000" stroke-width="10" fill="none"/>
<polyline points="2705100,1879600 2705100,2184400" stroke="#000000" stroke-width="10" fill="none"/>
<polyline points="2806700,1879600 2806700,2184400" stroke="#000000" stroke-width="10" fill="none"/>
<polyline points="2755900,1879600 2755900,2184400" stroke="#000000" stroke-width="10" fill="none"/>
<polyline points="2959100,1612900 3390900,1612900" stroke="#000000" stroke-width="10" fill="none"/>
<polyline points="2959100,1460500 3390900,1460500" stroke="#000000" stroke-width="10" fill="none"/>
<rect x="0" y="0" width="5000" height="5000" stroke="red" stroke-width="10" fill="none"/>
<rect x="0" y="0" width="5000" height="5000" stroke="red" stroke-width="10" fill="none"/>
<rect x="0" y="0" width="5000" height="5000" stroke="red" stroke-width="10" fill="none"/>
<rect x="0" y="0" width="5000" height="5000" stroke="red" stroke-width="10" fill="none"/>
<rect x="0" y="0" width="5000" height="5000" stroke="red" stroke-width="10" fill="none"/>
<rect x="0" y="0" width="5000" height="5000" stroke="red" stroke-width="10" fill="none"/>
<rect x="0" y="0" width="5000" height="5000" stroke="red" stroke-width="10" fill="none"/>
<rect x="0" y="0" width="5000" height="5000" stroke="red" stroke-width="10" fill="none"/>
<rect x="0" y="0" width="5000" height="5000" stroke="red" stroke-width="10" fill="none"/>
<rect x="0" y="0" width="5000" height="5000" stroke="red" stroke-width="10" fill="none"/>
<rect x="0" y="0" width="5000" height="5000" stroke="red" stroke-width="10" fill="none"/>
<rect x="0" y="0" width="5000" height="5000" stroke="red" stroke-width="10" fill="none"/>
<rect x="0" y="0" width="5000" height="5000" stroke="red" stroke-width="10" fill="none"/>
<rect x="0" y="0" width="5000" height="5000" stroke="red" stroke-width="10" fill="none"/>
<rect x="0" y="0" width="5000" height="5000" stroke="red" stroke-width="10" fill="none"/>
<rect x="0" y="0" width="5000" height="5000" stroke="red" stroke-width="10" fill="none"/>
<rect x="0" y="0" width="5000" height="5000" stroke="red" stroke-width="10" fill="none"/>
<rect x="0" y="0" width="5000" height="5000" stroke="red" stroke-width="10" fill="none"/>
<rect x="0" y="0" width="5000" height="5000" stroke="red" stroke-width="10" fill="none"/>
<rect x="1638300" y="1384300" width="5000" height="5000" stroke="red" stroke-width="10" fill="none"/>
<rect x="0" y="0" width="5000" height="5000" stroke="red" stroke-width="10" fill="none"/>
<rect x="0" y="0" width="5000" height="5000" stroke="red" stroke-width="10" fill="none"/>
<rect x="0" y="0" width="5000" height="5000" stroke="red" stroke-width="10" fill="none"/>
<rect x="0" y="0" width="5000" height="5000" stroke="red" stroke-width="10" fill="none"/>
<rect x="0" y="50518" width="5000" height="5000" stroke="red" stroke-width="10" fill="none"/>
<rect x="0" y="50518" width="5000" height="5000" stroke="red" stroke-width="10" fill="none"/>
<rect x="495300" y="1041400" width="5000" height="5000" stroke="red" stroke-width="10" fill="none"/>
<rect x="0" y="0" width="5000" height="5000" stroke="red" stroke-width="10" fill="none"/>
<rect x="0" y="0" width="5000" height="5000" stroke="red" stroke-width="10" fill="none"/>
<rect x="0" y="0" width="5000" height="5000" stroke="red" stroke-width="10" fill="none"/>
<rect x="0" y="0" width="5000" height="5000" stroke="red" stroke-width="10" fill="none"/>
<rect x="0" y="0" width="5000" height="5000" stroke="red" stroke-width="10" fill="none"/>
<rect x="0" y="0" width="5000" height="5000" stroke="red" stroke-width="10" fill="none"/>
<rect x="0" y="0" width="5000" height="5000" stroke="red" stroke-width="10" fill="none"/>
<rect x="0" y="0" width="5000" height="5000" stroke="red" stroke-width="10" fill="none"/>
<rect x="0" y="0" width="5000" height="5000" stroke="red" stroke-width="10" fill="none"/>
<rect x="0" y="0" width="5000" height="5000" stroke="red" stroke-width="10" fill="none"/>
<rect x="0" y="0" width="5000" height="5000" stroke="red" stroke-width="10" fill="none"/>
<rect x="0" y="0" width="5000" height="5000" stroke="red" stroke-width="10" fill="none"/>
<rect x="0" y="0" width="5000" height="5000" stroke="red" stroke-width="10" fill="none"/>
<rect x="0" y="0" width="5000" height="5000" stroke="red" stroke-width="10" fill="none"/>
<rect x="0" y="0" width="5000" height="5000" stroke="red" stroke-width="10" fill="none"/>
<rect x="0" y="0" width="5000" height="5000" stroke="red" stroke-width="10" fill="none"/>
<rect x="0" y="92604" width="5000" height="5000" stroke="red" stroke-width="10" fill="none"/>
<rect x="1968500" y="1104900" width="5000" height="5000" stroke="red" stroke-width="10" fill="none"/>
<rect x="0" y="50518" width="5000" height="5000" stroke="red" stroke-width="10" fill="none"/>
<rect x="1511300" y="1612900" width="5000" height="5000" stroke="red" stroke-width="10" fill="none"/>
<rect x="0" y="50518" width="5000" height="5000" stroke="red" stroke-width="10" fill="none"/>
<rect x="0" y="50518" width="5000" height="5000" stroke="red" stroke-width="10" fill="none"/>
<rect x="1790700" y="2260600" width="5000" height="5000" stroke="red" stroke-width="10" fill="none"/>
<rect x="0" y="50518" width="5000" height="5000" stroke="red" stroke-width="10" fill="none"/>
<rect x="2019300" y="876300" width="5000" height="5000" stroke="red" stroke-width="10" fill="none"/>
<rect x="0" y="60812" width="5000" height="5000" stroke="red" stroke-width="10" fill="none"/>
<rect x="419100" y="1206500" width="5000" height="5000" stroke="red" stroke-width="10" fill="none"/>
<rect x="0" y="50518" width="5000" height="5000" stroke="red" stroke-width="10" fill="none"/>
<rect x="0" y="50518" width="5000" height="5000" stroke="red" stroke-width="10" fill="none"/>
<rect x="0" y="0" width="5000" height="5000" stroke="red" stroke-width="10" fill="none"/>
<rect x="0" y="89544" width="5000" height="5000" stroke="red" stroke-width="10" fill="none"/>
<rect x="2197100" y="3327400" width="5000" height="5000" stroke="red" stroke-width="10" fill="none"/>
<rect x="0" y="100831" width="5000" height="5000" stroke="red" stroke-width="10" fill="none"/>
<rect x="495300" y="2146300" width="5000" height="5000" stroke="red" stroke-width="10" fill="none"/>
<rect x="0" y="0" width="5000" height="5000" stroke="red" stroke-width="10" fill="none"/>
<rect x="0" y="0" width="5000" height="5000" stroke="red" stroke-width="10" fill="none"/>
<rect x="0" y="0" width="5000" height="5000" stroke="red" stroke-width="10" fill="none"/>
<rect x="0" y="0" width="5000" height="5000" stroke="red" stroke-width="10" fill="none"/>
<rect x="0" y="0" width="5000" height="5000" stroke="red" stroke-width="10" fill="none"/>
<rect x="0" y="60812" width="5000" height="5000" stroke="red" stroke-width="10" fill="none"/>
<rect x="0" y="60812" width="5000" height="5000" stroke="red" stroke-width="10" fill="none"/>
<rect x="812800" y="2603500" width="5000" height="5000" stroke="red" stroke-width="10" fill="none"/>
<rect x="0" y="0" width="5000" height="5000" stroke="red" stroke-width="10" fill="none"/>
<rect x="0" y="0" width="5000" height="5000" stroke="red" stroke-width="10" fill="none"/>
<rect x="2184400" y="2832100" width="5000" height="5000" stroke="red" stroke-width="10" fill="none"/>
<rect x="2184400" y="2781300" width="5000" height="5000" stroke="red" stroke-width="10" fill="none"/>
<rect x="2184400" y="2730500" width="5000" height="5000" stroke="red" stroke-width="10" fill="none"/>
<rect x="1993900" y="2501900" width="5000" height="5000" stroke="red" stroke-width="10" fill="none"/>
<rect x="812800" y="2654300" width="5000" height="5000" stroke="red" stroke-width="10" fill="none"/>
<rect x="812800" y="2705100" width="5000" height="5000" stroke="red" stroke-width="10" fill="none"/>
<rect x="812800" y="2806700" width="5000" height="5000" stroke="red" stroke-width="10" fill="none"/>
<rect x="812800" y="2870200" width="5000" height="5000" stroke="red" stroke-width="10" fill="none"/>
<rect x="1371600" y="838200" width="5000" height="5000" stroke="red" stroke-width="10" fill="none"/>
<rect x="812800" y="2781300" width="5000" height="5000" stroke="red" stroke-width="10" fill="none"/>
<rect x="419100" y="3098800" width="5000" height="5000" stroke="red" stroke-width="10" fill="none"/>
<rect x="2184400" y="2705100" width="5000" height="5000" stroke="red" stroke-width="10" fill="none"/>
<rect x="2184400" y="2806700" width="5000" height="5000" stroke="red" stroke-width="10" fill="none"/>
<rect x="2184400" y="2755900" width="5000" height="5000" stroke="red" stroke-width="10" fill="none"/>
<rect x="1612900" y="3390900" width="5000" height="5000" stroke="red" stroke-width="10" fill="none"/>
<rect x="0" y="0" width="5000" height="5000" stroke="red" stroke-width="10" fill="none"/>
<rect x="0" y="0" width="5000" height="5000" stroke="red" stroke-width="10" fill="none"/>
</svg>