<?xml version="1.0" encoding="UTF-8" standalone="no"?>
<svg xmlns="http://www.w3.org/2000/svg" version="1.1" width="17000mil" height="11000mil" viewBox="0 0 1700000 1100000">
<rect x="0" y="0" width="1700000" height="1100000" fill="white"/>
<polyline points="292100,990600 469900,990600" stroke="#000000" stroke-width="10" fill="none"/>
<polyline points="1701800,939800 1828800,939800" stroke="#000000" stroke-width="10" fill="none"/>
<polyline points="2400300,889000 2540000,889000" stroke="#000000" stroke-width="10" fill="none"/>
<polyline points="3924300,863600 4025900,863600" stroke="#000000" stroke-width="10" fill="none"/>
<polyline points="3378200,1587500 3873500,1587500" stroke="#000000" stroke-width="10" fill="none"/>
<polyline points="520700,1231900 762000,1231900" stroke="#000000" stroke-width="10" fill="none"/>
<polyline points="2590800,1638300 3022600,1638300" stroke="#000000" stroke-width="10" fill="none"/>
<polyline points="1498600,1282700 1651000,1282700" stroke="#000000" stroke-width="10" fill="none"/>
<polyline points="3378200,1435100 3873500,1435100" stroke="#000000" stroke-width="10" fill="none"/>
<polyline points="1498600,1028700 1651000,1028700" stroke="#000000" stroke-width="10" fill="none"/>
<polyline points="2590800,1612900 3022600,1612900" stroke="#000000" stroke-width="10" fill="none"/>
<polyline points="1498600,1333500 1651000,1333500" stroke="#000000" stroke-width="10" fill="none"/>
<polyline points="2590800,1511300 3022600,1511300" stroke="#000000" stroke-width="10" fill="none"/>
<polyline points="520700,1333500 762000,1333500" stroke="#000000" stroke-width="10" fill="none"/>
<polyline points="3378200,1562100 3873500,1562100" stroke="#000000" stroke-width="10" fill="none"/>
<polyline points="520700,1282700 762000,1282700" stroke="#000000" stroke-width="10" fill="none"/>
<polyline points="3378200,1384300 3873500,1384300" stroke="#000000" stroke-width="10" fill="none"/>
<polyline points="1498600,1485900 1651000,1485900" stroke="#000000" stroke-width="10" fill="none"/>
<polyline points="2590800,1562100 3022600,1562100" stroke="#000000" stroke-width="10" fill="none"/>
<polyline points="520700,1079500 762000,1079500" stroke="#000000" stroke-width="10" fill="none"/>
<polyline points="2590800,1358900 3022600,1358900" stroke="#000000" stroke-width="10" fill="none"/>
<polyline points="520700,1181100 762000,1181100" stroke="#000000" stroke-width="10" fill="none"/>
<polyline points="3378200,1638300 3873500,1638300" stroke="#000000" stroke-width="10" fill="none"/>
<polyline points="1498600,1587500 1651000,1587500" stroke="#000000" stroke-width="10" fill="none"/>
<polyline points="2590800,1384300 3022600,1384300" stroke="#000000" stroke-width="10" fill="none"/>
<polyline points="520700,1130300 762000,1130300" stroke="#000000" stroke-width="10" fill="none"/>
<polyline points="3378200,1485900 3873500,1485900" stroke="#000000" stroke-width="10" fill="none"/>
<polyline points="520700,1485900 762000,1485900" stroke="#000000" stroke-width="10" fill="none"/>
<polyline points="3378200,1612900 3873500,1612900" stroke="#000000" stroke-width="10" fill="none"/>
<polyline points="1498600,1638300 1651000,1638300" stroke="#000000" stroke-width="10" fill="none"/>
<polyline points="3378200,1511300 3873500,1511300" stroke="#000000" stroke-width="10" fill="none"/>
<polyline points="520700,1435100 762000,1435100" stroke="#000000" stroke-width="10" fill="none"/>
<polyline points="2590800,1435100 3022600,1435100" stroke="#000000" stroke-width="10" fill="none"/>
<polyline points="1498600,1130300 1651000,1130300" stroke="#000000" stroke-width="10" fill="none"/>
<polyline points="3378200,1460500 3873500,1460500" stroke="#000000" stroke-width="10" fill="none"/>
<polyline points="1498600,977900 1651000,977900" stroke="#000000" stroke-width="10" fill="none"/>
<polyline points="2590800,1308100 3022600,1308100" stroke="#000000" stroke-width="10" fill="none"/>
<polyline points="1498600,1231900 1651000,1231900" stroke="#000000" stroke-width="10" fill="none"/>
<polyline points="2590800,1485900 3022600,1485900" stroke="#000000" stroke-width="10" fill="none"/>
<polyline points="520700,1384300 762000,1384300" stroke="#000000" stroke-width="10" fill="none"/>
<polyline points="2590800,1587500 3022600,1587500" stroke="#000000" stroke-width="10" fill="none"/>
<polyline points="520700,1028700 762000,1028700" stroke="#000000" stroke-width="10" fill="none"/>
<polyline points="3378200,1358900 3873500,1358900" stroke="#000000" stroke-width="10" fill="none"/>
<polyline points="1498600,1536700 1651000,1536700" stroke="#000000" stroke-width="10" fill="none"/>
<polyline points="3378200,1308100 3873500,1308100" stroke="#000000" stroke-width="10" fill="none"/>
<polyline points="1498600,1435100 1651000,1435100" stroke="#000000" stroke-width="10" fill="none"/>
<polyline points="2590800,1460500 3022600,1460500" stroke="#000000" stroke-width="10" fill="none"/>
<polyline points="1498600,1079500 1651000,1079500" stroke="#000000" stroke-width="10" fill="none"/>
<polyline points="596900,1562100 596900,1587500" stroke="#000000" stroke-width="10" fill="none"/>
<polyline points="2768600,723900 2819400,723900" stroke="#000000" stroke-width="10" fill="none"/>
<polyline points="3556000,723900 3606800,723900" stroke="#000000" stroke-width="10" fill="none"/>
<polyline points="3378200,1333500 3873500,1333500" stroke="#000000" stroke-width="10" fill="none"/>
<polyline points="1498600,1384300 1651000,1384300" stroke="#000000" stroke-width="10" fill="none"/>
<polyline points="2590800,1333500 3022600,1333500" stroke="#000000" stroke-width="10" fill="none"/>
<polyline points="1498600,1181100 1651000,1181100" stroke="#000000" stroke-width="10" fill="none"/>
<polyline points="3378200,1257300 3873500,1257300" stroke="#000000" stroke-width="10" fill="none"/>
<polyline points="3378200,1181100 3873500,1181100" stroke="#000000" stroke-width="10" fill="none"/>
<polyline points="3378200,927100 3873500,927100" stroke="#000000" stroke-width="10" fill="none"/>
<polyline points="2590800,1054100 3022600,1054100" stroke="#000000" stroke-width="10" fill="none"/>
<polyline points="3378200,977900 3873500,977900" stroke="#000000" stroke-width="10" fill="none"/>
<polyline points="3378200,1003300 3873500,1003300" stroke="#000000" stroke-width="10" fill="none"/>
<polyline points="3378200,1104900 3873500,1104900" stroke="#000000" stroke-width="10" fill="none"/>
<polyline points="2590800,1257300 3022600,1257300" stroke="#000000" stroke-width="10" fill="none"/>
<polyline points="3378200,1054100 3873500,1054100" stroke="#000000" stroke-width="10" fill="none"/>
<polyline points="2590800,1206500 3022600,1206500" stroke="#000000" stroke-width="10" fill="none"/>
<polyline points="3378200,1231900 3873500,1231900" stroke="#000000" stroke-width="10" fill="none"/>
<polyline points="3378200,1079500 3873500,1079500" stroke="#000000" stroke-width="10" fill="none"/>
<polyline points="2590800,977900 3022600,977900" stroke="#000000" stroke-width="10" fill="none"/>
<polyline points="2590800,1130300 3022600,1130300" stroke="#000000" stroke-width="10" fill="none"/>
<polyline points="2590800,927100 3022600,927100" stroke="#000000" stroke-width="10" fill="none"/>
<polyline points="2590800,1104900 3022600,1104900" stroke="#000000" stroke-width="10" fill="none"/>
<polyline points="2590800,1079500 3022600,1079500" stroke="#000000" stroke-width="10" fill="none"/>
<polyline points="2590800,1181100 3022600,1181100" stroke="#000000" stroke-width="10" fill="none"/>
<polyline points="2590800,1003300 3022600,1003300" stroke="#000000" stroke-width="10" fill="none"/>
<polyline points="2590800,1231900 3022600,1231900" stroke="#000000" stroke-width="10" fill="none"/>
<polyline points="3378200,1206500 3873500,1206500" stroke="#000000" stroke-width="10" fill="none"/>
<polyline points="2590800,952500 3022600,952500" stroke="#000000" stroke-width="10" fill="none"/>
<polyline points="3378200,1130300 3873500,1130300" stroke="#000000" stroke-width="10" fill="none"/>
<polyline points="3378200,952500 3873500,952500" stroke="#000000" stroke-width="10" fill="none"/>
</svg>