<?xml version="1.0" encoding="UTF-8" standalone="no"?>
<svg xmlns="http://www.w3.org/2000/svg" version="1.1" width="17000mil" height="11000mil" viewBox="0 0 1700000 1100000">
<rect x="0" y="0" width="1700000" height="1100000" fill="white"/>
<polyline points="2959100,1714500 3390900,1714500" stroke="#000000" stroke-width="10" fill="none"/>
<polyline points="2451100,558800 2451100,812800" stroke="#000000" stroke-width="10" fill="none"/>
<polyline points="2603500,558800 2603500,812800" stroke="#000000" stroke-width="10" fill="none"/>
<polyline points="1663700,1155700 2247900,1155700" stroke="#000000" stroke-width="10" fill="none"/>
<polyline points="1663700,1181100 2247900,1181100" stroke="#000000" stroke-width="10" fill="none"/>
<polyline points="1663700,1206500 2247900,1206500" stroke="#000000" stroke-width="10" fill="none"/>
<polyline points="1663700,1231900 2247900,1231900" stroke="#000000" stroke-width="10" fill="none"/>
<polyline points="1663700,1257300 2247900,1257300" stroke="#000000" stroke-width="10" fill="none"/>
<polyline points="1663700,1282700 2247900,1282700" stroke="#000000" stroke-width="10" fill="none"/>
<polyline points="1663700,1333500 2247900,1333500" stroke="#000000" stroke-width="10" fill="none"/>
<polyline points="1663700,1384300 2247900,1384300" stroke="#000000" stroke-width="10" fill="none"/>
<polyline points="1663700,1435100 2247900,1435100" stroke="#000000" stroke-width="10" fill="none"/>
<polyline points="1663700,1409700 2247900,1409700" stroke="#000000" stroke-width="10" fill="none"/>
<polyline points="1663700,1358900 2247900,1358900" stroke="#000000" stroke-width="10" fill="none"/>
<polyline points="2654300,1879600 2654300,2184400" stroke="#000000" stroke-width="10" fill="none"/>
<polyline points="1206500,901700 1651000,901700" stroke="#000000" stroke-width="10" fill="none"/>
<polyline points="1206500,1524000 2247900,1524000" stroke="#000000" stroke-width="10" fill="none"/>
<polyline points="1168400,1574800 2247900,1574800" stroke="#000000" stroke-width="10" fill="none"/>
<polyline points="1168400,1600200 2247900,1600200" stroke="#000000" stroke-width="10" fill="none"/>
<polyline points="1168400,1625600 2247900,1625600" stroke="#000000" stroke-width="10" fill="none"/>
<polyline points="1168400,1651000 2247900,1651000" stroke="#000000" stroke-width="10" fill="none"/>
<polyline points="1168400,1676400 2247900,1676400" stroke="#000000" stroke-width="10" fill="none"/>
<polyline points="1168400,1727200 2247900,1727200" stroke="#000000" stroke-width="10" fill="none"/>
<polyline points="1168400,1752600 2247900,1752600" stroke="#000000" stroke-width="10" fill="none"/>
<polyline points="2387600,1879600 2387600,1892300" stroke="#000000" stroke-width="10" fill="none"/>
<polyline points="2413000,1879600 2413000,1917700" stroke="#000000" stroke-width="10" fill="none"/>
<polyline points="2438400,1879600 2438400,1943100" stroke="#000000" stroke-width="10" fill="none"/>
<polyline points="1168400,2070100 2578100,2070100" stroke="#000000" stroke-width="10" fill="none"/>
<polyline points="1968500,889000 2247900,889000" stroke="#000000" stroke-width="10" fill="none"/>
<polyline points="1968500,914400 2247900,914400" stroke="#000000" stroke-width="10" fill="none"/>
<polyline points="1968500,939800 2247900,939800" stroke="#000000" stroke-width="10" fill="none"/>
<polyline points="1968500,965200 2247900,965200" stroke="#000000" stroke-width="10" fill="none"/>
<polyline points="1968500,990600 2247900,990600" stroke="#000000" stroke-width="10" fill="none"/>
<polyline points="1968500,1016000 2247900,1016000" stroke="#000000" stroke-width="10" fill="none"/>
<polyline points="1968500,1041400 2247900,1041400" stroke="#000000" stroke-width="10" fill="none"/>
<polyline points="1968500,1066800 2247900,1066800" stroke="#000000" stroke-width="10" fill="none"/>
<polyline points="2959100,1308100 3390900,1308100" stroke="#000000" stroke-width="10" fill="none"/>
<polyline points="2959100,1536700 3390900,1536700" stroke="#000000" stroke-width="10" fill="none"/>
<polyline points="2959100,1663700 3390900,1663700" stroke="#000000" stroke-width="10" fill="none"/>
<polyline points="2959100,1282700 3390900,1282700" stroke="#000000" stroke-width="10" fill="none"/>
<polyline points="2959100,1587500 3390900,1587500" stroke="#000000" stroke-width="10" fill="none"/>
<polyline points="2959100,1206500 3390900,1206500" stroke="#000000" stroke-width="10" fill="none"/>
<polyline points="2959100,1155700 3390900,1155700" stroke="#000000" stroke-width="10" fill="none"/>
<polyline points="2959100,1333500 3390900,1333500" stroke="#000000" stroke-width="10" fill="none"/>
<polyline points="2959100,1435100 3390900,1435100" stroke="#000000" stroke-width="10" fill="none"/>
<polyline points="1168400,2171700 2501900,2171700" stroke="#000000" stroke-width="10" fill="none"/>
<polyline points="1168400,2019300 2527300,2019300" stroke="#000000" stroke-width="10" fill="none"/>
<polyline points="1168400,2146300 2527300,2146300" stroke="#000000" stroke-width="10" fill="none"/>
<polyline points="2959100,1384300 3390900,1384300" stroke="#000000" stroke-width="10" fill="none"/>
<polyline points="2959100,1358900 3390900,1358900" stroke="#000000" stroke-width="10" fill="none"/>
<polyline points="2959100,1485900 3390900,1485900" stroke="#000000" stroke-width="10" fill="none"/>
<polyline points="2959100,1562100 3390900,1562100" stroke="#000000" stroke-width="10" fill="none"/>
<polyline points="2959100,1231900 3390900,1231900" stroke="#000000" stroke-width="10" fill="none"/>
<polyline points="2959100,1181100 3390900,1181100" stroke="#000000" stroke-width="10" fill="none"/>
<polyline points="2959100,1130300 3390900,1130300" stroke="#000000" stroke-width="10" fill="none"/>
<polyline points="2527300,558800 2527300,812800" stroke="#000000" stroke-width="10" fill="none"/>
<polyline points="2476500,558800 2476500,812800" stroke="#000000" stroke-width="10" fill="none"/>
<polyline points="2857500,1879600 2857500,2184400" stroke="#000000" stroke-width="10" fill="none"/>
<polyline points="2832100,1879600 2832100,2184400" stroke="#000000" stroke-width="10" fill="none"/>
<polyline points="2781300,1879600 2781300,2184400" stroke="#000000" stroke-width="10" fill="none"/>
<polyline points="2730500,1879600 2730500,2184400" stroke="#000000" stroke-width="10" fill="none"/>
<polyline points="2501900,1879600 2501900,1993900" stroke="#000000" stroke-width="10" fill="none"/>
<polyline points="2628900,558800 2628900,812800" stroke="#000000" stroke-width="10" fill="none"/>
<polyline points="2654300,558800 2654300,812800" stroke="#000000" stroke-width="10" fill="none"/>
<polyline points="2705100,558800 2705100,812800" stroke="#000000" stroke-width="10" fill="none"/>
<polyline points="2806700,558800 2806700,812800" stroke="#000000" stroke-width="10" fill="none"/>
<polyline points="2870200,558800 2870200,812800" stroke="#000000" stroke-width="10" fill="none"/>
<polyline points="838200,406400 2108200,406400" stroke="#000000" stroke-width="10" fill="none"/>
<polyline points="901700,457200 2108200,457200" stroke="#000000" stroke-width="10" fill="none"/>
<polyline points="927100,482600 2108200,482600" stroke="#000000" stroke-width="10" fill="none"/>
<polyline points="2501900,558800 2501900,812800" stroke="#000000" stroke-width="10" fill="none"/>
<polyline points="2679700,558800 2679700,812800" stroke="#000000" stroke-width="10" fill="none"/>
<polyline points="2781300,558800 2781300,812800" stroke="#000000" stroke-width="10" fill="none"/>
<polyline points="2628900,1879600 2628900,2184400" stroke="#000000" stroke-width="10" fill="none"/>
<polyline points="2705100,1879600 2705100,2184400" stroke="#000000" stroke-width="10" fill="none"/>
<polyline points="2806700,1879600 2806700,2184400" stroke="#000000" stroke-width="10" fill="none"/>
<polyline points="2755900,1879600 2755900,2184400" stroke="#000000" stroke-width="10" fill="none"/>
<polyline points="2959100,1612900 3390900,1612900" stroke="#000000" stroke-width="10" fill="none"/>
<polyline points="2959100,1460500 3390900,1460500" stroke="#000000" stroke-width="10" fill="none"/>
<text x="-457200" y="-101600" font-family="Arial" font-size="2000" fill="blue">DSP_FLAG</text>
<text x="342900" y="228600" font-family="Arial" font-size="2000" fill="blue">I2C_SCL</text>
<text x="-127000" y="228600" font-family="Arial" font-size="2000" fill="blue">JTAG_TDO</text>
<text x="243800" y="114300" font-family="Arial" font-size="2000" fill="blue">UART_TX</text>
<text x="510500" y="114300" font-family="Arial" font-size="2000" fill="blue">USER_LED</text>
<text x="764500" y="114300" font-family="Arial" font-size="2000" fill="blue">VADC_P</text>
<text x="-353100" y="774700" font-family="Arial" font-size="2000" fill="blue">BOARD_RESET_L</text>
<text x="15200" y="774700" font-family="Arial" font-size="2000" fill="blue">JTAG_BOOT_EN</text>
<text x="116800" y="774700" font-family="Arial" font-size="2000" fill="blue">JTAG_TCK</text>
<text x="218400" y="774700" font-family="Arial" font-size="2000" fill="blue">JTAG_TDI</text>
<text x="320000" y="774700" font-family="Arial" font-size="2000" fill="blue">JTAG_TMS</text>
<text x="688300" y="774700" font-family="Arial" font-size="2000" fill="blue">PROG_IO</text>
<text x="281900" y="774700" font-family="Arial" font-size="2000" fill="blue">PS_POR_L</text>
<text x="650200" y="774700" font-family="Arial" font-size="2000" fill="blue">UART_RX</text>
<text x="368300" y="228600" font-family="Arial" font-size="2000" fill="blue">I2C_SDA</text>
<text x="15200" y="584200" font-family="Arial" font-size="2000" fill="blue">TURBO_MODE</text>
<text x="-307300" y="114300" font-family="Arial" font-size="2000" fill="blue">VADC_N</text>
<text x="25400" y="215900" font-family="Arial" font-size="2000" fill="blue">P1_USB_24M_REFCLK</text>
<text x="320000" y="101600" font-family="Arial" font-size="2000" fill="blue">P1_USB_STP</text>
<text x="91400" y="279400" font-family="Arial" font-size="2000" fill="blue">P1_USB_CLK</text>
<text x="193000" y="279400" font-family="Arial" font-size="2000" fill="blue">P1_USB_DIR</text>
<text x="294600" y="279400" font-family="Arial" font-size="2000" fill="blue">P1_USB_NXT</text>
<text x="-152400" y="215900" font-family="Arial" font-size="2000" fill="blue">P0_USB_24M_REFCLK</text>
<text x="180300" y="101600" font-family="Arial" font-size="2000" fill="blue">P0_USB_STP</text>
<text x="66000" y="330200" font-family="Arial" font-size="2000" fill="blue">P0_USB_CLK</text>
<text x="167600" y="330200" font-family="Arial" font-size="2000" fill="blue">P0_USB_DIR</text>
<text x="269200" y="330200" font-family="Arial" font-size="2000" fill="blue">P0_USB_NXT</text>
<text x="-254000" y="-114300" font-family="Arial" font-size="2000" fill="blue">DDR_BA0</text>
<text x="-396200" y="0" font-family="Arial" font-size="2000" fill="blue">DDR_BA1</text>
<text x="-447000" y="0" font-family="Arial" font-size="2000" fill="blue">DDR_BA2</text>
<text x="-396200" y="0" font-family="Arial" font-size="2000" fill="blue">DDR_CAS_L</text>
<text x="-396200" y="0" font-family="Arial" font-size="2000" fill="blue">DDR_CKE</text>
<text x="624800" y="0" font-family="Arial" font-size="2000" fill="blue">DDR_CLK_P</text>
<text x="-751800" y="0" font-family="Arial" font-size="2000" fill="blue">DDR_CS_L</text>
<text x="-523200" y="0" font-family="Arial" font-size="2000" fill="blue">DDR_DM0</text>
<text x="-624800" y="0" font-family="Arial" font-size="2000" fill="blue">DDR_DM1</text>
<text x="-726400" y="0" font-family="Arial" font-size="2000" fill="blue">DDR_DM2</text>
<text x="-828000" y="0" font-family="Arial" font-size="2000" fill="blue">DDR_DM3</text>
<text x="-1767800" y="0" font-family="Arial" font-size="2000" fill="blue">DDR_ODT</text>
<text x="1666200" y="0" font-family="Arial" font-size="2000" fill="blue">DDR_RAS_L</text>
<text x="-1539200" y="0" font-family="Arial" font-size="2000" fill="blue">DDR_RST_L</text>
<text x="1767800" y="0" font-family="Arial" font-size="2000" fill="blue">DDR_WE_L</text>
<text x="523200" y="0" font-family="Arial" font-size="2000" fill="blue">DDR_CLK_N</text>
<text x="304800" y="-114300" font-family="Arial" font-size="2000" fill="blue">DDR_DQS</text>
<text x="101600" y="165100" font-family="Arial" font-size="2000" fill="blue">ETH_MDC</text>
<text x="193000" y="50800" font-family="Arial" font-size="2000" fill="blue">ETH_TXCLK</text>
<text x="294600" y="50800" font-family="Arial" font-size="2000" fill="blue">ETH_TXCTL</text>
<text x="-61000" y="228600" font-family="Arial" font-size="2000" fill="blue">ETH_RXCLK</text>
<text x="40600" y="228600" font-family="Arial" font-size="2000" fill="blue">ETH_RXCTL</text>
<text x="76200" y="165100" font-family="Arial" font-size="2000" fill="blue">ETH_MDIO</text>
<text x="177800" y="-251500" font-family="Arial" font-size="2000" fill="blue">HDMI_24M_CES_CLK</text>
<text x="177800" y="-149900" font-family="Arial" font-size="2000" fill="blue">HDMI_CLK_1</text>
<text x="177800" y="53300" font-family="Arial" font-size="2000" fill="blue">HDMI_DE</text>
<text x="177800" y="154900" font-family="Arial" font-size="2000" fill="blue">HDMI_HSYNC</text>
<text x="177800" y="256500" font-family="Arial" font-size="2000" fill="blue">HDMI_VSYNC</text>
<text x="177800" y="129500" font-family="Arial" font-size="2000" fill="blue">PS_I2C_SCL</text>
<text x="-38100" y="-365800" font-family="Arial" font-size="2000" fill="blue">PS_I2C_SDA</text>
<text x="-355600" y="-99100" font-family="Arial" font-size="2000" fill="blue">HDMI_INT</text>
<text x="139700" y="279400" font-family="Arial" font-size="2000" fill="blue">DSP_RESET_L</text>
<text x="25400" y="2364700" font-family="Arial" font-size="2000" fill="blue">TXI_EA_RD_WAIT_P</text>
<text x="25400" y="2567900" font-family="Arial" font-size="2000" fill="blue">TXI_EA_WR_WAIT_P</text>
<text x="25400" y="2796500" font-family="Arial" font-size="2000" fill="blue">RXI_CCLK_P</text>
<text x="91440" y="7785100" font-family="Arial" font-size="2000" fill="blue">DSP_MVDD</text>
<text x="193040" y="7785100" font-family="Arial" font-size="2000" fill="blue">DSP_MVSS</text>
<text x="7416800" y="180340" font-family="Arial" font-size="2000" fill="blue">RXO_EA_RD_WAIT</text>
<text x="7416800" y="281940" font-family="Arial" font-size="2000" fill="blue">RXO_EA_WR_WAIT_P</text>
<text x="25400" y="2745700" font-family="Arial" font-size="2000" fill="blue">RXI_CCLK_N</text>
<text x="25400" y="2466300" font-family="Arial" font-size="2000" fill="blue">TXI_EA_WR_WAIT_N</text>
<text x="25400" y="2263100" font-family="Arial" font-size="2000" fill="blue">TXI_EA_RD_WAIT_N</text>
<text x="7416800" y="231140" font-family="Arial" font-size="2000" fill="blue">RXO_EA_WR_WAIT_N</text>
<text x="7505700" y="1259840" font-family="Arial" font-size="2000" fill="blue">ELINK_TXO_EA</text>
<text x="7581900" y="1107440" font-family="Arial" font-size="2000" fill="blue">ELINK_RXI_EA</text>
</svg>