<?xml version="1.0" encoding="UTF-8" standalone="no"?>
<svg xmlns="http://www.w3.org/2000/svg" version="1.1" width="17000mil" height="11000mil" viewBox="0 0 1700000 1100000">
<rect x="0" y="0" width="1700000" height="1100000" fill="white"/>
<polyline points="1968500,1511300 2413000,1511300" stroke="#000000" stroke-width="10" fill="none"/>
<polyline points="1968500,1485900 2413000,1485900" stroke="#000000" stroke-width="10" fill="none"/>
<polyline points="1968500,1841500 2260600,1841500" stroke="#000000" stroke-width="10" fill="none"/>
<polyline points="1968500,1536700 2247900,1536700" stroke="#000000" stroke-width="10" fill="none"/>
<polyline points="1968500,1765300 2260600,1765300" stroke="#000000" stroke-width="10" fill="none"/>
<polyline points="1320800,1841500 1612900,1841500" stroke="#000000" stroke-width="10" fill="none"/>
<polyline points="1320800,1917700 1612900,1917700" stroke="#000000" stroke-width="10" fill="none"/>
<polyline points="1968500,1714500 2260600,1714500" stroke="#000000" stroke-width="10" fill="none"/>
<polyline points="1193800,1485900 1612900,1485900" stroke="#000000" stroke-width="10" fill="none"/>
<polyline points="1346200,1460500 1612900,1460500" stroke="#000000" stroke-width="10" fill="none"/>
<polyline points="3238500,711200 3378200,711200" stroke="#000000" stroke-width="10" fill="none"/>
<polyline points="1358900,1765300 1612900,1765300" stroke="#000000" stroke-width="10" fill="none"/>
<polyline points="1320800,1739900 1612900,1739900" stroke="#000000" stroke-width="10" fill="none"/>
<polyline points="1968500,1460500 2247900,1460500" stroke="#000000" stroke-width="10" fill="none"/>
<polyline points="1968500,1917700 2260600,1917700" stroke="#000000" stroke-width="10" fill="none"/>
<polyline points="1320800,1892300 1612900,1892300" stroke="#000000" stroke-width="10" fill="none"/>
<polyline points="990600,1892300 990600,1993900" stroke="#000000" stroke-width="10" fill="none"/>
<polyline points="2717800,1828800 2717800,1993900" stroke="#000000" stroke-width="10" fill="none"/>
<polyline points="1206500,647700 1308100,647700" stroke="#000000" stroke-width="10" fill="none"/>
<polyline points="1104900,1892300 1104900,1968500" stroke="#000000" stroke-width="10" fill="none"/>
<polyline points="2578100,1828800 2578100,1968500" stroke="#000000" stroke-width="10" fill="none"/>
<polyline points="1193800,1511300 1612900,1511300" stroke="#000000" stroke-width="10" fill="none"/>
<polyline points="1320800,1714500 1612900,1714500" stroke="#000000" stroke-width="10" fill="none"/>
<polyline points="2654300,419100 3378200,419100" stroke="#000000" stroke-width="10" fill="none"/>
<polyline points="2184400,1219200 2235200,1219200" stroke="#000000" stroke-width="10" fill="none"/>
<polyline points="1333500,1219200 1384300,1219200" stroke="#000000" stroke-width="10" fill="none"/>
<polyline points="1206500,495300 1625600,495300" stroke="#000000" stroke-width="10" fill="none"/>
<polyline points="3238500,508000 3238500,571500" stroke="#000000" stroke-width="10" fill="none"/>
<polyline points="762000,1892300 762000,2044700" stroke="#000000" stroke-width="10" fill="none"/>
<polyline points="3009900,1828800 3009900,2044700" stroke="#000000" stroke-width="10" fill="none"/>
<polyline points="1968500,1790700 2260600,1790700" stroke="#000000" stroke-width="10" fill="none"/>
<polyline points="419100,1892300 419100,2146300" stroke="#000000" stroke-width="10" fill="none"/>
<polyline points="3467100,1828800 3467100,2146300" stroke="#000000" stroke-width="10" fill="none"/>
<polyline points="1206500,571500 1308100,571500" stroke="#000000" stroke-width="10" fill="none"/>
<polyline points="876300,1892300 876300,2019300" stroke="#000000" stroke-width="10" fill="none"/>
<polyline points="2870200,1828800 2870200,2019300" stroke="#000000" stroke-width="10" fill="none"/>
<polyline points="1206500,419100 1625600,419100" stroke="#000000" stroke-width="10" fill="none"/>
<polyline points="2882900,533400 2959100,533400" stroke="#000000" stroke-width="10" fill="none"/>
<polyline points="2438400,228600 2438400,266700" stroke="#000000" stroke-width="10" fill="none"/>
<polyline points="304800,1892300 304800,2171700" stroke="#000000" stroke-width="10" fill="none"/>
<polyline points="3619500,1828800 3619500,2171700" stroke="#000000" stroke-width="10" fill="none"/>
<polyline points="647700,1892300 647700,2095500" stroke="#000000" stroke-width="10" fill="none"/>
<polyline points="3162300,1828800 3162300,2095500" stroke="#000000" stroke-width="10" fill="none"/>
<polyline points="533400,1892300 533400,2120900" stroke="#000000" stroke-width="10" fill="none"/>
<polyline points="3327400,1828800 3327400,2120900" stroke="#000000" stroke-width="10" fill="none"/>
<polyline points="1968500,1739900 2260600,1739900" stroke="#000000" stroke-width="10" fill="none"/>
<polyline points="1968500,1892300 2260600,1892300" stroke="#000000" stroke-width="10" fill="none"/>
<polyline points="1041400,1562100 1168400,1562100" stroke="#000000" stroke-width="10" fill="none"/>
<polyline points="1219200,1663700 1612900,1663700" stroke="#000000" stroke-width="10" fill="none"/>
<polyline points="1219200,1638300 1612900,1638300" stroke="#000000" stroke-width="10" fill="none"/>
<polyline points="1219200,1612900 1612900,1612900" stroke="#000000" stroke-width="10" fill="none"/>
<polyline points="1219200,1587500 1612900,1587500" stroke="#000000" stroke-width="10" fill="none"/>
<polyline points="2438400,1562100 2565400,1562100" stroke="#000000" stroke-width="10" fill="none"/>
<polyline points="1968500,1663700 2387600,1663700" stroke="#000000" stroke-width="10" fill="none"/>
<polyline points="1968500,1638300 2387600,1638300" stroke="#000000" stroke-width="10" fill="none"/>
<polyline points="1968500,1612900 2387600,1612900" stroke="#000000" stroke-width="10" fill="none"/>
<polyline points="1968500,1587500 2387600,1587500" stroke="#000000" stroke-width="10" fill="none"/>
<text x="33020" y="27940" font-family="Arial" font-size="2000" fill="blue">VCC_BAR</text>
<text x="190500" y="0" font-family="Arial" font-size="2000" fill="blue">CONNECTOR_SIGNAL_MODEL</text>
<text x="50800" y="-63500" font-family="Arial" font-size="2000" fill="blue">VCC</text>
<text x="50800" y="292100" font-family="Arial" font-size="2000" fill="blue">RST_L</text>
<text x="165100" y="101600" font-family="Arial" font-size="2000" fill="blue">GND</text>
<text x="-25400" y="5080" font-family="Arial" font-size="2000" fill="blue">G</text>
<text x="-17780" y="-50800" font-family="Arial" font-size="2000" fill="blue">B</text>
<text x="-5080" y="38100" font-family="Arial" font-size="2000" fill="blue">S</text>
<text x="-30480" y="38100" font-family="Arial" font-size="2000" fill="blue">B</text>
<text x="-5080" y="-63500" font-family="Arial" font-size="2000" fill="blue">S</text>
<text x="0" y="-50800" font-family="Arial" font-size="2000" fill="blue">A</text>
<text x="0" y="-254000" font-family="Arial" font-size="2000" fill="blue">A</text>
<text x="0" y="38100" font-family="Arial" font-size="2000" fill="blue">A</text>
<text x="88900" y="25400" font-family="Arial" font-size="2000" fill="blue">2</text>
<text x="-38100" y="25400" font-family="Arial" font-size="2000" fill="blue">1</text>
<text x="25400" y="88900" font-family="Arial" font-size="2000" fill="blue">C</text>
<text x="25400" y="-38100" font-family="Arial" font-size="2000" fill="blue">A</text>
<text x="25400" y="139700" font-family="Arial" font-size="2000" fill="blue">B</text>
<text x="25400" y="-63500" font-family="Arial" font-size="2000" fill="blue">A</text>
<text x="76200" y="215900" font-family="Arial" font-size="2000" fill="blue">Y</text>
<text x="101600" y="-63500" font-family="Arial" font-size="2000" fill="blue">A</text>
<text x="1016000" y="1106495" font-family="Arial" font-size="2000" fill="blue">R98</text>
<text x="1016000" y="1091240" font-family="Arial" font-size="2000" fill="blue">resistor</text>
<text x="444500" y="2135195" font-family="Arial" font-size="2000" fill="blue">R96</text>
<text x="444500" y="2119940" font-family="Arial" font-size="2000" fill="blue">resistor</text>
<text x="546100" y="2300295" font-family="Arial" font-size="2000" fill="blue">R95</text>
<text x="546100" y="2285040" font-family="Arial" font-size="2000" fill="blue">resistor</text>
<text x="622300" y="1411295" font-family="Arial" font-size="2000" fill="blue">R300</text>
<text x="622300" y="1396040" font-family="Arial" font-size="2000" fill="blue">resistor</text>
<text x="787400" y="2592395" font-family="Arial" font-size="2000" fill="blue">R294</text>
<text x="787400" y="2577140" font-family="Arial" font-size="2000" fill="blue">resistor</text>
<text x="596900" y="3240095" font-family="Arial" font-size="2000" fill="blue">R295</text>
<text x="596900" y="3224840" font-family="Arial" font-size="2000" fill="blue">resistor</text>
<text x="2362200" y="1360495" font-family="Arial" font-size="2000" fill="blue">R30</text>
<text x="2362200" y="1345240" font-family="Arial" font-size="2000" fill="blue">resistor</text>
<text x="546100" y="1360495" font-family="Arial" font-size="2000" fill="blue">R298</text>
<text x="546100" y="1345240" font-family="Arial" font-size="2000" fill="blue">resistor</text>
<text x="749300" y="1462095" font-family="Arial" font-size="2000" fill="blue">R301</text>
<text x="749300" y="1446840" font-family="Arial" font-size="2000" fill="blue">resistor</text>
<text x="749300" y="1563695" font-family="Arial" font-size="2000" fill="blue">R299</text>
<text x="749300" y="1548440" font-family="Arial" font-size="2000" fill="blue">resistor</text>
<text x="342900" y="2490795" font-family="Arial" font-size="2000" fill="blue">R326</text>
<text x="342900" y="2475540" font-family="Arial" font-size="2000" fill="blue">resistor</text>
<text x="2235200" y="1401167" font-family="Arial" font-size="2000" fill="blue">CR10</text>
<text x="368300" y="1693267" font-family="Arial" font-size="2000" fill="blue">U34</text>
<text x="1270000" y="1338485" font-family="Arial" font-size="2000" fill="blue">C279</text>
<text x="1270000" y="1321329" font-family="Arial" font-size="2000" fill="blue">capacitor</text>
<text x="1270000" y="2240185" font-family="Arial" font-size="2000" fill="blue">C274</text>
<text x="1270000" y="2223029" font-family="Arial" font-size="2000" fill="blue">capacitor</text>
<text x="2222500" y="2583085" font-family="Arial" font-size="2000" fill="blue">C275</text>
<text x="2222500" y="2565929" font-family="Arial" font-size="2000" fill="blue">capacitor</text>
<text x="2222500" y="2722785" font-family="Arial" font-size="2000" fill="blue">C277</text>
<text x="2222500" y="2705629" font-family="Arial" font-size="2000" fill="blue">capacitor</text>
<text x="2222500" y="2875185" font-family="Arial" font-size="2000" fill="blue">C276</text>
<text x="2222500" y="2858029" font-family="Arial" font-size="2000" fill="blue">capacitor</text>
<text x="2222500" y="3014885" font-family="Arial" font-size="2000" fill="blue">C278</text>
<text x="2222500" y="2997729" font-family="Arial" font-size="2000" fill="blue">capacitor</text>
<text x="2222500" y="3167285" font-family="Arial" font-size="2000" fill="blue">C292</text>
<text x="2222500" y="3150129" font-family="Arial" font-size="2000" fill="blue">capacitor</text>
<text x="2222500" y="3332385" font-family="Arial" font-size="2000" fill="blue">C293</text>
<text x="2222500" y="3315229" font-family="Arial" font-size="2000" fill="blue">capacitor</text>
<text x="2222500" y="3472085" font-family="Arial" font-size="2000" fill="blue">C294</text>
<text x="2222500" y="3454929" font-family="Arial" font-size="2000" fill="blue">capacitor</text>
<text x="2222500" y="3624485" font-family="Arial" font-size="2000" fill="blue">C295</text>
<text x="2222500" y="3607329" font-family="Arial" font-size="2000" fill="blue">capacitor</text>
<text x="546100" y="982885" font-family="Arial" font-size="2000" fill="blue">C291</text>
<text x="546100" y="965729" font-family="Arial" font-size="2000" fill="blue">capacitor</text>
<text x="546100" y="1084485" font-family="Arial" font-size="2000" fill="blue">C290</text>
<text x="546100" y="1067329" font-family="Arial" font-size="2000" fill="blue">capacitor</text>
<text x="558800" y="3065685" font-family="Arial" font-size="2000" fill="blue">C259</text>
<text x="558800" y="3048529" font-family="Arial" font-size="2000" fill="blue">capacitor</text>
<text x="635000" y="2811685" font-family="Arial" font-size="2000" fill="blue">U33</text>
<text x="825500" y="2251108" font-family="Arial" font-size="2000" fill="blue">SW2</text>
<text x="1384300" y="1677631" font-family="Arial" font-size="2000" fill="blue">J13</text>
<rect x="1016000" y="1079500" width="5000" height="5000" stroke="red" stroke-width="20" fill="none"/>
<text x="1016000" y="1078500" font-family="Arial" font-size="3000" fill="red" font-weight="bold">R98</text>
<rect x="444500" y="2108200" width="5000" height="5000" stroke="red" stroke-width="20" fill="none"/>
<text x="444500" y="2107200" font-family="Arial" font-size="3000" fill="red" font-weight="bold">R96</text>
<rect x="546100" y="2273300" width="5000" height="5000" stroke="red" stroke-width="20" fill="none"/>
<text x="546100" y="2272300" font-family="Arial" font-size="3000" fill="red" font-weight="bold">R95</text>
<rect x="622300" y="1384300" width="5000" height="5000" stroke="red" stroke-width="20" fill="none"/>
<text x="622300" y="1383300" font-family="Arial" font-size="3000" fill="red" font-weight="bold">R300</text>
<rect x="787400" y="2565400" width="5000" height="5000" stroke="red" stroke-width="20" fill="none"/>
<text x="787400" y="2564400" font-family="Arial" font-size="3000" fill="red" font-weight="bold">R294</text>
<rect x="596900" y="3213100" width="5000" height="5000" stroke="red" stroke-width="20" fill="none"/>
<text x="596900" y="3212100" font-family="Arial" font-size="3000" fill="red" font-weight="bold">R295</text>
<rect x="2362200" y="1333500" width="5000" height="5000" stroke="red" stroke-width="20" fill="none"/>
<text x="2362200" y="1332500" font-family="Arial" font-size="3000" fill="red" font-weight="bold">R30</text>
<rect x="546100" y="1333500" width="5000" height="5000" stroke="red" stroke-width="20" fill="none"/>
<text x="546100" y="1332500" font-family="Arial" font-size="3000" fill="red" font-weight="bold">R298</text>
<rect x="749300" y="1435100" width="5000" height="5000" stroke="red" stroke-width="20" fill="none"/>
<text x="749300" y="1434100" font-family="Arial" font-size="3000" fill="red" font-weight="bold">R301</text>
<rect x="749300" y="1536700" width="5000" height="5000" stroke="red" stroke-width="20" fill="none"/>
<text x="749300" y="1535700" font-family="Arial" font-size="3000" fill="red" font-weight="bold">R299</text>
<rect x="342900" y="2463800" width="5000" height="5000" stroke="red" stroke-width="20" fill="none"/>
<text x="342900" y="2462800" font-family="Arial" font-size="3000" fill="red" font-weight="bold">R326</text>
<rect x="2235200" y="1384300" width="5000" height="5000" stroke="red" stroke-width="20" fill="none"/>
<text x="2235200" y="1383300" font-family="Arial" font-size="3000" fill="red" font-weight="bold">CR10</text>
<rect x="368300" y="1676400" width="5000" height="5000" stroke="red" stroke-width="20" fill="none"/>
<text x="368300" y="1675400" font-family="Arial" font-size="3000" fill="red" font-weight="bold">U34</text>
<rect x="1270000" y="1308100" width="5000" height="5000" stroke="red" stroke-width="20" fill="none"/>
<text x="1270000" y="1307100" font-family="Arial" font-size="3000" fill="red" font-weight="bold">C279</text>
<rect x="1270000" y="2209800" width="5000" height="5000" stroke="red" stroke-width="20" fill="none"/>
<text x="1270000" y="2208800" font-family="Arial" font-size="3000" fill="red" font-weight="bold">C274</text>
<rect x="2222500" y="2552700" width="5000" height="5000" stroke="red" stroke-width="20" fill="none"/>
<text x="2222500" y="2551700" font-family="Arial" font-size="3000" fill="red" font-weight="bold">C275</text>
<rect x="2222500" y="2692400" width="5000" height="5000" stroke="red" stroke-width="20" fill="none"/>
<text x="2222500" y="2691400" font-family="Arial" font-size="3000" fill="red" font-weight="bold">C277</text>
<rect x="2222500" y="2844800" width="5000" height="5000" stroke="red" stroke-width="20" fill="none"/>
<text x="2222500" y="2843800" font-family="Arial" font-size="3000" fill="red" font-weight="bold">C276</text>
<rect x="2222500" y="2984500" width="5000" height="5000" stroke="red" stroke-width="20" fill="none"/>
<text x="2222500" y="2983500" font-family="Arial" font-size="3000" fill="red" font-weight="bold">C278</text>
<rect x="2222500" y="3136900" width="5000" height="5000" stroke="red" stroke-width="20" fill="none"/>
<text x="2222500" y="3135900" font-family="Arial" font-size="3000" fill="red" font-weight="bold">C292</text>
<rect x="2222500" y="3302000" width="5000" height="5000" stroke="red" stroke-width="20" fill="none"/>
<text x="2222500" y="3301000" font-family="Arial" font-size="3000" fill="red" font-weight="bold">C293</text>
<rect x="2222500" y="3441700" width="5000" height="5000" stroke="red" stroke-width="20" fill="none"/>
<text x="2222500" y="3440700" font-family="Arial" font-size="3000" fill="red" font-weight="bold">C294</text>
<rect x="2222500" y="3594100" width="5000" height="5000" stroke="red" stroke-width="20" fill="none"/>
<text x="2222500" y="3593100" font-family="Arial" font-size="3000" fill="red" font-weight="bold">C295</text>
<rect x="546100" y="952500" width="5000" height="5000" stroke="red" stroke-width="20" fill="none"/>
<text x="546100" y="951500" font-family="Arial" font-size="3000" fill="red" font-weight="bold">C291</text>
<rect x="546100" y="1054100" width="5000" height="5000" stroke="red" stroke-width="20" fill="none"/>
<text x="546100" y="1053100" font-family="Arial" font-size="3000" fill="red" font-weight="bold">C290</text>
<rect x="558800" y="3035300" width="5000" height="5000" stroke="red" stroke-width="20" fill="none"/>
<text x="558800" y="3034300" font-family="Arial" font-size="3000" fill="red" font-weight="bold">C259</text>
<rect x="635000" y="2781300" width="5000" height="5000" stroke="red" stroke-width="20" fill="none"/>
<text x="635000" y="2780300" font-family="Arial" font-size="3000" fill="red" font-weight="bold">U33</text>
<rect x="825500" y="2222500" width="5000" height="5000" stroke="red" stroke-width="20" fill="none"/>
<text x="825500" y="2221500" font-family="Arial" font-size="3000" fill="red" font-weight="bold">SW2</text>
<rect x="1384300" y="1663700" width="5000" height="5000" stroke="red" stroke-width="20" fill="none"/>
<text x="1384300" y="1662700" font-family="Arial" font-size="3000" fill="red" font-weight="bold">J13</text>
</svg>